<svg xmlns="http://www.w3.org/2000/svg" width="614.675" height="433.176" viewBox="0 0 614.675 433.176"><g transform="translate(-960 -311.043)"><circle cx="33.474" cy="33.474" r="33.474" transform="translate(1240.453 676.352)" fill="#01bec3"/><path d="M725.238,595.516c18.727-5.624,38.637-11.489,53.489-24.859,13.272-11.948,22.232-30.192,16.733-48.11-5.487-17.881-21.922-29.8-38.89-35.734-9.624-3.363-19.692-5.229-29.757-6.7-10.941-1.593-21.93-2.9-32.914-4.155q-66.714-7.63-133.93-9.323c-22.111-.557-44.218-.543-66.332-.223-19.75.287-40.549.28-58.871-8.114-14.247-6.527-27.178-18.4-31.148-34.008-4.583-18.014,3.87-36.359,15.995-49.405A129.5,129.5,0,0,1,441.18,356.9c8.359-5.774,17.01-11.139,25.849-16.146a359.961,359.961,0,0,1,54.408-25.083c9.275-3.373,18.688-6.282,28.182-8.966a241.132,241.132,0,0,0,23.808-7.625c14.979-5.97,29.225-16.082,33.034-32.66,3.61-15.712-2.476-32.769-13.146-44.441-12.344-13.5-30.956-19.424-48.8-20.382-20.033-1.075-39.6,3.938-58.432,10.3-20.082,6.787-39.732,14.59-60.238,20.087a405.3,405.3,0,0,1-62,11.524C353.6,244.6,343.041,245.834,332.732,245c-8.64-.7-17.235-3.241-23.6-9.373-5.46-5.258-8.712-12.483-7.594-20.108.2-1.385,2.307-.8,2.105.58-1.361,9.282,4.948,17.835,12.723,22.216,8.986,5.064,19.92,5.071,29.925,4.491a391.383,391.383,0,0,0,64.413-9.311c20.807-4.752,40.871-11.546,60.912-18.8,19.034-6.892,38.493-13.62,58.828-15.113,17.644-1.3,36.2,1.275,51.576,10.5A57.056,57.056,0,0,1,608.625,247.2c3.093,15.154-1.191,30.407-12.662,40.982-11.877,10.949-28.163,15.63-43.34,19.942a397.063,397.063,0,0,0-56.319,20.16,353.546,353.546,0,0,0-52.977,29.784c-16.189,11.063-32.165,24.983-37.285,44.719a41.2,41.2,0,0,0,2.046,27.627,50.486,50.486,0,0,0,16.2,19.225c16.243,11.952,36.715,14.406,56.335,14.65,22.036.274,44.073-.47,66.116-.108q67.385,1.106,134.494,8.2,16.816,1.78,33.589,3.935c10.058,1.292,20.15,2.577,30.039,4.872,17.583,4.081,34.693,11.928,45.621,26.836a42.437,42.437,0,0,1,3.615,46.4c-8.392,16.512-24.112,27.015-40.8,33.914a289.518,289.518,0,0,1-27.472,9.275,1.092,1.092,0,0,1-.58-2.105Z" transform="translate(748.668 145.904)" fill="#01bec3"/><circle cx="17.465" cy="17.465" r="17.465" transform="translate(1034.148 344.154)" fill="#01bec3"/><circle cx="17.465" cy="17.465" r="17.465" transform="translate(1155.312 377.264)" fill="#edf2ff"/><circle cx="17.465" cy="17.465" r="17.465" transform="translate(1257.918 311.043)" fill="#edf2ff"/><circle cx="17.465" cy="17.465" r="17.465" transform="translate(1321.956 385.269)" fill="#f2f2f2"/><circle cx="17.465" cy="17.465" r="17.465" transform="translate(1235.359 471.138)" fill="#01bec3"/><circle cx="17.465" cy="17.465" r="17.465" transform="translate(1125.476 512.618)" fill="#01bec3"/><circle cx="17.465" cy="17.465" r="17.465" transform="translate(1241.908 577.384)" fill="#f2f2f2"/><circle cx="17.465" cy="17.465" r="17.465" transform="translate(1367.074 613.769)" fill="#f2f2f2"/><circle cx="17.465" cy="17.465" r="17.465" transform="translate(1513.343 605.764)" fill="#01bec3"/><path d="M568.242,220.372c-52.316.37-95.152,42.884-95.895,95.2-.007.483-.01,3.879-.01,8.321a24.558,24.558,0,0,0,24.554,24.557h0a24.572,24.572,0,0,0,24.568-24.589c0-3.027,0-5.118,0-5.247a46.573,46.573,0,1,1,71.694,39.208l.008.01s-34.95,22.5-45.606,53.367l.009,0a68.41,68.41,0,0,0-2.819,19.479c0,2.711.159,26.431.468,45.684a25.314,25.314,0,0,0,25.317,24.9h0a25.321,25.321,0,0,0,25.32-25.477c-.107-17.632-.165-38.162-.165-39.652,0-18.953,18.284-37.837,33.3-50.152a101.008,101.008,0,0,0,34.739-55.3,63.135,63.135,0,0,0,1.819-13.705,96.6,96.6,0,0,0-97.3-96.6Z" transform="translate(702.1 140.158)" fill="#01bec3"/><path d="M791.473,746.982H178.529a.866.866,0,0,1,0-1.733H791.471a.866.866,0,0,1,0,1.733Z" transform="translate(782.338 -2.764)" fill="#3f3d56"/><circle cx="21.831" cy="21.831" r="21.831" transform="translate(1395.495 466.042)" fill="#2f2e41"/><path d="M568.086,569.253h-8.921l-4.245-34.412h13.168Z" transform="translate(808.898 165.409)" fill="#a0616a"/><path d="M547.942,578.626h17.206v10.833H537.109a10.833,10.833,0,0,1,10.833-10.833Z" transform="translate(813.748 153.487)" fill="#2f2e41"/><path d="M663.086,569.253h-8.921l-4.245-34.412h13.168Z" transform="translate(783.03 165.409)" fill="#a0616a"/><path d="M642.942,578.626h17.206v10.833H632.109A10.833,10.833,0,0,1,642.942,578.626Z" transform="translate(787.881 153.487)" fill="#2f2e41"/><circle cx="17.873" cy="17.873" r="17.873" transform="translate(1396.135 474.085)" fill="#a0616a"/><path d="M792.279,485.69l8-18.375a22.837,22.837,0,0,0-5.057-25.906,23.2,23.2,0,0,0-2.234-1.943,22.512,22.512,0,0,0-13.819-4.781,23.417,23.417,0,0,0-9.751,2.169c-.262.116-.517.24-.779.364-.5.24-1,.5-1.477.771a23.052,23.052,0,0,0-11.425,17.378L752.2,484.94c-.888,2.321-32.557,86.153-21.482,150.155a3.251,3.251,0,0,0,2.78,2.671l11.229,1.528a3.272,3.272,0,0,0,3.646-2.569l18.84-89.806a2.549,2.549,0,0,1,4.948-.167l26.62,94.442a3.254,3.254,0,0,0,3.136,2.387,3.733,3.733,0,0,0,.633-.058l13.717-2.641a3.254,3.254,0,0,0,2.642-3.5C816.9,614.9,806.186,502.3,792.279,485.69Z" transform="translate(632.382 81.801)" fill="#053d9a"/><path d="M706.083,418.967a7.318,7.318,0,0,0,7.709,8.152l9.991,24.009,7.557-11.2-10.646-21.082a7.357,7.357,0,0,0-14.612.123Z" transform="translate(638.465 87.865)" fill="#a0616a"/><path d="M797.092,526.978a7.318,7.318,0,0,0,6.132-9.4l21.02-15.31-12.655-4.739L793.568,512.8a7.357,7.357,0,0,0,3.524,14.181Z" transform="translate(615.925 64.688)" fill="#a0616a"/><path d="M743.435,474.208a12.412,12.412,0,0,1-2.4-.237,11.866,11.866,0,0,1-8.694-7l-14-17.067a3.275,3.275,0,0,1,.808-4.862l9.958-6.164a3.275,3.275,0,0,1,4.523,1.084l9.865,16.253,18.892-13.962a7.074,7.074,0,0,1,8.23,11.325l-18.856,17.2a11.828,11.828,0,0,1-8.329,3.427Z" transform="translate(635.315 80.792)" fill="#053d9a"/><path d="M818.714,501.873h-.077a3.28,3.28,0,0,1-2.409-1.143L807.374,490.4a3.275,3.275,0,0,1,.67-4.856l16.578-11.052L809.6,456.437a7.074,7.074,0,0,1,10.833-8.865L838.69,465.41a12.025,12.025,0,0,1-2.675,19.6L821.1,500.845a3.281,3.281,0,0,1-2.383,1.028Z" transform="translate(611.086 78.795)" fill="#053d9a"/><path d="M791.607,460.128a3.369,3.369,0,0,1-.424-.027,3.246,3.246,0,0,1-2.7-2.233l-6.653-20.4a2.243,2.243,0,0,1,1.16-2.71l.216-.1c.2-.093.39-.185.588-.273a23.7,23.7,0,0,1,9.9-2.2,22.8,22.8,0,0,1,12.488,3.753,2.278,2.278,0,0,1,.656,3.125l-12.48,19.551A3.242,3.242,0,0,1,791.607,460.128Z" transform="translate(617.856 82.482)" fill="#e6e6e6"/><circle cx="7.144" cy="7.144" r="7.144" transform="translate(1427.395 463.839)" fill="#2f2e41"/><path d="M789.031,361.365h0a18.92,18.92,0,0,0-18.92,18.92v8h9.845l4.709-8,1.413,8h29.879l-8-8a18.92,18.92,0,0,0-18.92-18.92Z" transform="translate(621.018 101.766)" fill="#2f2e41"/><path d="M834.809,362.562A11.025,11.025,0,0,1,846.8,355c4.552.761,8.152,4.42,10.3,8.508s3.135,8.661,4.577,13.046,3.487,8.793,7.126,11.632,9.225,3.608,12.8.688A14.64,14.64,0,0,1,854.33,394.1c-1.886-3.356-2.373-7.289-2.933-11.1s-1.286-7.75-3.538-10.872-6.468-5.162-10.045-3.739Z" transform="translate(603.4 103.527)" fill="#2f2e41"/><path d="M503.7,351.793h0a24.558,24.558,0,0,1-24.556-24.554c0-4.445,0-7.841.01-8.324a95.7,95.7,0,0,1,11.177-43.6,95.914,95.914,0,0,0-18.454,55.239c-.007.483-.01,3.879-.01,8.321a24.558,24.558,0,0,0,24.554,24.557h0a24.577,24.577,0,0,0,23.642-17.9,24.467,24.467,0,0,1-16.365,6.252Z" transform="translate(702.229 125.195)" fill="#3f3d56"/><path d="M592.319,287.1a46.576,46.576,0,0,1,40.5,65.066,46.571,46.571,0,1,0-78.175-48.746A46.479,46.479,0,0,1,592.319,287.1Z" transform="translate(679.687 125.172)" fill="#3f3d56"/><path d="M604.426,553.248h0a25.316,25.316,0,0,1-25.317-24.909c-.308-19.247-.468-42.967-.468-45.678a68.406,68.406,0,0,1,2.819-19.479l-.009,0a69.174,69.174,0,0,1,4-9.243,80.085,80.085,0,0,0-11.275,20.886l.009,0a68.41,68.41,0,0,0-2.819,19.479c0,2.711.16,26.431.468,45.684a25.315,25.315,0,0,0,25.317,24.9h0a25.325,25.325,0,0,0,24.306-18.224A25.222,25.222,0,0,1,604.426,553.248Z" transform="translate(675.135 76.559)" fill="#3f3d56"/><path d="M126.54,569.708h8.921l4.245-34.412H126.538Z" transform="translate(925.545 165.285)" fill="#ffb8b8"/><path d="M0,0H28.039V10.833H10.833A10.833,10.833,0,0,1,0,0Z" transform="translate(1078.21 743.278) rotate(179.997)" fill="#2f2e41"/><path d="M82.54,569.708h8.921L95.706,535.3H82.538Z" transform="translate(937.525 165.285)" fill="#ffb8b8"/><path d="M0,0H28.039V10.833H10.833A10.833,10.833,0,0,1,0,0Z" transform="translate(1046.19 743.277) rotate(179.997)" fill="#2f2e41"/><path d="M266.451,675.738l-8.714-.458a3.4,3.4,0,0,1-3.215-3.615l10.415-115.317L312.9,569.291l4.621-1.261L303.07,670.116a3.417,3.417,0,0,1-3.171,2.87l-9.394.438a3.4,3.4,0,0,1-3.589-3.49l1.7-61.27a1.134,1.134,0,0,0-2.244-.262L269.96,673.031a3.381,3.381,0,0,1-3.325,2.711C266.573,675.743,266.512,675.741,266.451,675.738Z" transform="translate(761.411 48.673)" fill="#2f2e41"/><circle cx="17.873" cy="17.873" r="17.873" transform="translate(1035.813 474.921)" fill="#ffb8b8"/><path d="M265.5,463.691l1.965,42.4.71,15.426a3.378,3.378,0,0,0,2.237,3.038l46.09,16.7a3.257,3.257,0,0,0,1.164.2,3.379,3.379,0,0,0,3.394-3.484l-1.889-76.24A26.874,26.874,0,0,0,296.8,435.771c-.446-.068-.9-.136-1.353-.2a26.379,26.379,0,0,0-21.224,6.87,27.1,27.1,0,0,0-8.722,21.246Z" transform="translate(758.429 81.614)" fill="#053d9a"/><path d="M358.545,557.01a7.323,7.323,0,0,1-3.907-11.081l-15.63-20.783,13.487-.835,12.774,19.864a7.358,7.358,0,0,1-6.725,12.834Z" transform="translate(738.404 57.396)" fill="#ffb8b8"/><path d="M340.985,522.464a3.38,3.38,0,0,1-1.849-1.833l-23.547-56.1a9.07,9.07,0,1,1,16.726-7.02l23.547,56.1a3.405,3.405,0,0,1-1.82,4.452l-10.454,4.387a3.377,3.377,0,0,1-2.6.013Z" transform="translate(744.975 77.101)" fill="#053d9a"/><path d="M298.357,529.215l22.616-43.3a3.55,3.55,0,0,1,4.785-1.5l32.828,17.145a3.55,3.55,0,0,1,1.5,4.785l-22.617,43.3a3.55,3.55,0,0,1-4.785,1.5L299.859,534a3.55,3.55,0,0,1-1.5-4.785Z" transform="translate(749.583 68.371)" fill="#3f3d56"/><path d="M307,512.35a7.323,7.323,0,0,0-11.292-3.246l-21.67-14.375L274,508.242l20.583,11.579A7.358,7.358,0,0,0,307,512.349Z" transform="translate(756.104 65.451)" fill="#ffb8b8"/><path d="M271.888,501.587l-17.71-14.029a12.49,12.49,0,0,1-5.693-19.746l16.08-21.074a7.347,7.347,0,0,1,12.465,7.484l-12.723,20.812,18.7,8.868a3.4,3.4,0,0,1,1.418,4.89l-7.548,11.945a3.407,3.407,0,0,1-2.3,1.536l-.056.009A3.417,3.417,0,0,1,271.888,501.587Z" transform="translate(763.821 79.253)" fill="#053d9a"/><path d="M284.557,404.676a1.553,1.553,0,0,1,1.351-2.051,3.588,3.588,0,0,1,2.53,1.248,10.068,10.068,0,0,0,2.235,1.919,1.923,1.923,0,0,0,2.53-.457,3.519,3.519,0,0,0-.134-2.731,26.856,26.856,0,0,1-1.186-7.11c-.081-2.693.3-5.5,1.79-7.6,1.924-2.711,5.364-3.74,8.62-3.665s6.459,1.08,9.684,1.715c1.113.219,2.422.331,3.167-.531.792-.918.5-2.4.164-3.641-.874-3.215-1.8-6.538-3.832-9.134a13.752,13.752,0,0,0-8.777-4.941,21.059,21.059,0,0,0-9.8,1.112,26.268,26.268,0,0,0-12.868,8.964,21.275,21.275,0,0,0-4.059,15.719,19.406,19.406,0,0,0,7.194,12.265Z" transform="translate(755.624 100.086)" fill="#2f2e41"/><path d="M589.132,715.683A33.47,33.47,0,0,1,576.71,663.66a33.472,33.472,0,1,0,45.532,48.366,33.452,33.452,0,0,1-33.11,3.657Z" transform="translate(677.42 19.452)" fill="#3f3d56"/></g></svg>