<svg xmlns="http://www.w3.org/2000/svg" xmlns:xlink="http://www.w3.org/1999/xlink" width="819.524" height="594.95" viewBox="0 0 819.524 594.95"><defs><linearGradient id="a" x1="-0.099" y1="0.079" x2="0.954" y2="0.967" gradientUnits="objectBoundingBox"><stop offset="0" stop-color="#edf2ff"/><stop offset="1" stop-color="#777980" stop-opacity="0.369"/></linearGradient></defs><g transform="translate(-973 -280.143)"><path d="M1532.583,1115.024a133.3,133.3,0,0,0,44.5-60.312,129.753,129.753,0,0,0,7.638-36.614,127.088,127.088,0,0,0-3.415-37.937c-.077-.313-.154-.626-.234-.94s-.159-.626-.24-.939-.163-.624-.247-.938l-.252-.937a120.007,120.007,0,0,0-8.367-21.919,107.961,107.961,0,0,0-12.633-19.729,88.29,88.29,0,0,0-16.638-15.912,73.037,73.037,0,0,0-20.382-10.452,87.871,87.871,0,0,0-18.978-3.731,188.911,188.911,0,0,0-19.506-.611c-6.553.07-13.141.291-19.706.3a158.9,158.9,0,0,1-19.583-1.006,115.6,115.6,0,0,1-35.961-10.727,152.391,152.391,0,0,1-31.652-20.691,220.49,220.49,0,0,1-27.326-27.6,311.448,311.448,0,0,1-22.973-31.406c-6.93-10.761-13.457-21.842-19.927-32.968s-12.882-22.295-19.579-33.229-13.679-21.633-21.288-31.824a235.849,235.849,0,0,0-25.054-28.758,189.033,189.033,0,0,0-51.746-35.262,211.218,211.218,0,0,0-60.3-17.566,217.46,217.46,0,0,0-63.026.578,201.779,201.779,0,0,0-59.933,19.166,208.782,208.782,0,0,0-50.969,36.6A230.252,230.252,0,0,0,916.2,739.309a237.408,237.408,0,0,0-24.106,58.315,224.329,224.329,0,0,0-7.486,62.593,232.4,232.4,0,0,0,10.145,62.039,253.281,253.281,0,0,0,25.778,57.45,261.85,261.85,0,0,0,39.031,49.656,251.788,251.788,0,0,0,49.905,38.659,211.225,211.225,0,0,0,20.755,10.776,164.1,164.1,0,0,0,21.919,8.069,127.107,127.107,0,0,0,22.676,4.391,103.184,103.184,0,0,0,23.026-.266,126.261,126.261,0,0,0,19.631-4.262c6.436-1.884,12.8-4.128,19.162-6.4s12.714-4.566,19.13-6.563a141.9,141.9,0,0,1,19.559-4.754,114.683,114.683,0,0,1,31.188-.576,153.042,153.042,0,0,1,30.61,6.91,228.367,228.367,0,0,1,29.552,12.29c9.62,4.759,18.987,10.064,28.016,15.565s17.982,11.264,26.972,16.953,18.02,11.339,27.2,16.611a295.678,295.678,0,0,0,28.127,14.4,184.646,184.646,0,0,0,29.743,10.314,78.571,78.571,0,0,0,31.325.842,140.245,140.245,0,0,0,32.807-9.9,244.966,244.966,0,0,0,32.2-16.985C1513.476,1129.005,1523.43,1122,1532.583,1115.024Z" transform="translate(133.524 -318.149)" opacity="0.2" fill="url(#a)"/><path d="M859.34,865.237q3.4,4.023,6.924,7.918t7.2,7.67q3.663,3.771,7.457,7.414t7.715,7.151l760.945,1.04q3.921-3.508,7.715-7.151t7.452-7.416q3.663-3.771,7.195-7.67t6.923-7.915Z" transform="translate(113.66 -133.834)" fill="#363636"/><path d="M1147.963,813.126v89.261a4.291,4.291,0,0,0,4.291,4.291h132.281a4.29,4.29,0,0,0,4.291-4.291h0V813.126a4.291,4.291,0,0,0-4.291-4.291H1152.254a4.292,4.292,0,0,0-4.291,4.291Z" transform="translate(341.059 -178.272)" fill="#5becc0"/><path d="M1146.674,877.369a2.567,2.567,0,0,0,2.024.969h141.644a2.607,2.607,0,0,0,2.6-2.61,2.733,2.733,0,0,0-.055-.527l-2.2-10.447a2.611,2.611,0,0,0-1.623-1.89c-.073-.029-.148-.054-.223-.077s-.152-.041-.231-.059-.156-.025-.234-.032-.157-.011-.236-.011H1150.888q-.118,0-.236.011c-.079.007-.157.018-.234.032s-.154.034-.231.055a2.37,2.37,0,0,0-.223.08,2.611,2.611,0,0,0-1.623,1.89l-2.2,10.447a2.6,2.6,0,0,0,.536,2.172Z" transform="translate(339.582 -135.845)" fill="#5becc0"/><path d="M1226.395,866.354h-3.347a.507.507,0,0,1-.508-.508h0v-1.609a.508.508,0,0,1,.508-.5h3.347a.509.509,0,0,1,.508.508h0v1.609a.508.508,0,0,1-.508.508Z" transform="translate(399.816 -135.016)" fill="#413f56"/><path d="M1221.515,866.354h-3.347a.507.507,0,0,1-.508-.508h0v-1.609a.508.508,0,0,1,.508-.5h3.347a.508.508,0,0,1,.508.508h0v1.609a.507.507,0,0,1-.508.508Z" transform="translate(395.971 -135.016)" fill="#413f56"/><path d="M1216.635,866.354h-3.347a.507.507,0,0,1-.508-.508h0v-1.609a.508.508,0,0,1,.508-.5h3.347a.508.508,0,0,1,.508.508h0v1.609a.507.507,0,0,1-.508.508Z" transform="translate(392.126 -135.016)" fill="#413f56"/><path d="M1211.755,866.354h-3.347a.507.507,0,0,1-.508-.508h0v-1.609a.508.508,0,0,1,.508-.5h3.347a.508.508,0,0,1,.508.508h0v1.609a.507.507,0,0,1-.508.508Z" transform="translate(388.282 -135.016)" fill="#413f56"/><path d="M1206.875,866.354h-3.347a.507.507,0,0,1-.508-.508h0v-1.609a.508.508,0,0,1,.508-.5h3.347a.509.509,0,0,1,.508.508h0v1.609a.507.507,0,0,1-.508.508Z" transform="translate(384.437 -135.016)" fill="#413f56"/><path d="M1201.994,866.354h-3.347a.507.507,0,0,1-.508-.508h0v-1.609a.508.508,0,0,1,.508-.5h3.347a.509.509,0,0,1,.508.508h0v1.609a.507.507,0,0,1-.508.508Z" transform="translate(380.591 -135.016)" fill="#413f56"/><path d="M1197.114,866.354h-3.347a.507.507,0,0,1-.508-.508h0v-1.609a.508.508,0,0,1,.508-.5h3.347a.509.509,0,0,1,.508.508h0v1.609a.507.507,0,0,1-.508.508Z" transform="translate(376.746 -135.016)" fill="#413f56"/><path d="M1192.234,866.354h-3.347a.507.507,0,0,1-.508-.508h0v-1.609a.508.508,0,0,1,.508-.5h3.347a.508.508,0,0,1,.508.508h0v1.609a.507.507,0,0,1-.508.508Z" transform="translate(372.901 -135.016)" fill="#413f56"/><path d="M1187.354,866.354h-3.347a.507.507,0,0,1-.508-.508h0v-1.609a.508.508,0,0,1,.508-.5h3.347a.508.508,0,0,1,.508.508h0v1.609a.507.507,0,0,1-.508.508Z" transform="translate(369.057 -135.016)" fill="#413f56"/><path d="M1182.474,866.354h-3.347a.507.507,0,0,1-.508-.508h0v-1.609a.508.508,0,0,1,.508-.5h3.347a.509.509,0,0,1,.508.508h0v1.609a.508.508,0,0,1-.508.508Z" transform="translate(365.212 -135.016)" fill="#413f56"/><path d="M1177.594,866.354h-3.347a.507.507,0,0,1-.508-.508h0v-1.609a.508.508,0,0,1,.508-.5h3.347a.508.508,0,0,1,.508.508h0v1.609a.507.507,0,0,1-.508.508Z" transform="translate(361.367 -135.016)" fill="#413f56"/><path d="M1172.713,866.354h-3.347a.507.507,0,0,1-.508-.508h0v-1.609a.508.508,0,0,1,.508-.5h3.347a.508.508,0,0,1,.508.508h0v1.609a.507.507,0,0,1-.508.508Z" transform="translate(357.521 -135.016)" fill="#413f56"/><path d="M1167.833,866.354h-3.347a.507.507,0,0,1-.508-.508h0v-1.609a.508.508,0,0,1,.508-.5h3.347a.508.508,0,0,1,.508.508h0v1.609a.507.507,0,0,1-.508.508Z" transform="translate(353.676 -135.016)" fill="#413f56"/><path d="M1162.953,866.354h-3.347a.507.507,0,0,1-.508-.508h0v-1.609a.508.508,0,0,1,.508-.5h3.347a.509.509,0,0,1,.508.508h0v1.609a.508.508,0,0,1-.508.508Z" transform="translate(349.832 -135.016)" fill="#413f56"/><path d="M1158.073,866.354h-3.347a.507.507,0,0,1-.508-.508h0v-1.609a.508.508,0,0,1,.508-.5h3.347a.508.508,0,0,1,.508.508h0v1.609a.507.507,0,0,1-.508.508Z" transform="translate(345.987 -135.016)" fill="#413f56"/><path d="M1153.193,866.354h-3.347a.508.508,0,0,1-.508-.508h0v-1.609a.508.508,0,0,1,.508-.5h3.347a.508.508,0,0,1,.508.508h0v1.609a.507.507,0,0,1-.508.508Z" transform="translate(342.142 -135.016)" fill="#413f56"/><path d="M1226.453,868.794h-3.347a.507.507,0,0,1-.508-.508h0v-1.609a.508.508,0,0,1,.508-.5h3.347a.508.508,0,0,1,.508.508h0v1.609a.507.507,0,0,1-.508.508Z" transform="translate(399.862 -133.094)" fill="#413f56"/><path d="M1221.573,868.794h-3.347a.507.507,0,0,1-.508-.508h0v-1.609a.508.508,0,0,1,.508-.5h3.347a.508.508,0,0,1,.508.508h0v1.609a.507.507,0,0,1-.508.508Z" transform="translate(396.017 -133.094)" fill="#413f56"/><path d="M1216.693,868.794h-3.347a.507.507,0,0,1-.508-.508h0v-1.609a.508.508,0,0,1,.508-.5h3.347a.509.509,0,0,1,.508.508h0v1.609a.508.508,0,0,1-.508.508Z" transform="translate(392.172 -133.094)" fill="#413f56"/><path d="M1211.813,868.794h-3.347a.507.507,0,0,1-.508-.508h0v-1.609a.508.508,0,0,1,.508-.5h3.347a.508.508,0,0,1,.508.508h0v1.609a.507.507,0,0,1-.508.508Z" transform="translate(388.327 -133.094)" fill="#413f56"/><path d="M1206.932,868.794h-3.347a.507.507,0,0,1-.508-.508h0v-1.609a.508.508,0,0,1,.508-.5h3.347a.508.508,0,0,1,.508.508h0v1.609a.507.507,0,0,1-.508.508Z" transform="translate(384.482 -133.094)" fill="#413f56"/><path d="M1202.052,868.794H1198.7a.507.507,0,0,1-.508-.508h0v-1.609a.508.508,0,0,1,.508-.5h3.347a.508.508,0,0,1,.508.508h0v1.609a.507.507,0,0,1-.508.508Z" transform="translate(380.637 -133.094)" fill="#413f56"/><path d="M1197.172,868.794h-3.347a.507.507,0,0,1-.508-.508h0v-1.609a.508.508,0,0,1,.508-.5h3.347a.508.508,0,0,1,.508.508h0v1.609a.508.508,0,0,1-.508.508Z" transform="translate(376.792 -133.094)" fill="#413f56"/><path d="M1192.292,868.794h-3.347a.507.507,0,0,1-.508-.508h0v-1.609a.508.508,0,0,1,.508-.5h3.347a.508.508,0,0,1,.508.508h0v1.609a.507.507,0,0,1-.508.508Z" transform="translate(372.947 -133.094)" fill="#413f56"/><path d="M1187.412,868.794h-3.347a.507.507,0,0,1-.508-.508h0v-1.609a.508.508,0,0,1,.508-.5h3.347a.508.508,0,0,1,.508.508h0v1.609a.507.507,0,0,1-.508.508Z" transform="translate(369.102 -133.094)" fill="#413f56"/><path d="M1182.531,868.794h-3.347a.507.507,0,0,1-.508-.508h0v-1.609a.508.508,0,0,1,.508-.5h3.347a.508.508,0,0,1,.508.508h0v1.609a.507.507,0,0,1-.508.508Z" transform="translate(365.257 -133.094)" fill="#413f56"/><path d="M1177.651,868.794H1174.3a.507.507,0,0,1-.508-.508h0v-1.609a.508.508,0,0,1,.508-.5h3.347a.508.508,0,0,1,.508.508h0v1.609a.508.508,0,0,1-.508.508Z" transform="translate(361.412 -133.094)" fill="#413f56"/><path d="M1172.771,868.794h-3.347a.507.507,0,0,1-.508-.508h0v-1.609a.508.508,0,0,1,.508-.5h3.347a.508.508,0,0,1,.508.508h0v1.609a.507.507,0,0,1-.508.508Z" transform="translate(357.567 -133.094)" fill="#413f56"/><path d="M1167.891,868.794h-3.347a.507.507,0,0,1-.508-.508h0v-1.609a.508.508,0,0,1,.508-.5h3.347a.508.508,0,0,1,.508.508h0v1.609a.507.507,0,0,1-.508.508Z" transform="translate(353.722 -133.094)" fill="#413f56"/><path d="M1163.011,868.794h-3.347a.507.507,0,0,1-.508-.508h0v-1.609a.508.508,0,0,1,.508-.5h3.347a.508.508,0,0,1,.508.508h0v1.609a.507.507,0,0,1-.508.508Z" transform="translate(349.877 -133.094)" fill="#413f56"/><path d="M1158.13,868.794h-3.347a.507.507,0,0,1-.508-.508h0v-1.609a.508.508,0,0,1,.508-.5h3.347a.508.508,0,0,1,.508.508h0v1.609a.507.507,0,0,1-.508.508Z" transform="translate(346.032 -133.094)" fill="#413f56"/><path d="M1153.25,868.794H1149.9a.507.507,0,0,1-.508-.508h0v-1.609a.508.508,0,0,1,.508-.5h3.347a.509.509,0,0,1,.508.508h0v1.609a.508.508,0,0,1-.508.508Z" transform="translate(342.187 -133.094)" fill="#413f56"/><path d="M1216.485,871.724H1182.6a.507.507,0,0,1-.508-.508h0v-1.609a.508.508,0,0,1,.508-.5h33.884a.508.508,0,0,1,.508.508h0v1.609a.507.507,0,0,1-.508.508h0Z" transform="translate(367.949 -130.786)" fill="#413f56"/><path d="M1159.617,934.688l-13.9-21.98,43.644-34.792,18.015-19.958a19.957,19.957,0,0,1,33.764,7.112h0a19.94,19.94,0,0,1-12.05,24.987L1200.6,900.552Z" transform="translate(339.286 -144.757)" fill="#ecb4b4"/><path d="M971.013,810.43V917.252h74.837V810.43a3.593,3.593,0,0,0-2.531-3.438c-.086-.029-.17-.052-.254-.073s-.172-.037-.266-.054l-.279-.039a1.165,1.165,0,0,0-.274,0H974.628a3.605,3.605,0,0,0-3.615,3.594Zm29.2,36.705a7.989,7.989,0,0,1,15.978,0v12.4a7.989,7.989,0,1,1-15.978,0Z" transform="translate(201.644 -179.861)" fill="#323242"/><path d="M970.885,866.675v10.3a2.024,2.024,0,0,0,2.009,2.02h71.275a2.017,2.017,0,0,0,2.01-2.02v-10.3Z" transform="translate(201.543 -132.701)" fill="#413f56"/><path d="M905.165,722.945V917.99a9.373,9.373,0,0,0,9.374,9.374h289.035a9.373,9.373,0,0,0,9.374-9.374V722.945a9.379,9.379,0,0,0-9.374-9.363H914.539A9.38,9.38,0,0,0,905.165,722.945Z" transform="translate(149.764 -253.319)" fill="#413f56"/><path d="M908.958,722.388V912.6a5.006,5.006,0,0,0,5.006,5.006h284.215a5,5,0,0,0,5.006-5.006h0V722.388a5.018,5.018,0,0,0-5-5.021H913.964A5.018,5.018,0,0,0,908.958,722.388Z" transform="translate(152.753 -250.336)" fill="#fff"/><path d="M938.766,880.893a3.066,3.066,0,0,0,2.417,1.157H1110.27a3.108,3.108,0,0,0,3.039-3.755l-2.623-12.454a3.117,3.117,0,0,0-1.937-2.26c-.088-.034-.177-.064-.268-.091s-.183-.048-.273-.066-.186-.031-.279-.039-.188-.013-.284-.013H943.8c-.095,0-.188.005-.282.013a2.781,2.781,0,0,0-.279.039c-.093.018-.184.039-.275.064a2.375,2.375,0,0,0-.268.091,3.119,3.119,0,0,0-1.943,2.262l-2.617,12.467A3.112,3.112,0,0,0,938.766,880.893Z" transform="translate(175.689 -135.304)" fill="#323242"/><path d="M1183.245,732.956H917.309a1.058,1.058,0,1,1-.088-2.115h266.023a1.058,1.058,0,0,1,.088,2.115A.675.675,0,0,1,1183.245,732.956Z" transform="translate(158.464 -239.722)" fill="#413f56"/><path d="M929.68,720.733a6.082,6.082,0,0,1,2.412.5,6.255,6.255,0,0,1,1.967,1.357,6.363,6.363,0,0,1,1.328,2.013,6.491,6.491,0,0,1,0,4.933,6.322,6.322,0,0,1-1.325,2.015,6.2,6.2,0,0,1-1.967,1.357,6.089,6.089,0,0,1-4.827,0,6.2,6.2,0,0,1-1.967-1.357,6.352,6.352,0,0,1-1.334-2.015,6.493,6.493,0,0,1,0-4.933,6.4,6.4,0,0,1,1.328-2.013,6.259,6.259,0,0,1,1.967-1.357A6.107,6.107,0,0,1,929.68,720.733Z" transform="translate(164.195 -247.685)" fill="#413f56"/><path d="M941.656,720.733a6.083,6.083,0,0,1,2.412.5,6.255,6.255,0,0,1,1.967,1.357,6.368,6.368,0,0,1,1.328,2.013,6.493,6.493,0,0,1,0,4.933,6.326,6.326,0,0,1-1.325,2.015,6.2,6.2,0,0,1-1.967,1.357,6.089,6.089,0,0,1-4.827,0,6.2,6.2,0,0,1-1.967-1.357,6.351,6.351,0,0,1-1.334-2.015,6.491,6.491,0,0,1,0-4.933,6.4,6.4,0,0,1,1.328-2.013,6.256,6.256,0,0,1,1.967-1.357A6.108,6.108,0,0,1,941.656,720.733Z" transform="translate(173.63 -247.685)" fill="#413f56"/><path d="M953.631,720.733a6.082,6.082,0,0,1,2.412.5,6.257,6.257,0,0,1,1.967,1.357,6.365,6.365,0,0,1,1.328,2.013,6.491,6.491,0,0,1,0,4.933,6.322,6.322,0,0,1-1.325,2.015,6.2,6.2,0,0,1-1.967,1.357,6.09,6.09,0,0,1-4.827,0,6.2,6.2,0,0,1-1.967-1.357,6.353,6.353,0,0,1-1.334-2.015,6.491,6.491,0,0,1,0-4.933,6.4,6.4,0,0,1,1.328-2.013,6.255,6.255,0,0,1,1.967-1.357A6.108,6.108,0,0,1,953.631,720.733Z" transform="translate(183.065 -247.685)" fill="#413f56"/><path d="M1065.543,721.609h-15.206a1.151,1.151,0,0,0,0,2.3h15.206a1.151,1.151,0,1,0,.091-2.3Z" transform="translate(263.271 -246.995)" fill="#413f56"/><path d="M1065.563,724.027h-15.206a1.151,1.151,0,0,0,0,2.3h15.206a1.151,1.151,0,1,0,0-2.3Z" transform="translate(263.251 -245.09)" fill="#413f56"/><path d="M1065.543,726.445h-15.206a1.151,1.151,0,0,0,0,2.3h15.206a1.151,1.151,0,1,0,.091-2.3Z" transform="translate(263.271 -243.185)" fill="#413f56"/><path d="M1266.809,897.416a6.678,6.678,0,0,0,6.436,4.511l27.592-.715a6.585,6.585,0,0,0,6.229-4.851l3.9-41.754a10.184,10.184,0,0,0,4.414.906,10.061,10.061,0,1,0-.095-20.122c-.138,0-.277,0-.415.009s-.3,0-.456.011-.3.02-.454.036-.3.036-.451.059-.3.052-.449.084A6.828,6.828,0,0,0,1308,833.4l-42.444,1.1a2.184,2.184,0,0,0-.263.016c-.088.011-.175.02-.265.027s-.173.023-.261.038-.173.032-.259.05a6.629,6.629,0,0,0-5.076,8.607Zm44.967-45.637,2.778-9.951a6.773,6.773,0,0,0,.021-3.515.46.46,0,0,0,.1-.011l.1-.021.095-.021a.932.932,0,0,1,.1-.011,7.2,7.2,0,0,1,.54,14.387c-.068,0-.136,0-.2,0a6.77,6.77,0,0,1-3.526-.862Z" transform="translate(428.616 -158.92)" fill="#5becc0"/><path d="M1262.123,834.623a6.1,6.1,0,0,0,2.3,3.547,16.66,16.66,0,0,0,5.1,2.714,34.611,34.611,0,0,0,7.223,1.627,49.8,49.8,0,0,0,8.669.284,50.363,50.363,0,0,0,7.963-1,37.058,37.058,0,0,0,6.681-2.013,19.95,19.95,0,0,0,4.89-2.8,7.93,7.93,0,0,0,2.584-3.331c-.155-.047-.313-.086-.472-.12s-.318-.061-.477-.082-.322-.036-.481-.047a4.424,4.424,0,0,0-.486,0l-42.448,1.089c-.087,0-.177.009-.264.016s-.176.016-.263.027-.173.023-.261.037S1262.209,834.606,1262.123,834.623Z" transform="translate(431.003 -158.92)" fill="#413f56"/><path d="M1123.834,681.66l4.122,17.092-46.349,1.508s8.043-15.986,6.535-21.918S1123.834,681.66,1123.834,681.66Z" transform="translate(268 -79)" fill="#ecb4b4"/><path d="M1028.7,857.271l.225.715.012.023,6.794,20.662,7.82,23.809,14.711,44.747.143,6.951v.023l1.092,55.916-3.03,7.581,3.409,12.428s-.1-1.175-.377-2.768a24.7,24.7,0,0,0-1.459-5.278c-.715-1.673-1.707-3.011-3.039-3.256s-3.006.6-5.108,3.3c-1.191,1.532-2.433,3.075-3.7,4.616s-2.55,3.086-3.83,4.62-2.555,3.063-3.8,4.573-2.446,3.005-3.59,4.47q2.5,1.014,5.019,1.967t5.06,1.877q2.539.917,5.1,1.788t5.14,1.684l1.116.358,1.119.345,1.121.342,1.123.34.241.072.241.072.241.072.241.072q8.553,2.532,17.239,4.5t17.474,3.386q8.789,1.413,17.656,2.26t17.782,1.126l.923.025.912.021.894.02.894.018h7.223q1.005,0,2.008-.021t2-.038q1-.021,2-.052,7.388-.207,14.748-.808t14.673-1.589q7.314-.987,14.569-2.365t14.434-3.138c-.032-1.967-.079-4.034-.14-6.165s-.132-4.334-.217-6.6-.179-4.589-.288-6.973-.225-4.8-.358-7.268a10.833,10.833,0,0,0-.976-3.694c-.536-1.252-1.237-2.517-1.94-3.79s-1.405-2.555-1.956-3.833a11.676,11.676,0,0,1-1.022-3.821,6.079,6.079,0,0,1,.613-2.818,24.412,24.412,0,0,1,1.552-2.78,23.567,23.567,0,0,0,1.547-2.791,6.108,6.108,0,0,0,.6-2.85c-.4-5.945-.833-9.833-1.273-12.583a36.252,36.252,0,0,0-1.337-5.762,45.067,45.067,0,0,1-1.316-4.47,66.521,66.521,0,0,1-1.207-8.678c-.037-.411-.077-.821-.114-1.225s-.075-.8-.109-1.2-.071-.785-.105-1.171-.068-.767-.1-1.144c-.241-2.7-.463-5.153-.66-7.307s-.372-4.014-.515-5.542-.257-2.7-.334-3.506-.12-1.225-.12-1.225l6.4-40.229,10.04-63.259-.772-1.271-.867-.427-52.959-26.212-2.875-7.366a11.435,11.435,0,0,0-10.563-7.235l-34.885-.143a11.386,11.386,0,0,0-9.279,4.716l-9.447,13.082Z" transform="translate(247.094 -185.701)" fill="#5becc0"/><path d="M1082.375,919.406l-7.9,16.908-5.394,11.55-9.284,48.584-4.649,4.931-3.98-17.457-41.654,9.259c-.342-1.9-.536-2.832-.647-3.293s-.139-.461-.152-.476a3.994,3.994,0,0,1-.052-.6c-.046-.554-.141-1.625-.358-3.708l.179-.179.179-.179.179-.179.179-.179c.166-.154.325-.307.472-.458a4.61,4.61,0,0,0,.388-.445,2.09,2.09,0,0,0,.261-.433,1.022,1.022,0,0,0,.113-.417c-.118-7.182-.118-15.626.134-24.712s.758-18.817,1.652-28.576a287.866,287.866,0,0,1,3.971-28.749,141.683,141.683,0,0,1,7.1-25.209q.7-1.813,1.509-3.576t1.727-3.476q.917-1.708,1.938-3.361t2.146-3.238l.179-.241.179-.241.179-.241.17-.241c1.373-1.922,2.619-3.837,3.792-5.71s2.276-3.71,3.361-5.473,2.146-3.454,3.254-5.04a42.564,42.564,0,0,1,3.472-4.414v-.012l.023-.02.022-.02.02-.021.02-.023h.025l.011-.009.011-.011,33.782-17.936,1.45,40.731,1.033,29.276Z" transform="translate(231.025 -167.836)" fill="#413f56"/><path d="M1117.886,924.024l9.869,21.117,3.445,7.354,9.277,48.58,4.631,4.918,3.988-17.451,1.875-.384,33.807-7,9.853,31.288a18.721,18.721,0,0,0-3.4-23.441c-.168-.152-.329-.3-.477-.454a4.615,4.615,0,0,1-.392-.445,2.153,2.153,0,0,1-.261-.436.993.993,0,0,1-.09-.426c.14-8.448.116-18.64-.29-29.573s-1.2-22.608-2.585-34.02a216.427,216.427,0,0,0-6.191-32.446c-2.811-9.883-6.437-18.5-11.106-24.851-1.482-2.015-2.816-4.028-4.064-6s-2.41-3.908-3.549-5.766-2.255-3.638-3.408-5.307a42.258,42.258,0,0,0-3.637-4.614l-.009-.013v-.011h-.009l-12.61-20.627-.769-1.266-.864-.433Z" transform="translate(317.362 -167.652)" fill="#413f56"/><path d="M1104.854,741.936a46.264,46.264,0,1,1-18.057,3.647A46.266,46.266,0,0,1,1104.854,741.936Z" transform="translate(270.602 -230.98)" fill="#ecb4b4"/><path d="M1170.174,765.644a3.917,3.917,0,0,0-2.8-1.239l.7-1.938a3.675,3.675,0,0,0-4.116-4.9l-2.54.49.239-1.7a3.681,3.681,0,0,0-4.927-3.978,3.918,3.918,0,0,1-3.374-.24,4,4,0,0,1-2-2.719l-.894-4.271-.091-.229a25.657,25.657,0,0,0-3.948-5.006,30.641,30.641,0,0,0-5.242-4.135,36.363,36.363,0,0,0-6.333-3.152,41.915,41.915,0,0,0-7.228-2.038,55.781,55.781,0,0,0-6.807-.844c-2.277-.145-4.561-.173-6.84-.12s-4.556.179-6.821.358-4.518.379-6.749.586c-.894.084-1.8.17-2.725.283s-1.861.256-2.791.451a20.375,20.375,0,0,0-2.751.771,14.491,14.491,0,0,0-2.607,1.252,10.727,10.727,0,0,0-2,1.609,10.846,10.846,0,0,0-1.609,2.108,9.006,9.006,0,0,0-.982,2.442,7.161,7.161,0,0,0-.136,2.616,16.618,16.618,0,0,0-6.635-.612,20.475,20.475,0,0,0-6.368,1.788,24.845,24.845,0,0,0-5.594,3.576,24.257,24.257,0,0,0-4.33,4.725,31.845,31.845,0,0,0-3.342,6.379,41.478,41.478,0,0,0-1.967,6.746,58.292,58.292,0,0,0-.967,6.713c-.191,2.188-.275,4.312-.313,6.279a109.684,109.684,0,0,0,.51,13.409,84.227,84.227,0,0,0,2.085,12.084,66.888,66.888,0,0,0,3.656,10.727,55.93,55.93,0,0,0,5.217,9.335,3.819,3.819,0,0,1,.377.763c.114.29.224.6.358.908a4.336,4.336,0,0,0,.458.862,1.925,1.925,0,0,0,.7.622l-.24-.386a7.935,7.935,0,0,1,.944.554,4.463,4.463,0,0,1,.781.672,1.956,1.956,0,0,1,.447.76,1.179,1.179,0,0,1-.057.817,3.269,3.269,0,0,0,.749,3,18.666,18.666,0,0,0,3.515,3.647,38.814,38.814,0,0,0,5.006,3.485,31.527,31.527,0,0,0,5.244,2.514,54.751,54.751,0,0,0,9.613,2.394,83.628,83.628,0,0,0,10.282.976c3.449.125,6.873.07,10.136-.114s6.366-.5,9.173-.881l.4-2.657c1.014-.138,1.951-.307,2.8-.51a15.538,15.538,0,0,0,2.272-.706,7.193,7.193,0,0,0,1.663-.91,3.208,3.208,0,0,0,.973-1.124q.536-.451,1.024-.883t.951-.84c.306-.272.6-.54.883-.8s.556-.517.819-.767l.011-.011.019-.018.023-.02.023-.02.02-.018a38.849,38.849,0,0,0,3.125-3.311,18.031,18.031,0,0,0,1.966-2.861,13.1,13.1,0,0,0,1.117-2.737,19.619,19.619,0,0,0,.571-2.948,20.939,20.939,0,0,0,.14-3.105,28.305,28.305,0,0,0-.261-3.084c-.14-1.019-.324-2.027-.536-3.018s-.438-1.967-.669-2.907c4.879.754,6.839-.166,7.318-2.046s-.524-4.716-1.568-7.792a23.157,23.157,0,0,1-1.818-9.222c.311-2.832,2.022-5.185,6.567-6.334l.157-.047.159-.041.159-.037.161-.032.4-.095.4-.1.391-.1.386-.105q.922-.25,1.824-.563t1.779-.688q.877-.375,1.727-.81t1.668-.928a17.809,17.809,0,0,0,3.241-2.5,19.234,19.234,0,0,0,2.373-2.836c.692-1,1.305-2.038,1.911-3.122s1.2-2.206,1.859-3.363a3.574,3.574,0,0,0-.469-4.2Z" transform="translate(268.011 -240.694)" fill="#323242"/><path d="M1310.927,910.556q0,.684-.011,1.5c-.007.547-.015,1.134-.02,1.763s-.02,1.3-.032,2.013-.03,1.462-.052,2.251v1.344c-.034,1.45-.068,2.843-.1,4.2s-.071,2.682-.111,3.985-.08,2.6-.127,3.912-.095,2.625-.15,3.976v.279c0,.093,0,.184-.009.277s0,.186-.011.277-.013.186-.015.279c-.073,1.884-.156,3.847-.252,5.948s-.206,4.339-.331,6.778-.266,5.074-.424,7.97-.336,6.052-.536,9.529a63.082,63.082,0,0,1-1.289,11.528c-.486,1.675-1.025,1.6-1.6,1a15.906,15.906,0,0,0-1.806-2.131c-.626-.409-1.267-.1-1.911,2.145-.03.113-.063.233-.095.358s-.065.256-.1.384-.064.273-.1.417-.064.295-.095.45c-.1.569-.211,1.132-.342,1.69s-.277,1.114-.442,1.665-.341,1.1-.536,1.636-.406,1.076-.636,1.609c-.342.2-.685.4-1.03.6s-.692.4-1.04.6l-1.044.59-1.042.587q-1.48.826-2.972,1.632t-2.993,1.6q-1.5.791-3.009,1.564t-3.025,1.527q-.85.424-1.706.84t-1.709.83q-.855.413-1.713.817t-1.716.8l-.272.125-.268.123-.266.122-.266.118q-4.4,2.035-8.866,3.917t-8.993,3.61q-4.527,1.727-9.118,3.3t-9.222,2.984l-1.811.536-1.811.536q-.906.268-1.814.519t-1.824.5q-.952.268-1.906.524t-1.91.508q-.957.252-1.915.492t-1.923.477q-7.177,1.762-14.432,3.14t-14.568,2.367q-7.313.99-14.673,1.59t-14.748.81q-.995.032-2,.054t-2,.036q-1.038.013-2.045.012h-7.205l-.894-.021-.894-.02-.912-.02-.919-.021q-8.915-.276-17.782-1.126t-17.655-2.262q-8.788-1.411-17.475-3.388t-17.255-4.536l-.969-.281-1.123-.343-1.121-.343-1.117-.347q-.561-.177-1.118-.358-2.577-.815-5.136-1.681t-5.1-1.788q-2.54-.912-5.061-1.877t-5.024-1.967q-1.909-.767-3.808-1.566t-3.786-1.623q-1.888-.826-3.766-1.679t-3.742-1.734l-.034-.011-.032-.014-.03-.018-.029-.02-.783-.358-.785-.37-.785-.375-.783-.381-.1-.056-.106-.055-.109-.055-.109-.055q-1.456-.714-2.905-1.43t-2.891-1.473q-1.44-.746-2.875-1.507t-2.861-1.539a24.063,24.063,0,0,0-2.6-4.566,40,40,0,0,0-2.791-3.375c-.937-1.039-1.86-2.056-2.725-3.2a19.646,19.646,0,0,1-2.367-4.067q-.3-.714-.567-1.455c-.175-.494-.336-.987-.481-1.484s-.279-1-.4-1.509-.22-1.015-.307-1.531v-.071c.073.969.032,1.023-.052.667s-.209-1.123-.306-1.8a7.333,7.333,0,0,1-.129-1.251,18.8,18.8,0,0,1,.476,2.324v-.417c0-.093-.016-.193-.025-.3s-.02-.214-.03-.331-.023-.24-.036-.369-.027-.264-.043-.409c-.894-8.721-1.548-17.754-2.054-26.913s-.9-18.429-1.193-27.651-.519-18.379-.772-27.286-.529-17.564-.917-25.781q-.04-.8-.081-1.577t-.078-1.547c-.027-.506-.055-1.008-.082-1.505s-.056-.989-.082-1.475c-.007-.157-.016-.318-.025-.483s-.02-.32-.029-.47-.02-.325-.031-.483-.021-.313-.03-.47l.057-.143.061-.145.061-.143c.022-.048.045-.095.068-.143l.016-.039.02-.043.02-.036.021-.038.023-.048.025-.047.027-.047.029-.047.018-.025.02-.027.018-.027.018-.018.013-.027.012-.027.011-.032.014-.025.071-.111.077-.113.081-.113.084-.111.031-.046.036-.043.036-.039.037-.039.029-.039.041-.038.032-.036.034-.034.025-.038.027-.034.031-.032.03-.03.032-.032.031-.034.034-.038.037-.039.018-.023.027-.025.021-.02.023-.018.057-.07.066-.066.07-.059.072-.061c.093-.086.188-.168.284-.25s.2-.163.3-.247.2-.154.3-.229.206-.146.309-.218l.1-.068.113-.072.113-.073.111-.077c.263-.157.527-.307.8-.452s.542-.282.817-.415.554-.257.835-.377.565-.231.853-.338l.295-.109.3-.106.306-.105.315-.107.116-.032.115-.036.114-.038.116-.039.179-.054.179-.052.179-.048.179-.043q.445-.131.908-.256l.928-.245q.48-.115.982-.225t1.019-.215l.127-.023.13-.025.129-.027.132-.031.19-.037.193-.034.193-.032.195-.032.268-.046.27-.047.274-.046.272-.039q1.169-.191,2.4-.358t2.55-.291q1.311-.134,2.694-.245t2.837-.207l.273-.016.274-.016.273-.016.274-.016.323-.014.322-.016.323-.016.325-.016.275-.014.275-.009h.561l.275-.014.279-.011h.57l.794-.023.8-.021.815-.02.824-.018q1.18-.056,2.391-.072t2.453,0q1.241,0,2.515.021l2.578.045,1.217.032,1.23.034,1.252.041,1.251.05h.322l1.1.041,1.11.057,1.121.052,1.134.059.8.039.8.039.8.043.8.045.76.046.763.048.767.05.771.054.6.034.6.039.6.041.608.041.515.039.515.037.515.036.515.032.937.063.383.03.384.029.388.032.388.036.86.07.864.073.865.07.871.07.871.079.876.079.88.079.883.079.883.082.894.082.894.084.894.086h.354l.812.084.813.082.815.082.819.084.189.016.191.016.191.018.19.022.785.082.79.086.792.088.79.086.241.027.241.025.241.027.243.027.617.066.615.064.615.066.62.07.824.093.826.093.824.1c.274.034.547.068.817.1l.633.07.633.072.633.073.633.077,1,.12,1,.123,1,.127,1.007.131.382.046.383.048.382.05.383.054q1.429.18,2.882.368t2.9.385l2.919.4,2.941.409q2.24.317,4.493.647t4.523.674q2.269.343,4.549.7t4.57.728q2.293.373,4.591.753t4.605.774q2.306.391,4.618.794t4.631.815l1.171.211,1.173.213,1.175.215,1.178.216.536.1.536.1.536.1.536.1.906.166.906.168.906.179.907.179.906.179.906.179.907.179.906.179,1.073.211,1.073.211,1.073.211,1.073.211q3.551.7,7.089,1.43t7.052,1.473q3.516.748,7,1.515t6.93,1.552l1.132.259,1.132.261,1.13.261,1.126.259,2.244.526,2.235.536,2.224.536,2.213.536.608.143.6.145.6.147.6.148,1.5.375,1.5.375,1.491.377,1.482.381.343.093,1.073.268,1.073.272,1.073.275,1.064.279,2.5.658,2.476.661,2.455.665,2.435.67,1.609.447,1.595.449,1.586.452,1.577.454q1.177.34,2.339.681t2.313.685q1.151.343,2.287.69l2.258.694.554.179.554.179.551.168.549.166,1.634.51,1.62.513,1.609.515,1.582.515,1.242.408,1.228.411,1.218.413,1.207.413,1.2.415,1.185.415,1.173.415,1.162.415.74.268.736.274.735.273.735.268,1.051.39,1.042.39,1.032.39,1.021.39.311.118.307.122.306.122.306.118.193.082.191.077.19.075.179.077.368.146.37.145.368.145.358.147.357.143.358.147.358.15.358.154.357.143.358.145.358.147.347.148.358.143.347.147.345.15.343.154.288.12.283.122.279.123.275.125.554.243.552.243.549.245.536.249.266.123.266.122.267.122.266.123.812.375.086.045.086.043.086.039.086.039.2.095.2.1.2.1.2.095.451.214.447.218.443.218.44.214.581.3.574.295.563.293.552.291.551.3.536.295.536.293.522.292.084.046.082.047.082.046.084.047.118.064.118.066.118.066.118.064.4.229.39.231.385.231.383.229.74.459c.238.154.477.306.715.456s.47.3.7.454.454.3.676.452l.147.1.145.1.145.1.147.095.486.358.474.349q.233.18.459.349c.151.114.3.232.445.358h.009l.147.111.143.112.141.113.141.111.118.105.121.1.122.1.118.106.4.349c.13.12.258.234.382.343s.247.223.366.341.238.234.358.342l.114.107.111.111.107.113.106.116.045.039.043.041.041.043.039.045.152.156.145.156.14.155.134.156.02.021.02.023.018.023.016.025.179.218.179.218.179.218.166.218.081.109.081.109.079.109.073.109.093.134.091.136.087.136.082.134.068.111.066.113.064.113.063.111c.055.095.107.19.159.284s.1.193.147.292.091.2.134.3.084.2.122.3c.031.07.057.14.084.209s.052.141.075.213.047.143.066.214.039.145.057.218.039.14.055.209.032.141.048.211.029.141.041.211.025.141.034.213Z" transform="translate(228.675 -150.88)" fill="#edf2ff"/><path d="M1310.932,910.552q0,.684-.011,1.5c-.007.547-.014,1.134-.02,1.763s-.02,1.3-.032,2.013-.03,1.463-.052,2.251c0,.111,0,.22-.009.331s-.009.223-.011.334,0,.225-.011.338-.011.227-.009.341q-.04,1.66-.088,3.51t-.109,3.869q-.059,2.019-.13,4.2t-.152,4.495v.279c0,.093,0,.184-.009.277s0,.186-.011.277-.013.186-.014.279c-.073,1.884-.156,3.848-.252,5.948s-.206,4.339-.331,6.778-.266,5.074-.424,7.97-.336,6.052-.536,9.529a63.058,63.058,0,0,1-1.289,11.528c-.486,1.675-1.024,1.6-1.6,1a15.9,15.9,0,0,0-1.806-2.131c-.626-.409-1.267-.1-1.911,2.146q-2.682-1.647-5.485-3.334t-5.721-3.4q-2.923-1.716-5.961-3.466t-6.177-3.522l-1.135-.642-1.141-.642-1.146-.644-1.151-.645q-6.281-3.5-12.91-7.084t-13.538-7.2q-6.908-3.621-14.06-7.266t-14.482-7.282l-.579-.29-.581-.288-.581-.286-.579-.283c-11.183-5.528-22.624-11.019-34.111-16.368s-23.021-10.561-34.391-15.528-22.583-9.692-33.423-14.072-21.328-8.419-31.209-12.007q-2.861-1.038-5.66-2.027t-5.523-1.922q-2.722-.925-5.374-1.82t-5.22-1.7q-5.415-1.73-10.445-3.193t-9.626-2.632q-4.588-1.164-8.719-2.024t-7.727-1.384c-2.5-.358-4.806-.606-6.9-.715a38.666,38.666,0,0,0-5.648.075,17.022,17.022,0,0,0-4.291.914,7.333,7.333,0,0,0-2.853,1.8l-.081-1.577q-.04-.786-.078-1.537c-.027-.511-.056-1.015-.082-1.514s-.055-.989-.082-1.475l-.03-.483-.032-.477-.032-.474-.03-.472c.016-.043.032-.084.052-.127s.038-.084.057-.125l.059-.124.061-.123v-.072l.016-.039.048-.037.02-.039.021-.037.023-.052.025-.05.027-.047.029-.043.027-.055.03-.054.032-.052.036-.05.072-.111.08-.111.08-.113.084-.111.064-.08.066-.079.063-.079.072-.075.025-.038.029-.034.03-.032.023-.032.032-.032.032-.036.043-.039.037-.039.018-.023.016-.021.021-.02.027-.025.063-.07.068-.059.07-.064.072-.061c.093-.086.188-.168.284-.25s.193-.161.29-.24.2-.154.3-.229.206-.147.309-.218l.1-.07.113-.071.113-.073.111-.077c.263-.157.527-.307.8-.452s.547-.283.833-.415.554-.257.835-.377.565-.231.853-.338l.3-.107.3-.105.306-.105.315-.107.116-.032.114-.036.115-.038.116-.039.179-.054.179-.052.179-.048.179-.043q.445-.131.908-.256c.309-.082.612-.163.91-.245q.48-.115.982-.225l1.019-.214.324-.055.322-.061.327-.07.327-.048.275-.054.263-.048.274-.047.272-.047q1.159-.182,2.4-.341t2.55-.3q1.312-.134,2.694-.25t2.837-.2l.273-.016.273-.016.274-.016.274-.016.313-.013.322-.016.324-.016.325-.016.281-.016h.84l.275-.014.279-.011h.571l.8-.064.8-.021.815-.022.824-.018q1.18-.019,2.391-.029t2.453,0q1.241,0,2.516.023l2.578.048,1.217.027,1.23.036,1.252.043,1.251.05h.325l1.1.036,1.114.045,1.121.052,1.128.054.8.039.8.039.8.043.8.045.76.047.763.048.767.05.771.054.6.034.606.052.6.041.608.041.515.039.515.037.515.036.515.034.617.047.619.046.62.047.624.046.864.072.862.07.865.07.871.07.871.079.876.079.874.071.883.079.885.08.894.082.894.084.894.086h.354l.812.084.813.082.815.082.819.084q2.272.231,4.579.481t4.631.563q2.341.271,4.713.558t4.779.6q1.429.18,2.884.374t2.9.386l2.92.4,2.939.413q2.24.317,4.493.645t4.523.672q2.269.343,4.548.7t4.57.715q2.293.373,4.591.753t4.605.774q2.306.391,4.618.794t4.631.815l1.171.211,1.173.213,1.175.215,1.178.216,1.43.266,1.43.27,1.43.272,1.43.275.906.179.906.179.906.179.907.179,1.073.211,1.073.211,1.073.211,1.073.211q3.551.7,7.089,1.43t7.051,1.473q3.516.748,7,1.514t6.93,1.552l1.132.259,1.132.261,1.13.261,1.126.259,2.244.526,2.235.536,2.224.536,2.214.536.608.148.6.148.6.148.6.148,1.5.375,1.5.375,1.487.375,1.48.375v.011l.086.018.086.02.086.021.086.023,1.073.274,1.073.275,1.073.277,1.073.279,2.5.658,2.476.66,2.454.663,2.435.665,1.609.452,1.6.449,1.586.449,1.575.453,2.339.688,2.313.687,2.287.687,2.258.688.554.179.554.179.551.168.549.166,1.632.515,1.609.513,1.609.513,1.586.511,1.243.408,1.228.411,1.218.413,1.207.415,1.2.415,1.185.415,1.175.415,1.162.415.745.266.74.27.733.27.729.266,1.055.392,1.041.391,1.03.393,1.019.4.311.118.307.122.306.122.3.118.567.22.56.223.554.225.549.227.358.143.358.147.357.15.358.154.358.143.357.145.358.147.347.148.357.143.347.147.345.15.343.154.288.12.282.121.279.123.275.125.554.243.552.243.549.245.536.249.266.123.266.122.266.121.266.123.812.375.086.045.086.043.086.039.086.039.658.313.647.313.638.313.629.313.581.3.574.295.563.293.552.292.64.341.626.34.613.34.6.341.118.064.118.066.118.066.118.064.4.229.39.231.384.231.383.229.74.459c.238.154.478.306.715.456s.47.3.7.454.454.3.676.452.436.3.645.451.418.3.622.449.4.3.6.447.39.3.579.445h.009l.272.218.266.218.261.216.254.213.4.348c.131.12.258.234.383.344s.247.223.367.341.238.234.358.342l.114.107.111.111.107.113.105.116.045.039.043.041.041.043.039.045.164.179.163.179.161.179.157.179.179.218.179.218.179.218.166.218.081.109.08.109.079.109.073.109.093.134.091.136.088.136.082.134.068.111.066.113.064.112.063.111c.055.095.107.189.159.284s.1.193.147.291.091.2.134.3.084.2.122.3c.029.07.055.139.082.209s.05.141.073.213.047.143.066.214.039.145.059.216.039.14.055.209.032.141.048.211.029.141.041.211.023.141.032.213Z" transform="translate(228.671 -150.875)" opacity="0.2" style="isolation:isolate"/><path d="M63.192,40.286a7.2,7.2,0,0,1-6.865-7.16,7.149,7.149,0,0,1-6.836,7.16,7.149,7.149,0,0,1,6.836,7.16,6.8,6.8,0,0,1,2-4.95A6.942,6.942,0,0,1,63.192,40.286ZM56.327,19.071a13.541,13.541,0,0,1-9.458-4.331A13.487,13.487,0,0,1,42.98,5.076,13.487,13.487,0,0,1,39.09,14.74,13.675,13.675,0,0,1,29.6,19.071a13.656,13.656,0,0,1,6.747,2.092,14.159,14.159,0,0,1,4.862,5.1,13.855,13.855,0,0,1,1.768,6.865,13.555,13.555,0,0,1,3.889-9.694A13.453,13.453,0,0,1,56.327,19.071ZM46.545,50.8A10.524,10.524,0,0,1,36.5,40.286,10.527,10.527,0,0,1,26.48,50.8,10.527,10.527,0,0,1,36.5,61.323a10.147,10.147,0,0,1,2.917-7.278A10.322,10.322,0,0,1,46.545,50.8ZM26.48,36.838A10.474,10.474,0,0,1,16.491,26.29a10.147,10.147,0,0,1-2.917,7.278,10.144,10.144,0,0,1-7.13,3.241,10.144,10.144,0,0,1,7.13,3.241,10.147,10.147,0,0,1,2.917,7.278A10.421,10.421,0,0,1,26.48,36.838Z" transform="translate(1073.501 275.067)" fill="#edf2ff"/><path d="M6.444,63.655a11.55,11.55,0,0,0,8.088-3.676,11.52,11.52,0,0,0,3.333-8.235A11.894,11.894,0,0,0,29.238,63.655,11.894,11.894,0,0,0,17.866,75.567a11.321,11.321,0,0,0-3.333-8.235A11.55,11.55,0,0,0,6.444,63.655ZM17.866,28.36A22.529,22.529,0,0,0,33.6,21.155,22.439,22.439,0,0,0,40.072,5.076a22.439,22.439,0,0,0,6.471,16.079A22.751,22.751,0,0,0,62.327,28.36,22.72,22.72,0,0,0,51.1,31.841a23.556,23.556,0,0,0-8.088,8.48,23.051,23.051,0,0,0-2.941,11.422A22.552,22.552,0,0,0,33.6,35.615,22.381,22.381,0,0,0,17.866,28.36ZM34.14,81.155A16.877,16.877,0,0,0,46,75.763a16.881,16.881,0,0,0,4.853-12.108,17.514,17.514,0,0,0,16.667,17.5,17.514,17.514,0,0,0-16.667,17.5A16.881,16.881,0,0,0,46,86.547,17.172,17.172,0,0,0,34.14,81.155ZM67.523,57.92a16.766,16.766,0,0,0,11.814-5.392,16.87,16.87,0,0,0,4.8-12.157,17.51,17.51,0,0,0,16.716,17.5,17.51,17.51,0,0,0-16.716,17.5A17.338,17.338,0,0,0,67.523,57.92Z" transform="translate(1618.093 431.395)" fill="#5becc0"/><g transform="translate(1121.48 556.825)"><rect width="170.662" height="44.156" rx="22.078" transform="translate(0.351 0.35)" fill="#fafafa"/><path d="M-56.647,261.568h-128.73a21.34,21.34,0,0,1-21.316-21.316v-2.225a21.34,21.34,0,0,1,21.316-21.316h128.73A21.341,21.341,0,0,1-35.33,238.027v2.225A21.341,21.341,0,0,1-56.647,261.568Zm-128.73-44.156a20.639,20.639,0,0,0-20.616,20.615v2.225a20.639,20.639,0,0,0,20.616,20.616h128.73a20.639,20.639,0,0,0,20.616-20.616v-2.225a20.639,20.639,0,0,0-20.616-20.615Z" transform="translate(206.693 -216.711)" fill="#263238"/></g><g transform="translate(1123.409 559.543)"><circle cx="14.852" cy="14.852" r="14.852" transform="translate(0 12.131) rotate(-24.105)" fill="#053d9a"/></g><g transform="translate(1504.669 660.071)"><ellipse cx="9.646" cy="9.646" rx="9.646" ry="9.646" transform="translate(0 7.879) rotate(-24.105)" fill="#5becc0"/></g><g transform="translate(1139.103 573.824)"><path d="M-181.55,246.757V242.43a1.463,1.463,0,0,1,2.2-1.268l3.748,2.164,3.747,2.164a1.464,1.464,0,0,1,0,2.535l-3.747,2.164-3.748,2.164a1.464,1.464,0,0,1-2.2-1.268Z" transform="translate(181.55 -240.964)" fill="#fff"/></g><g transform="translate(1514.862 669.346)"><path d="M-181.55,244.727v-2.81a.951.951,0,0,1,1.426-.824l2.434,1.405,2.434,1.405a.951.951,0,0,1,0,1.647l-2.434,1.405-2.434,1.405a.951.951,0,0,1-1.426-.824Z" transform="translate(181.55 -240.964)" fill="#fff"/></g><g transform="translate(1162.076 563.261)"><g transform="translate(11.041 6.902)"><path d="M-131.969,254.649a1.052,1.052,0,0,1-1.051-1.051v-16.8a1.051,1.051,0,0,1,1.051-1.051,1.051,1.051,0,0,1,1.051,1.051v16.8A1.051,1.051,0,0,1-131.969,254.649Z" transform="translate(133.02 -235.742)" fill="#455a64"/></g><g transform="translate(5.521 9.531)"><path d="M-139.845,253.142a1.051,1.051,0,0,1-1.051-1.051V240.543a1.051,1.051,0,0,1,1.051-1.051,1.051,1.051,0,0,1,1.051,1.051v11.547A1.052,1.052,0,0,1-139.845,253.142Z" transform="translate(140.896 -239.492)" fill="#455a64"/></g><g transform="translate(77.287 6.902)"><path d="M-37.453,254.649A1.052,1.052,0,0,1-38.5,253.6v-16.8a1.051,1.051,0,0,1,1.051-1.051,1.051,1.051,0,0,1,1.051,1.051v16.8A1.052,1.052,0,0,1-37.453,254.649Z" transform="translate(38.504 -235.742)" fill="#455a64"/></g><g transform="translate(71.767 9.531)"><path d="M-45.329,253.142a1.052,1.052,0,0,1-1.051-1.051V240.543a1.051,1.051,0,0,1,1.051-1.051,1.051,1.051,0,0,1,1.051,1.051v11.547A1.052,1.052,0,0,1-45.329,253.142Z" transform="translate(46.38 -239.492)" fill="#455a64"/></g><g transform="translate(82.808 9.531)"><path d="M-29.576,253.142a1.052,1.052,0,0,1-1.051-1.051V240.543a1.051,1.051,0,0,1,1.051-1.051,1.051,1.051,0,0,1,1.051,1.051v11.547A1.052,1.052,0,0,1-29.576,253.142Z" transform="translate(30.627 -239.492)" fill="#455a64"/></g><g transform="translate(88.329 11.89)"><path d="M-21.7,251.79a1.052,1.052,0,0,1-1.051-1.051v-6.829a1.052,1.052,0,0,1,1.051-1.051,1.052,1.052,0,0,1,1.051,1.051v6.829A1.052,1.052,0,0,1-21.7,251.79Z" transform="translate(22.751 -242.858)" fill="#455a64"/></g><g transform="translate(99.216 6.902)"><path d="M-6.166,254.649A1.052,1.052,0,0,1-7.217,253.6v-16.8a1.051,1.051,0,0,1,1.051-1.051,1.051,1.051,0,0,1,1.051,1.051v16.8A1.052,1.052,0,0,1-6.166,254.649Z" transform="translate(7.217 -235.742)" fill="#455a64"/></g><g transform="translate(93.695 9.531)"><path d="M-14.043,253.142a1.052,1.052,0,0,1-1.051-1.051V240.543a1.051,1.051,0,0,1,1.051-1.051,1.051,1.051,0,0,1,1.051,1.051v11.547A1.052,1.052,0,0,1-14.043,253.142Z" transform="translate(15.094 -239.492)" fill="#455a64"/></g><g transform="translate(104.737 9.531)"><path d="M1.71,253.142a1.052,1.052,0,0,1-1.051-1.051V240.543a1.051,1.051,0,0,1,2.1,0v11.547A1.052,1.052,0,0,1,1.71,253.142Z" transform="translate(-0.659 -239.492)" fill="#455a64"/></g><g transform="translate(110.257 11.89)"><path d="M9.586,251.79a1.052,1.052,0,0,1-1.051-1.051v-6.829a1.051,1.051,0,0,1,2.1,0v6.829A1.052,1.052,0,0,1,9.586,251.79Z" transform="translate(-8.535 -242.858)" fill="#455a64"/></g><g transform="translate(115.236 13.984)"><path d="M16.69,251.726a1.052,1.052,0,0,1-1.051-1.051V246.9a1.051,1.051,0,0,1,2.1,0v3.779A1.052,1.052,0,0,1,16.69,251.726Z" transform="translate(-15.639 -245.845)" fill="#455a64"/></g><g transform="translate(33.123 7.016)"><path d="M-100.464,254.584a1.052,1.052,0,0,1-1.051-1.051V236.955a1.052,1.052,0,0,1,1.051-1.051,1.052,1.052,0,0,1,1.051,1.051v16.577A1.052,1.052,0,0,1-100.464,254.584Z" transform="translate(101.515 -235.904)" fill="#455a64"/></g><g transform="translate(16.562 4.409)"><path d="M-124.093,256.078a1.052,1.052,0,0,1-1.051-1.051V233.235a1.052,1.052,0,0,1,1.051-1.051,1.052,1.052,0,0,1,1.051,1.051v21.792A1.052,1.052,0,0,1-124.093,256.078Z" transform="translate(125.144 -232.184)" fill="#455a64"/></g><g transform="translate(22.082)"><path d="M-116.216,258.606a1.052,1.052,0,0,1-1.051-1.051V226.945a1.052,1.052,0,0,1,1.051-1.051,1.052,1.052,0,0,1,1.051,1.051v30.609A1.052,1.052,0,0,1-116.216,258.606Z" transform="translate(117.267 -225.894)" fill="#455a64"/></g><g transform="translate(27.603 4.409)"><path d="M-108.34,256.078a1.052,1.052,0,0,1-1.051-1.051V233.235a1.052,1.052,0,0,1,1.051-1.051,1.052,1.052,0,0,1,1.051,1.051v21.792A1.052,1.052,0,0,1-108.34,256.078Z" transform="translate(109.391 -232.184)" fill="#455a64"/></g><g transform="translate(44.164 6.902)"><path d="M-84.711,254.649a1.052,1.052,0,0,1-1.051-1.051v-16.8a1.051,1.051,0,0,1,1.051-1.051,1.051,1.051,0,0,1,1.051,1.051v16.8A1.052,1.052,0,0,1-84.711,254.649Z" transform="translate(85.762 -235.742)" fill="#455a64"/></g><g transform="translate(38.644 9.531)"><path d="M-92.587,253.142a1.052,1.052,0,0,1-1.051-1.051V240.543a1.051,1.051,0,0,1,1.051-1.051,1.051,1.051,0,0,1,1.051,1.051v11.547A1.052,1.052,0,0,1-92.587,253.142Z" transform="translate(93.638 -239.492)" fill="#455a64"/></g><g transform="translate(66.247 7.016)"><path d="M-53.2,254.584a1.052,1.052,0,0,1-1.051-1.051V236.955A1.052,1.052,0,0,1-53.2,235.9a1.052,1.052,0,0,1,1.051,1.051v16.577A1.052,1.052,0,0,1-53.2,254.584Z" transform="translate(54.256 -235.904)" fill="#455a64"/></g><g transform="translate(49.685 4.409)"><path d="M-76.835,256.078a1.052,1.052,0,0,1-1.051-1.051V233.235a1.052,1.052,0,0,1,1.051-1.051,1.052,1.052,0,0,1,1.051,1.051v21.792A1.052,1.052,0,0,1-76.835,256.078Z" transform="translate(77.886 -232.184)" fill="#455a64"/></g><g transform="translate(55.206)"><path d="M-68.958,258.606a1.052,1.052,0,0,1-1.051-1.051V226.945a1.052,1.052,0,0,1,1.051-1.051,1.052,1.052,0,0,1,1.051,1.051v30.609A1.052,1.052,0,0,1-68.958,258.606Z" transform="translate(70.009 -225.894)" fill="#455a64"/></g><g transform="translate(60.726 4.409)"><path d="M-61.082,256.078a1.052,1.052,0,0,1-1.051-1.051V233.235a1.052,1.052,0,0,1,1.051-1.051,1.052,1.052,0,0,1,1.051,1.051v21.792A1.052,1.052,0,0,1-61.082,256.078Z" transform="translate(62.133 -232.184)" fill="#455a64"/></g><g transform="translate(0 11.207)"><path d="M-147.722,252.181a1.052,1.052,0,0,1-1.051-1.051v-8.2a1.052,1.052,0,0,1,1.051-1.051,1.051,1.051,0,0,1,1.051,1.051v8.2A1.051,1.051,0,0,1-147.722,252.181Z" transform="translate(148.773 -241.883)" fill="#455a64"/></g></g><g transform="translate(1529.784 662.486)"><g transform="translate(7.171 4.483)"><path d="M-132.337,248.022a.683.683,0,0,1-.683-.683V236.425a.683.683,0,0,1,.683-.683.683.683,0,0,1,.683.683v10.914A.683.683,0,0,1-132.337,248.022Z" transform="translate(133.02 -235.742)" fill="#5becc0"/></g><g transform="translate(3.586 6.19)"><path d="M-140.213,248.358a.683.683,0,0,1-.683-.683v-7.5a.683.683,0,0,1,.683-.683.683.683,0,0,1,.683.683v7.5A.683.683,0,0,1-140.213,248.358Z" transform="translate(140.896 -239.492)" fill="#5becc0"/></g><g transform="translate(50.199 4.483)"><path d="M-37.821,248.022a.683.683,0,0,1-.683-.683V236.425a.683.683,0,0,1,.683-.683.683.683,0,0,1,.683.683v10.914A.683.683,0,0,1-37.821,248.022Z" transform="translate(38.504 -235.742)" fill="#5becc0"/></g><g transform="translate(46.613 6.19)"><path d="M-45.7,248.358a.683.683,0,0,1-.683-.683v-7.5a.683.683,0,0,1,.683-.683.683.683,0,0,1,.683.683v7.5A.683.683,0,0,1-45.7,248.358Z" transform="translate(46.38 -239.492)" fill="#5becc0"/></g><g transform="translate(53.785 6.19)"><path d="M-29.944,248.358a.683.683,0,0,1-.683-.683v-7.5a.683.683,0,0,1,.683-.683.683.683,0,0,1,.683.683v7.5A.683.683,0,0,1-29.944,248.358Z" transform="translate(30.627 -239.492)" fill="#5becc0"/></g><g transform="translate(57.37 7.723)"><path d="M-22.068,248.659a.683.683,0,0,1-.683-.683v-4.435a.683.683,0,0,1,.683-.683.683.683,0,0,1,.683.683v4.435A.683.683,0,0,1-22.068,248.659Z" transform="translate(22.751 -242.858)" fill="#5becc0"/></g><g transform="translate(64.442 4.483)"><path d="M-6.534,248.022a.683.683,0,0,1-.683-.683V236.425a.683.683,0,0,1,.683-.683.683.683,0,0,1,.683.683v10.914A.683.683,0,0,1-6.534,248.022Z" transform="translate(7.217 -235.742)" fill="#5becc0"/></g><g transform="translate(60.856 6.19)"><path d="M-14.411,248.358a.683.683,0,0,1-.683-.683v-7.5a.683.683,0,0,1,.683-.683.683.683,0,0,1,.683.683v7.5A.683.683,0,0,1-14.411,248.358Z" transform="translate(15.094 -239.492)" fill="#5becc0"/></g><g transform="translate(68.027 6.19)"><path d="M1.342,248.358a.683.683,0,0,1-.683-.683v-7.5a.683.683,0,0,1,1.366,0v7.5A.683.683,0,0,1,1.342,248.358Z" transform="translate(-0.659 -239.492)" fill="#5becc0"/></g><g transform="translate(71.613 7.723)"><path d="M9.218,248.659a.683.683,0,0,1-.683-.683v-4.435a.683.683,0,0,1,1.366,0v4.435A.683.683,0,0,1,9.218,248.659Z" transform="translate(-8.535 -242.858)" fill="#5becc0"/></g><g transform="translate(74.847 9.082)"><path d="M16.322,249.665a.683.683,0,0,1-.683-.683v-2.454a.683.683,0,1,1,1.366,0v2.454A.683.683,0,0,1,16.322,249.665Z" transform="translate(-15.639 -245.845)" fill="#5becc0"/></g><g transform="translate(21.514 4.557)"><path d="M-100.832,248.037a.683.683,0,0,1-.683-.683V236.587a.683.683,0,0,1,.683-.683.683.683,0,0,1,.683.683v10.767A.683.683,0,0,1-100.832,248.037Z" transform="translate(101.515 -235.904)" fill="#5becc0"/></g><g transform="translate(10.757 2.863)"><path d="M-124.461,247.7a.683.683,0,0,1-.683-.683V232.867a.683.683,0,0,1,.683-.683.683.683,0,0,1,.683.683v14.154A.683.683,0,0,1-124.461,247.7Z" transform="translate(125.144 -232.184)" fill="#5becc0"/></g><g transform="translate(14.343)"><path d="M-116.584,247.14a.683.683,0,0,1-.683-.683V226.577a.683.683,0,0,1,.683-.683.683.683,0,0,1,.683.683v19.881A.683.683,0,0,1-116.584,247.14Z" transform="translate(117.267 -225.894)" fill="#5becc0"/></g><g transform="translate(17.928 2.863)"><path d="M-108.708,247.7a.683.683,0,0,1-.683-.683V232.867a.683.683,0,0,1,.683-.683.683.683,0,0,1,.683.683v14.154A.683.683,0,0,1-108.708,247.7Z" transform="translate(109.391 -232.184)" fill="#5becc0"/></g><g transform="translate(28.685 4.483)"><path d="M-85.079,248.022a.683.683,0,0,1-.683-.683V236.425a.683.683,0,0,1,.683-.683.683.683,0,0,1,.683.683v10.914A.683.683,0,0,1-85.079,248.022Z" transform="translate(85.762 -235.742)" fill="#5becc0"/></g><g transform="translate(25.1 6.19)"><path d="M-92.955,248.358a.683.683,0,0,1-.683-.683v-7.5a.683.683,0,0,1,.683-.683.683.683,0,0,1,.683.683v7.5A.683.683,0,0,1-92.955,248.358Z" transform="translate(93.638 -239.492)" fill="#5becc0"/></g><g transform="translate(43.028 4.557)"><path d="M-53.573,248.037a.683.683,0,0,1-.683-.683V236.587a.683.683,0,0,1,.683-.683.683.683,0,0,1,.683.683v10.767A.683.683,0,0,1-53.573,248.037Z" transform="translate(54.256 -235.904)" fill="#5becc0"/></g><g transform="translate(32.271 2.863)"><path d="M-77.2,247.7a.683.683,0,0,1-.683-.683V232.867a.683.683,0,0,1,.683-.683.683.683,0,0,1,.683.683v14.154A.683.683,0,0,1-77.2,247.7Z" transform="translate(77.886 -232.184)" fill="#5becc0"/></g><g transform="translate(35.856)"><path d="M-69.326,247.14a.683.683,0,0,1-.683-.683V226.577a.683.683,0,0,1,.683-.683.683.683,0,0,1,.683.683v19.881A.683.683,0,0,1-69.326,247.14Z" transform="translate(70.009 -225.894)" fill="#5becc0"/></g><g transform="translate(39.442 2.863)"><path d="M-61.45,247.7a.683.683,0,0,1-.683-.683V232.867a.683.683,0,0,1,.683-.683.683.683,0,0,1,.683.683v14.154A.683.683,0,0,1-61.45,247.7Z" transform="translate(62.133 -232.184)" fill="#5becc0"/></g><g transform="translate(0 7.279)"><path d="M-148.09,248.572a.683.683,0,0,1-.683-.683v-5.323a.683.683,0,0,1,.683-.683.683.683,0,0,1,.683.683v5.323A.683.683,0,0,1-148.09,248.572Z" transform="translate(148.773 -241.883)" fill="#5becc0"/></g></g></g></svg>