<svg xmlns="http://www.w3.org/2000/svg" width="44" height="44" viewBox="0 0 44 44"><path d="M37.222,3H12.778A9.778,9.778,0,0,0,3,12.778V37.222A9.778,9.778,0,0,0,12.778,47H37.222A9.778,9.778,0,0,0,47,37.222V12.778A9.778,9.778,0,0,0,37.222,3Zm.122,15.923v.838c0,7.962-6.077,17.182-17.182,17.182a17.6,17.6,0,0,1-9.218-2.723h1.467a13.552,13.552,0,0,0,7.544-2.515,6.11,6.11,0,0,1-5.656-4.19,9.154,9.154,0,0,1,1.049.21,4.6,4.6,0,0,0,1.677-.21,6.054,6.054,0,0,1-4.818-5.867,10.455,10.455,0,0,0,2.723.838,6.865,6.865,0,0,1-2.723-5.238,4.812,4.812,0,0,1,.838-2.933A17.007,17.007,0,0,0,25.406,20.6c0-.418-.21-.838-.21-1.467a6.082,6.082,0,0,1,6.077-6.077,5.708,5.708,0,0,1,4.4,1.885,10.172,10.172,0,0,0,3.772-1.467,6.125,6.125,0,0,1-2.723,3.351,11.461,11.461,0,0,0,3.562-1.049A14.15,14.15,0,0,1,37.344,18.923Z" transform="translate(-3 -3)" fill="#fff" opacity="0.5"/></svg>