<svg xmlns="http://www.w3.org/2000/svg" xmlns:xlink="http://www.w3.org/1999/xlink" width="346.829" height="28.231" viewBox="0 0 346.829 28.231"><defs><clipPath id="a"><path d="M419.165,283.109h-159.8A14.109,14.109,0,0,1,245.26,269h0a14.121,14.121,0,0,1,14.109-14.121h159.8a10.111,10.111,0,0,1,10.111,10.111V273a10.111,10.111,0,0,1-10.112,10.112Z" transform="translate(-245.26 -254.88)" fill="none"/></clipPath></defs><g transform="translate(-1063.358 -2871)"><path d="M577.98,283.109H259.369A14.109,14.109,0,0,1,245.26,269h0a14.121,14.121,0,0,1,14.109-14.121H577.98A14.121,14.121,0,0,1,592.089,269h0A14.109,14.109,0,0,1,577.98,283.109Z" transform="translate(818.098 2616.122)" fill="#053d9a"/><path d="M401.228,283.11H384.21a14.192,14.192,0,0,1-14.31-14.251h0a13.778,13.778,0,0,1,13.967-13.979l17.361.071a14.487,14.487,0,0,1,14.251,14.534h0C415.479,277.35,409.045,283.11,401.228,283.11Z" transform="translate(840.86 2616.121)" fill="#01bec3"/><g transform="translate(1063.358 2871.001)" clip-path="url(#a)"><path d="M415.156,283.109H259.369A14.109,14.109,0,0,1,245.26,269h0a14.121,14.121,0,0,1,14.109-14.121H415.156A14.121,14.121,0,0,1,429.277,269h0a14.109,14.109,0,0,1-14.121,14.109Z" transform="translate(-245.26 -254.88)" fill="#01bec3"/><g transform="translate(19.502 0)" opacity="0.2"><path d="M261.75,254.88l17.243,28.229h12.193L273.257,254.88Z" transform="translate(-261.75 -254.88)" fill="#fff"/></g><g transform="translate(-6.587 0)" opacity="0.2"><path d="M239.69,254.88l17.243,28.229h12.193L251.2,254.88Z" transform="translate(-239.69 -254.88)" fill="#fff"/></g><g transform="translate(44.739 0)" opacity="0.2"><path d="M283.09,254.88l17.231,28.229h12.2L294.6,254.88Z" transform="translate(-283.09 -254.88)" fill="#fff"/></g><g transform="translate(69.976 0)" opacity="0.2"><path d="M304.43,254.88l17.231,28.229h12.2L315.937,254.88Z" transform="translate(-304.43 -254.88)" fill="#fff"/></g><g transform="translate(95.201 0)" opacity="0.2"><path d="M325.76,254.88,343,283.109H355.2L337.267,254.88Z" transform="translate(-325.76 -254.88)" fill="#fff"/></g><g transform="translate(120.439 0)" opacity="0.2"><path d="M347.1,254.88l17.231,28.229h12.2L358.607,254.88Z" transform="translate(-347.1 -254.88)" fill="#fff"/></g><g transform="translate(145.676 0)" opacity="0.2"><path d="M368.44,254.88l17.231,28.229h12.2L379.947,254.88Z" transform="translate(-368.44 -254.88)" fill="#fff"/></g><g transform="translate(170.901 0)" opacity="0.2"><path d="M389.77,254.88l17.243,28.229h12.193L401.277,254.88Z" transform="translate(-389.77 -254.88)" fill="#fff"/></g></g></g></svg>