<svg xmlns="http://www.w3.org/2000/svg" width="488.611" height="292.099" viewBox="0 0 488.611 292.099"><g transform="translate(0 0)" style="isolation:isolate"><path d="M823.9,631.192c-6.255-5.286-10.055-13.636-9.059-21.765s7.168-15.6,15.174-17.328,17.132,3.052,19.563,10.873c1.338-15.078,2.88-30.787,10.9-43.627,7.258-11.626,19.83-19.945,33.455-21.434S921.9,542.044,930.4,552.8s10.578,26.388,4.627,38.735c-4.384,9.1-12.461,15.864-20.924,21.371a135.042,135.042,0,0,1-92.361,20.206Z" transform="translate(-449.806 -342.374)" fill="#01bec3" opacity="0.44"/><path d="M945.545,545.768A222.826,222.826,0,0,0,880.072,634.3c-.625,1.53,1.86,2.2,2.478.683a220.348,220.348,0,0,1,64.812-87.4c1.283-1.045-.545-2.853-1.817-1.817Z" transform="translate(-478.428 -345.786)" fill="#fff"/><path d="M322.292,601.371c8.592-7.26,13.811-18.729,12.442-29.894s-9.846-21.429-20.842-23.8-23.53,4.192-26.87,14.934c-1.838-20.709-3.956-42.286-14.966-59.921-9.969-15.969-27.237-27.395-45.951-29.439s-38.417,5.676-50.088,20.447-14.529,36.244-6.355,53.2c6.022,12.492,17.116,21.789,28.739,29.353A185.481,185.481,0,0,0,325.259,604" transform="translate(-165 -313.99)" fill="#01bec3" opacity="0.44"/><path d="M215.15,484.041a303.471,303.471,0,0,1,42.292,42A307.811,307.811,0,0,1,290.8,575.4a306.563,306.563,0,0,1,14.282,30.241c.858,2.1-2.555,3.017-3.4.938A301.227,301.227,0,0,0,274.149,554.5a303.122,303.122,0,0,0-36.915-45.6,302.409,302.409,0,0,0-24.58-22.361c-1.762-1.435.748-3.919,2.5-2.5Z" transform="translate(-185.628 -318.676)" fill="#fff"/><path d="M629.492,481.413H424.5V271.085a81.246,81.246,0,0,1,81.154-81.154h42.684a81.246,81.246,0,0,1,81.154,81.154Z" transform="translate(-278.759 -189.931)" fill="#01bec3" opacity="0.2"/><path d="M586.809,481.415H424.5V271.087A80.526,80.526,0,0,1,440,223.381c.373-.508.745-1.01,1.128-1.506A81.135,81.135,0,0,1,458.4,205.11c.37-.27.742-.534,1.12-.8a80.962,80.962,0,0,1,17.676-9.244c.371-.141.749-.282,1.127-.417a80.884,80.884,0,0,1,17.471-4.12c.369-.05.749-.09,1.128-.129a82.159,82.159,0,0,1,17.469,0c.378.039.757.079,1.131.13a80.868,80.868,0,0,1,17.467,4.119c.378.135.756.276,1.128.417a80.759,80.759,0,0,1,17.47,9.107c.377.259.755.524,1.127.789a82,82,0,0,1,10.325,8.741,81.035,81.035,0,0,1,7.146,8.172c.382.494.754,1,1.126,1.5a80.526,80.526,0,0,1,15.5,47.707Z" transform="translate(-278.759 -189.932)" fill="#555"/><circle cx="8.986" cy="8.986" r="8.986" transform="translate(285.866 179.438)" fill="#01bec3"/><path d="M586.667,487.053h-6.885l-3.276-26.558h10.163Z" transform="translate(-252.728 -201.871)" fill="#ffb8b8"/><path d="M567.056,504.28h13.279v8.361H558.7a8.361,8.361,0,0,1,8.361-8.361Z" transform="translate(-244.92 -221.065)" fill="#2f2e41"/><path d="M647.667,487.053h-6.885l-3.276-26.558h10.163Z" transform="translate(-279.469 -201.871)" fill="#ffb8b8"/><path d="M628.056,504.28h13.279v8.361h-21.64a8.361,8.361,0,0,1,8.361-8.361Z" transform="translate(-271.661 -221.065)" fill="#2f2e41"/><path d="M697.285,471.3a6.033,6.033,0,0,1,2.533-8.9l23.406-64.512,11.517,6.286-26.725,61.65a6.066,6.066,0,0,1-10.732,5.474Z" transform="translate(-397.886 -281.095)" fill="#ffb8b8"/><path d="M807.408,489.808a6.033,6.033,0,0,1-1.625-9.108l-7.25-68.242,13.107.6,3.013,67.125a6.066,6.066,0,0,1-7.245,9.626Z" transform="translate(-442.727 -287.482)" fill="#ffb8b8"/><circle cx="13.794" cy="13.794" r="13.794" transform="translate(329.978 77.258)" fill="#ffb8b8"/><path d="M781.719,462.546H740.133l.05-.324c.075-.484,7.412-48.546,2-64.27a6.634,6.634,0,0,1,3.409-8.19h0c7.734-3.642,22.581-8.127,35.113,2.757a15.857,15.857,0,0,1,5.313,13.14Z" transform="translate(-417.126 -275.74)" fill="#01bec3"/><path d="M739.74,424.379l-18.722-3.8,8.776-20.8a7.861,7.861,0,1,1,15.223,3.93Z" transform="translate(-408.746 -279.34)" fill="#01bec3"/><path d="M796.051,432.568l-1.126-25.8c-.854-4.85,1.923-9.435,6.193-10.185s8.442,2.617,9.3,7.5l4.231,24.109Z" transform="translate(-441.078 -280.476)" fill="#01bec3"/><path d="M778.587,517.049c6.691,25.485,7.422,57.886,5.616,93.229l-8.986-1.123L758.93,541.76l-8.986,68.518-10.109-.562c-3.02-37.084-5.961-68.919-1.123-89.86Z" transform="translate(-415.377 -333.332)" fill="#2f2e41"/><path d="M773.268,346.985c-2.573,2.741-7.352,1.27-7.688-2.475a4.523,4.523,0,0,1,.006-.874c.173-1.659,1.131-3.165.9-4.916a2.578,2.578,0,0,0-.472-1.207c-2.051-2.746-6.864,1.228-8.8-1.258-1.187-1.524.208-3.924-.7-5.628-1.2-2.248-4.762-1.139-6.994-2.371-2.484-1.37-2.335-5.181-.7-7.5a11.8,11.8,0,0,1,8.943-4.553,23.989,23.989,0,0,1,10.1,1.972c3.662,1.427,7.294,3.4,9.548,6.62,2.741,3.916,3,9.181,1.634,13.761C778.215,341.343,775.369,344.746,773.268,346.985Z" transform="translate(-420.407 -245.273)" fill="#2f2e41"/><path d="M680.806,708.53H266.164a.669.669,0,1,1,0-1.337H680.806a.669.669,0,1,1,0,1.337Z" transform="translate(-209.055 -416.687)" fill="#3f3d56"/><path d="M574.161,467.6H501.151A3.631,3.631,0,0,1,497.5,464V301.034a3.631,3.631,0,0,1,3.651-3.6h73.011a3.631,3.631,0,0,1,3.651,3.6V464A3.631,3.631,0,0,1,574.161,467.6Z" transform="translate(-310.761 -237.056)" fill="#01bec3" opacity="0.1"/><rect width="80.312" height="1.123" transform="translate(186.739 113.105)" fill="#ccc"/><rect width="80.312" height="1.123" transform="translate(187.02 177.192)" fill="#ccc"/><rect width="1.123" height="170.733" transform="translate(212.012 60.375)" fill="#ccc"/><rect width="1.123" height="170.733" transform="translate(240.093 60.375)" fill="#ccc"/></g></svg>