<svg xmlns="http://www.w3.org/2000/svg" width="2262.485" viewBox="0 0 2262.485 793.34"><path d="M2237.7,988.712q-25.985.4-51.725.382-3.479,0-6.952-.01-29.452-2.259-58.453-4.993-29.08-4.966-57.614-10.284-23.766-6.335-47.11-12.8l-9.2-2.537q-3.8-1.381-7.589-2.764-23.686-8.643-46.946-17.206c-17.654-8.134-35.089-16.2-52.409-24.054q-22.09-12.309-43.807-24.139-3.113-1.685-6.219-3.354-9.276-6.046-18.486-11.965-14.583-9.359-29.06-18.315c-15.111-11.235-30.1-22.1-45.08-32.453-14.269-11.863-28.454-23.266-42.678-34.054-13.483-12.336-26.926-24.126-40.447-35.21-12.751-12.674-25.5-24.716-38.376-35.976-12.1-12.916-24.232-25.13-36.525-36.482-11.107-12.629-22.287-24.529-33.642-35.574-11.624-14.022-23.37-27.1-35.375-39.065a475.17,475.17,0,0,0-37.889-42.591c-21.567-21.257-44.226-38.358-68.86-50.157a183.693,183.693,0,0,0-80.612-18.276c-39.094,0-76.224,8.884-111.761,24.4-62.194,27.151-119.558,74.572-174.452,130.4C974.1,735.378,897.332,838.08,818.587,919.8c-39.368,40.858-79.228,76.463-120.465,101.823q-5.126,3.152-10.282,6.084-38.909-9.34-74.075-19.422-10.489-3.307-20.639-6.7-10.085-3.706-19.817-7.515-9.573-4.114-18.781-8.351-8.975-4.531-17.585-9.2-8.395-5-16.419-10.154-7.705-5.444-15.046-11.054-6.993-5.9-13.633-11.972-6.215-6.3-12.094-12.787-5.517-6.793-10.712-13.772-4.77-7.222-9.241-14.628-4.043-7.659-7.812-15.5-3.3-8.006-6.354-16.181Q443,862.028,440.6,853.423q-1.957-8.811-3.728-17.77-1.323-9.19-2.48-18.523-.71-9.481-1.288-19.088-.137-9.807-.172-19.724c2.267-56.514,6.426-115.457,6.427-170.705,0-47.814-3.115-92.861-13.3-131.2-5.093-19.17-11.955-36.664-21.095-51.988A130.772,130.772,0,0,0,370.2,385.482a80.521,80.521,0,0,0-18.745-10.588,49.2,49.2,0,0,0-17.709-3.457c-9.635,0-18.79,3.181-27.625,9.023-10.078,6.667-19.829,16.794-29.678,29.815a171.426,171.426,0,0,0-13.822,15.443A164.633,164.633,0,0,0,248.6,440.332,158.483,158.483,0,0,0,234.348,454,152.948,152.948,0,0,0,219.8,466.583a147.755,147.755,0,0,0-14.808,11.258,143.1,143.1,0,0,0-15.162,9.782q-2.71,1.181-5.471,2.557-4.881,2.442-9.993,5.5-4.154,1.3-8.473,3.028-3.551,1.418-7.249,3.115a126.616,126.616,0,0,0-13.492,3.338c-.8.244-1.62.5-2.437.762a129.417,129.417,0,0,0-16.051,2c-2.709-.191-5.487-.291-8.353-.291-2.465,0-5,.077-7.595.216a131.514,131.514,0,0,0-15.859-2.028A136.073,136.073,0,0,0,79.237,502q-.953-.4-1.92-.786-6.379-2.555-13.39-4.6a153.047,153.047,0,0,0-14.974-6.758q-5.486-3.349-11.43-6.365c-1.053-.533-2.123-1.054-3.2-1.57q-3.042-2.111-6.217-4.129-3.932-2.489-8.089-4.822A192.712,192.712,0,0,0,0,459.487v2.236q4.17,2.492,8.12,5.127Q4.158,464.982,0,463.239v2.031a189.44,189.44,0,0,1,18.615,9.108q1.143.88,2.266,1.774A208.546,208.546,0,0,0,0,469.433v1.892a199.379,199.379,0,0,1,25.67,8.761q2.066,1.757,4.066,3.561A235.639,235.639,0,0,0,0,477.934v1.826a226.975,226.975,0,0,1,32.681,6.6q2.5,2.343,4.9,4.76A290.739,290.739,0,0,0,0,488.624v1.8a282.368,282.368,0,0,1,39.659,2.819q2.719,2.819,5.324,5.732c-.993-.01-1.99-.018-3-.018A408.916,408.916,0,0,0,0,501.387V503.2a407.053,407.053,0,0,1,41.983-2.445q2.337,0,4.608.039,2.832,3.241,5.536,6.591C36.967,509.145,19.783,512.071,0,516.122v1.855c20.414-4.191,38.025-7.176,53.462-8.924q2.879,3.633,5.625,7.389C42.128,520.534,22.693,526,0,532.742v1.917c23.237-6.91,43.049-12.486,60.247-16.618q2.89,4.013,5.65,8.156c-18.692,6.818-40.33,15.214-65.9,25v1.99c26.053-9.964,48.034-18.5,66.95-25.4q2.88,4.38,5.637,8.9C53.579,545.938,31.6,556.732,5.676,568.813Q2.85,570.13,0,571.479v2.086q3.4-1.615,6.783-3.193c25.882-12.06,47.823-22.835,66.79-32.068q2.86,4.739,5.611,9.621c-18.009,10.945-38.608,23.2-62.589,36.509Q8.4,588.98,0,593.775v2.2q9.045-5.165,17.85-10.057C41.694,572.689,62.2,560.5,80.126,549.6q2.842,5.089,5.594,10.322c-16.963,12.357-36.154,25.82-58.2,40.133Q14.085,608.783,0,618.143v2.325q14.817-9.839,28.91-19.006c21.837-14.179,40.881-27.525,57.727-39.786q2.833,5.428,5.6,11c-15.878,13.495-33.645,27.91-53.784,43.009Q19.923,629.576,0,644.6v2.456Q20.748,631.462,39.963,617c19.885-14.908,37.456-29.149,53.184-42.5q2.84,5.749,5.642,11.641c-14.766,14.367-31.107,29.493-49.395,45.16C33.764,644.7,17.325,658.7,0,673.147v2.586c17.921-14.925,34.9-29.383,51.008-43.188C69,617.128,85.122,602.233,99.7,588.072q2.867,6.044,5.729,12.225c-13.643,14.993-28.581,30.6-45.091,46.636C41.576,665.157,21.516,684.205,0,703.737v2.7c22.166-20.077,42.788-39.651,62.047-58.353,16.2-15.728,30.882-31.049,44.316-45.78q2.919,6.3,5.869,12.738C99.7,630.445,86.126,646.339,71.3,662.558,49.548,686.34,25.891,711.127,0,736.307v2.809c26.592-25.782,50.837-51.162,73.079-75.487,14.5-15.862,27.813-31.413,40.113-46.495q3,6.518,6.062,13.154c-11.446,15.623-23.732,31.636-37,47.892C57.7,708.263,30.475,739.464,0,770.76v2.9c31.228-31.944,59.057-63.8,84.107-94.49,12.94-15.852,24.946-31.474,36.149-46.725q3.1,6.672,6.3,13.45-15.626,23.558-33.341,47.9A1222.226,1222.226,0,0,1,0,806.976v2.972A1221.661,1221.661,0,0,0,95.13,694.719q17.28-23.616,32.482-46.606,3.219,6.761,6.585,13.615C98.25,721.369,54.811,784.4,0,844.781v3.037c55.31-60.6,99.1-123.914,135.31-183.834,32.964,66.557,78.269,139.011,169.762,206.064,36.3,26.607,79.869,52.358,132.8,76.562,3.927,19.125,9.454,36.562,17.086,51.813,10.112,20.195,23.939,36.574,42.669,47.9s42.327,17.567,71.793,17.563q1.872,0,3.736-.038,9.328.931,19.459,1.031.95.008,1.9.009c.909,0,1.816-.009,2.724-.02q8.962.828,18.572,1.005,1.936.034,3.868.034c.629,0,1.257-.009,1.885-.013q8.468.733,17.442.972,2.974.076,5.937.076c.4,0,.808-.006,1.212-.008q7.832.643,16.047.926,4.084.136,8.146.136c.226,0,.451,0,.677,0q7.049.556,14.373.861,5.29.217,10.546.215h.2q6.131.47,12.446.779,6.5.312,12.95.315c3.381.255,6.789.487,10.247.677q7.63.42,15.2.438c2.647.2,5.308.389,8,.556q8.894.549,17.71.589c1.822.14,3.647.278,5.487.4q10.381.709,20.665.791c.846.066,1.684.138,2.533.2q11.86.887,23.6,1.023,13.476,1.079,26.817,1.29,13.878,1.091,27.63,1.379,14.191,1.1,28.267,1.475,15.1,1.182,30.088,1.675,15.992,1.275,31.885,1.933,17.143,1.435,34.2,2.341,18.8,1.719,37.517,3.007a3302.927,3302.927,0,0,0,345.567,17.986,3542.475,3542.475,0,0,0,469.018-31.691l.009.009a879.391,879.391,0,0,0,101.951,90.534h3.274q-6.6-4.956-13.062-10a884.106,884.106,0,0,1-89.663-80.874q13.839-1.858,27.626-3.816a861.7,861.7,0,0,0,116.562,94.694h3.484q-15.47-10.353-30.187-21.209a875.629,875.629,0,0,1-87.331-73.844q13.349-1.9,26.65-3.9a845.157,845.157,0,0,0,134.358,98.949h3.765q-25.9-15.175-49.829-31.72a867.44,867.44,0,0,1-85.731-67.614q13.552-2.04,27.054-4.174c46.287,38.292,98.1,73.672,157.4,103.508h4.213a800.15,800.15,0,0,1-75.124-42.623,865.223,865.223,0,0,1-83.877-61.3q13.516-2.144,26.98-4.379c54.558,41.378,116.325,78.842,188.359,108.3h4.948a802.385,802.385,0,0,1-108.522-53.563,868.208,868.208,0,0,1-82.115-55.181q13.471-2.247,26.891-4.583c66.216,45.643,142.357,85.719,233.575,113.326h6.406a813.863,813.863,0,0,1-156.777-64.547,877.6,877.6,0,0,1-80.464-49.257q13.421-2.346,26.79-4.778c65.67,40.7,140.4,76.127,228.9,99.971v-1.887a831.1,831.1,0,0,1-147.13-55.084,895.155,895.155,0,0,1-78.94-43.518q13.358-2.442,26.662-4.969c58.747,32.3,124.168,60.556,199.408,80.554v-1.89a856.113,856.113,0,0,1-118.894-41.273c-27.18-11.725-52.955-24.48-77.568-37.95q13.281-2.533,26.508-5.151a923.181,923.181,0,0,0,169.954,62.4v-1.883a893.447,893.447,0,0,1-90.471-28.582c-26.647-9.992-52.039-20.934-76.393-32.545q13.181-2.619,26.309-5.32a987.482,987.482,0,0,0,140.556,45.786v-1.874c-24.951-6.083-48.909-13.01-72-20.6-22.536-7.412-44.25-15.461-65.267-23.983q13.064-2.7,26.073-5.479a1079.986,1079.986,0,0,0,111.2,31.073v-1.869a1075.329,1075.329,0,0,1-107.643-29.964q12.9-2.767,25.743-5.61c26.389,6.955,53.624,13.262,81.9,18.659v-1.849c-26.881-5.144-52.825-11.11-78-17.677q12.686-2.822,25.318-5.717,25.863,4.914,52.68,9v-1.832q-24.55-3.714-48.259-8.181,12.386-2.853,24.719-5.775,11.693,1.35,23.54,2.551V1003.9q-9.23-.936-18.365-1.966,9.2-2.191,18.365-4.42v-3.373q-8.272-.351-16.487-.769,8.249-1.359,16.487-2.751v-4.193Q2250.086,987.614,2237.7,988.712Zm-24.321,2.077q-2.446.2-4.889.4-2.561-.169-5.123-.339Q2208.374,990.827,2213.384,990.789ZM757.944,1069.307q-3.371-.337-6.7-.706c.366-.039.732-.076,1.1-.116q2.9.418,5.826.814Zm-25.664-1.154q-3.465-.357-6.882-.753.794-.089,1.587-.181,3.028.465,6.093.9Zm-25.36-1.13q-3.535-.379-7.008-.81,1.063-.127,2.124-.263,3.171.521,6.388,1.006C707.923,1066.981,707.421,1067,706.92,1067.023Zm-25.022-1.114q-3.618-.409-7.164-.877,1.341-.17,2.679-.356,3.323.591,6.71,1.128C683.382,1065.846,682.639,1065.874,681.9,1065.909Zm-24.672-1.1q-3.723-.446-7.361-.966,1.659-.225,3.314-.474,3.412.661,6.891,1.264C659.122,1064.7,658.175,1064.762,657.225,1064.813Zm-24.5-1.1q-3.771-.487-7.444-1.064,2-.289,3.988-.612c2.346.5,4.712.981,7.113,1.43C635.166,1063.559,633.946,1063.639,632.725,1063.712Zm-24.2-1.1q-3.821-.536-7.528-1.179,2.327-.361,4.646-.775,3.6.853,7.311,1.61Q610.74,1062.459,608.521,1062.609Zm-23.915-1.108c-23.172-3.564-42.7-10.68-59.228-20.769-20.543-12.547-36.455-29.707-48.847-50.4a213.175,213.175,0,0,1-16.159-33.771q3.565,1.525,7.185,3.04c12.669,27.219,29.414,50.7,51.993,68.711,18.97,15.139,42.065,26.389,70.225,32.739C588.055,1061.223,586.332,1061.371,584.606,1061.5Zm-146.055-123.1q3.326,1.76,6.706,3.508.86,3.423,1.786,6.78-3.6-1.608-7.151-3.227Q439.186,941.974,438.551,938.405ZM55.134,496.2q2.39,1.655,4.7,3.374-2.085-.151-4.228-.265-2.11-2.013-4.293-3.967Q53.25,495.749,55.134,496.2Zm7.335,5.395q2.719,2.124,5.323,4.35-2.56.169-5.2.394-2.452-2.6-5-5.11Q60.071,501.381,62.469,501.591Zm23.664,5.647q2.591,1.3,5.084,2.69-2.554.391-5.193.843-2.341-1.819-4.768-3.552c.556,0,1.114-.011,1.663-.011Q84.546,507.209,86.133,507.238Zm40.694,2.5q2.055.152,4.05.379-2.367.91-4.806,1.895-1.964-.7-3.979-1.325Q124.5,510.168,126.827,509.735Zm16.386-2.038q1.927-.1,3.806-.13-2.429,1.278-4.935,2.651-1.926-.455-3.9-.828Q140.747,508.488,143.214,507.7Zm16.243-4.178q1.756-.321,3.476-.569-2.419,1.624-4.91,3.353-1.833-.21-3.7-.34Q156.937,504.676,159.457,503.52Zm16-6.251c1.041-.323,2.075-.628,3.1-.908q-2.356,1.921-4.775,3.958-1.7.007-3.424.092Q172.946,498.766,175.455,497.269Zm15.652-8.157c.91-.394,1.815-.776,2.714-1.132q-2.247,2.147-4.547,4.417c-1.036.122-2.076.272-3.119.442Q188.664,490.9,191.106,489.112ZM262.256,430.8q-.875.489-1.748,1.006,1.946-2.562,3.879-4.982.549-.5,1.1-.984Q263.874,428.269,262.256,430.8Zm-2.276,3.587q-1.4,2.228-2.808,4.52-1.114,1.814-2.232,3.671-1.537.536-3.062,1.167,2.686-3.884,5.34-7.522Q258.6,435.261,259.979,434.383ZM429.68,809.7c-11.131-49.643-19.146-101.095-29.52-149.015-7.629-35.234-16.536-68.56-28.923-97.871s-28.255-54.609-49.855-73.759c-13.349-11.832-25.171-20.386-36.071-26s-20.9-8.3-30.517-8.3q-2.368,0-4.7.216,2.887-5,5.728-9.752c.249-.416.5-.827.745-1.24a48.278,48.278,0,0,1,15.368-2.544c8.224,0,16.885,2.128,26.381,6.72s19.794,11.642,31.217,21.426c19.157,16.4,33.649,37.86,44.945,62.9,19.773,43.812,29.739,98.56,37.993,156.172C418.139,728.176,423,769.054,429.7,808.694Q429.692,809.2,429.68,809.7Zm1.953,19.094c-.022-.072-.043-.143-.065-.214,0-.347.006-.693.009-1.041l.01.042C431.6,827.981,431.617,828.385,431.632,828.79Zm13.638,52.866c-.16-.261-.319-.522-.479-.783-.1-.469-.2-.941-.3-1.411.124.232.246.465.37.7Q445.068,880.908,445.271,881.656Zm7.308,15.99c-.219-.29-.436-.581-.654-.871-.144-.47-.285-.945-.429-1.416.18.274.358.549.539.822Q452.305,896.915,452.578,897.646Zm8.729,15.082c-.267-.293-.537-.584-.8-.877-.187-.451-.372-.9-.558-1.355.232.289.467.577.7.865Q460.975,912.045,461.307,912.728Zm21.8,27.417c-.341-.26-.679-.521-1.019-.781q-.353-.518-.705-1.039l.949.813C482.584,939.474,482.845,939.809,483.1,940.145Zm13,12.266-1.011-.651c-.225-.267-.447-.536-.671-.8l.983.706Q495.748,952.037,496.1,952.411Zm14.331,11.3-.9-.484c-.171-.167-.339-.335-.51-.5l.922.556Zm15.59,10.354-.62-.283-.248-.2.7.358Zm8.675,6.272-1.993-.789q-.631-.486-1.259-.974l2.071.922C533.908,979.778,534.3,980.061,534.695,980.339Zm17.557,8.937-1.669-.558c-.323-.209-.65-.416-.972-.626q.894.337,1.792.673C551.687,988.936,551.967,989.107,552.252,989.276ZM1539.63,623.7c-.5-.415-1-.838-1.5-1.249-45.2-37.1-94.412-59.751-153.479-59.746q-1.086,0-2.176.01c-37.769.354-73.824,8.5-108.495,22.447-60.676,24.418-117.144,66.6-171.454,116.113C1021.068,775.546,944.453,866.332,866.1,938.5c-39.174,36.085-78.779,67.511-119.591,89.891q-8.537,4.682-17.145,8.817-9.067-1.98-17.944-4c49.589-26.365,97-67.066,143.837-114.121,78.5-78.88,155.358-175.646,237.629-252.737,41.132-38.546,83.614-72.167,128.28-96.177s91.5-38.413,141.409-38.6q.6,0,1.185,0c38.732,0,72.83,10.607,104.318,29.4,21.033,12.551,40.879,28.77,60.093,47.9Q1533.924,616.108,1539.63,623.7ZM1574,660.833q-5.747-4.634-11.564-8.988-5.149-7.449-10.312-14.643,5.766,5.244,11.469,10.792Q1568.814,654.288,1574,660.833Zm34.638,35.975q-5.332-4.113-10.71-8.032-5.251-7.125-10.5-14.032,4.946,4.343,9.856,8.879Q1602.974,690.089,1608.642,696.808Zm37.023,36.178q-5.792-4.245-11.627-8.292-5.594-7.074-11.179-13.947,5.512,4.6,10.991,9.391Q1639.76,726.451,1645.664,732.986Zm26.623,23.186q6.172,6.135,12.349,12.463-6.031-4.146-12.093-8.119-5.864-6.858-11.708-13.541Q1666.573,751.484,1672.288,756.172Zm51.3,45.239q1.072,1,2.144,2.008-6.289-3.993-12.6-7.834-6.177-6.618-12.321-13.085,6,4.389,11.99,8.935Q1718.182,796.366,1723.583,801.411Zm45.6,35.586q-6.61-3.8-13.232-7.479-3.725-3.616-7.437-7.2-2.79-2.688-5.57-5.35,6.293,4.215,12.583,8.56Q1762.339,831.2,1769.181,837Zm45.9,31.826q-6.953-3.537-13.908-6.97-6.914-6-13.77-11.9,6.636,3.993,13.278,8.091Q1807.862,863.379,1815.084,868.823Zm48.439,29.507q-7.318-3.188-14.63-6.3-7.321-5.585-14.573-11.1,7,3.693,14.025,7.469Q1855.906,893.325,1863.523,898.33Zm50.921,26.525q-7.678-2.742-15.342-5.432-7.727-5.077-15.376-10.119,7.385,3.3,14.794,6.667Q1906.45,920.392,1914.444,924.856Zm53.254,22.881q-8.017-2.2-16.014-4.367-8.107-4.471-16.126-8.932,7.759,2.819,15.548,5.67Q1959.366,943.914,1967.7,947.737Zm112.134,32.414q-8.481-.846-16.941-1.708-8.673-2.985-17.256-6.007,8.347,1.557,16.726,3.106Q2071.062,977.861,2079.832,980.151Zm57.941,8.663q-8.55-.093-17.087-.21-8.8-2.148-17.512-4.348,8.508.82,17.045,1.614Q2128.966,987.364,2137.772,988.814Zm33.271,5.257q-10.489.764-20.979,1.483-10.827-2.476-21.52-5.049,10.5.132,21.012.223Q2160.251,992.44,2171.044,994.072Zm-9.3-3.255q8.575.051,17.169.066,8.661.663,17.367,1.279-8.518.667-17.031,1.3Q2170.464,992.172,2161.747,990.817Zm-1214.72,86.119q-5.544-.682-11.032-1.381.911-.08,1.821-.164,5.439.745,10.935,1.476Q947.89,1076.9,947.027,1076.936Zm-12.286.361q-4.233-.482-8.429-.977l.972-.068q3.982.521,7.99,1.033C935.1,1077.288,934.919,1077.294,934.741,1077.3Zm-29.928-1.7q-4.237-.477-8.44-.97c.354-.029.708-.057,1.062-.087q3.985.527,8,1.04Zm-28.684-1.532q-4.319-.484-8.6-.99l1.193-.111q4.04.544,8.12,1.071C876.607,1074.039,876.368,1074.05,876.13,1074.06Zm-27.9-1.426q-4.346-.49-8.644-1.007c.458-.048.915-.1,1.372-.149q4.079.565,8.2,1.11Zm-27.187-1.341q-4.409-.5-8.762-1.042.82-.094,1.64-.193,4.144.6,8.336,1.167Q821.652,1071.261,821.046,1071.293Zm-26.623-1.28q-4.466-.522-8.868-1.087.983-.121,1.965-.249,4.207.635,8.466,1.24C795.464,1069.952,794.943,1069.981,794.422,1070.013Zm-58.129-5.891q-5.861-1-11.589-2.1,1.841-.4,3.678-.825,5.743,1.2,11.611,2.321C738.76,1063.728,737.527,1063.931,736.293,1064.122Zm-9.281,1.271q-5.295-.815-10.473-1.719,1.8-.333,3.587-.694,5.145,1.02,10.4,1.966C729.354,1065.1,728.184,1065.254,727.012,1065.394Zm-24.941-1.269q-5.281-.873-10.432-1.846,1.988-.395,3.971-.825,5.134,1.109,10.4,2.125Q704.041,1063.865,702.071,1064.125Zm-24.579-1.283q-5.258-.94-10.37-2,2.212-.469,4.418-.983,5.1,1.211,10.338,2.32Q679.688,1062.529,677.492,1062.841Zm-24.259-1.31q-5.219-1.018-10.276-2.176,2.444-.556,4.882-1.162,5.063,1.33,10.278,2.536Q655.679,1061.155,653.234,1061.531ZM466.824,952.706q3.2,1.546,6.444,3.083,1.4,2.695,2.861,5.342-3.418-1.4-6.788-2.809Q468.055,955.539,466.824,952.706Zm-29.808-23.692q3.009,1.848,6.067,3.686.753,3.411,1.566,6.762-3.281-1.708-6.509-3.426Q437.546,932.56,437.016,929.014ZM84.763,519.533q-2.669-2.9-5.449-5.679c2.048-.4,4.049-.77,6.016-1.117q2.9,2.289,5.68,4.715-1.3.424-2.615.86Q86.6,518.908,84.763,519.533Zm4.475.445c1.142-.379,2.267-.748,3.384-1.111q2.519,2.258,4.952,4.626c.27.263.537.53.8.8q-3.278,1.541-6.692,3.171-2.728-3.285-5.565-6.436C87.169,520.669,88.21,520.319,89.238,519.978Zm39.05-5.161q1.645.65,3.256,1.359-3.26,1.892-6.665,3.917-2.611-1.741-5.309-3.341,3.356-1.443,6.562-2.753C126.855,514.264,127.575,514.535,128.288,514.817Zm46.436-12.694q2.383.023,4.726.21-3.342,3.452-6.814,7.112-2.4-.767-4.829-1.375Q171.34,504.985,174.723,502.123ZM220.8,473.016q1.981-.611,3.954-1.076-3.121,4.53-6.319,9.315c-.3,0-.594-.009-.891-.009-1.085,0-2.167.04-3.249.1Q217.591,477.042,220.8,473.016Zm15.759-13.031c.887-.333,1.774-.639,2.661-.925q-3.033,4.76-6.127,9.786-1.973.135-3.931.412,3.2-4.578,6.324-8.859Q236.02,460.186,236.557,459.984Zm15.853-14.446c.331-.14.662-.274.993-.406q-2.946,4.937-5.94,10.141-1.881.269-3.745.677,3.1-4.779,6.137-9.262Q251.131,446.08,252.41,445.539ZM246.3,457.294q-3.211,5.615-6.486,11.522c-1.03-.059-2.057-.1-3.08-.1q-.548,0-1.095.011,3.362-5.44,6.647-10.566Q244.293,457.646,246.3,457.294Zm183,375.36c-17.6-47.587-30.884-97.2-45.444-143.525-20.019-63.654-42.42-121.118-82.012-158.652-18.081-17.132-33.168-29.4-46.728-37.428a92.9,92.9,0,0,0-19.392-8.909c-.538-.169-1.074-.327-1.609-.481q3.582-6.623,7.074-12.937a57.413,57.413,0,0,1,11.142,2.12c8.085,2.356,16.7,6.567,26.186,12.854s19.846,14.643,31.427,25.261c35.938,32.934,56.851,83.238,73.372,140.452,12.4,42.908,22.344,89.691,34.42,135.935,3.632,13.9,7.457,27.76,11.6,41.447Q429.324,830.725,429.307,832.654Zm6.426,22.582q.163,1.416.332,2.828c-.273-.565-.539-1.134-.81-1.7-.06-.919-.125-1.835-.183-2.758Q435.4,854.421,435.733,855.236Zm3.64,9.584c-.1-.209-.21-.417-.314-.625-.057-.452-.114-.9-.171-1.357l.214.507C439.191,863.837,439.283,864.328,439.373,864.82Zm2,10.413c-.354-.592-.7-1.186-1.056-1.779q-.2-1.383-.391-2.77.445.872.891,1.744Q441.092,873.832,441.372,875.233Zm2.1,9.941q-.883-1.246-1.759-2.5-.3-1.873-.588-3.756.768,1.267,1.542,2.532Q443.06,883.318,443.469,885.174Zm7.5,15.871q-1.045-1.218-2.084-2.438-.454-1.815-.9-3.639.93,1.257,1.866,2.511Q450.4,899.268,450.968,901.045Zm7.545,11.646q.7,1.686,1.42,3.361-1.218-1.18-2.424-2.365-.608-1.715-1.2-3.444Q457.406,911.47,458.513,912.691Zm10.134,14.331q.839,1.552,1.694,3.093-1.367-1.106-2.72-2.217-.752-1.59-1.487-3.195Q467.385,925.865,468.647,927.022Zm6.768,6.1c.47.728.947,1.45,1.423,2.174-.687-.539-1.367-1.08-2.05-1.621q-.637-1.113-1.265-2.232C474.15,932.005,474.784,932.564,475.415,933.123Zm6.8,10.127q-1.491-1.012-2.969-2.029c-.4-.66-.808-1.316-1.2-1.98-.186-.311-.368-.624-.553-.936.926.72,1.864,1.436,2.8,2.152Q481.242,941.86,482.215,943.25Zm11.233,9.756q1.024,1.212,2.056,2.419-1.586-.906-3.159-1.813c-.657-.862-1.313-1.725-1.961-2.593Q491.91,952.015,493.448,953.006Zm8.391,9.577q-2.026-1-4.034-2.008-1.208-1.5-2.4-3.005,1.948,1.108,3.913,2.209Q500.571,961.187,501.839,962.583Zm12.848,8.3Q516,972.1,517.322,973.3q-2.092-.87-4.167-1.744-1.285-1.3-2.551-2.609Q512.636,969.917,514.686,970.884Zm16.74,10.164q1.32,1.015,2.652,2.023-2.091-.732-4.167-1.466-1.322-1.1-2.626-2.214Q529.348,980.22,531.426,981.048Zm18.009,9.233c31.377,20.279,67.389,38,109.258,52.111q-1.819.794-3.641,1.561a427.394,427.394,0,0,1-88.212-40.859q-11.135-6.841-21.465-14.18Q547.4,989.6,549.435,990.281Zm180.258,48.864q8.69,1.893,17.556,3.75c-.32.136-.641.27-.961.4q-8.7-1.907-17.207-3.862Zm1327.993-51.676q-11.808-.249-23.62-.512-12-5.995-23.749-12.1,10.46,1.073,20.929,2.153l2.4.248Q2045.559,982.41,2057.686,987.469Zm-17.811-9.566q11.205,1.153,22.436,2.3,11.493,3.954,23.16,7.825-11.329-.211-22.653-.447Q2051.245,982.786,2039.875,977.9ZM927.368,1074.44q-6.368-.833-12.661-1.688c.756-.092,1.511-.188,2.265-.283q6.322.906,12.709,1.8Q928.526,1074.356,927.368,1074.44Zm-29.852-1.717q-6.241-.825-12.4-1.68c.781-.106,1.562-.208,2.341-.319q6.158.906,12.391,1.791Q898.684,1072.621,897.517,1072.722Zm-28.712-1.581q-6.13-.827-12.172-1.691,1.211-.182,2.42-.372,6.047.922,12.175,1.816C870.42,1070.979,869.612,1071.063,868.8,1071.142Zm-27.787-1.485q-6.067-.842-12.044-1.731,1.3-.211,2.591-.433,5.965.952,12.014,1.87C842.724,1069.463,841.871,1069.564,841.017,1069.657Zm-27.052-1.421q-6.013-.869-11.931-1.789,1.408-.249,2.813-.509,5.9,1,11.9,1.946C815.817,1068,814.892,1068.124,813.965,1068.237Zm-26.423-1.385q-5.957-.9-11.807-1.869,1.532-.291,3.062-.6,5.845,1.051,11.794,2.044C789.576,1066.573,788.56,1066.718,787.542,1066.852Zm-59.206-7.521q-6.633-1.393-13.1-2.892,1.808-.534,3.613-1.092,6.557,1.58,13.273,3.067Q730.23,1058.885,728.336,1059.331Zm-8.219,1.8q-6.249-1.245-12.341-2.6,1.936-.513,3.867-1.056,6.153,1.456,12.455,2.816Q722.109,1060.723,720.117,1061.128Zm-233.841-99.3q3.01,1.37,6.058,2.732,1.61,2.182,3.265,4.331-3.173-1.231-6.309-2.469Q487.763,964.144,486.276,961.831Zm-13.789-12.322q2.806,1.524,5.651,3.04,1.4,2.4,2.837,4.775-2.992-1.389-5.945-2.785Q473.737,952.042,472.486,949.508ZM219.732,483.092q2.247.092,4.513.374-3.462,5.815-7.022,11.9-2.345-.787-4.667-1.388,1.589-2.436,3.155-4.818Q217.74,486.078,219.732,483.092Zm11.377,1.655q-3.5,6.493-7.1,13.261-2.393-1.054-4.75-1.919,3.683-6.294,7.255-12.294Q228.794,484.173,231.11,484.747Zm-3.6-2.622q3.547-5.934,7-11.556c.741-.032,1.484-.051,2.228-.051.7,0,1.4.018,2.11.047q-3.381,6.115-6.841,12.521Q229.746,482.517,227.512,482.126ZM437.385,868.452q-.72-1.244-1.433-2.491c-.1-1.276-.2-2.549-.3-3.832q.611,1.247,1.227,2.491Q437.127,866.541,437.385,868.452Zm1.437,10.06q-1.033-1.5-2.056-3.014-.213-2.283-.408-4.585.892,1.527,1.794,3.049Q438.478,876.245,438.821,878.512Zm1.572,9.826q-1.343-1.664-2.67-3.335c-.186-1.71-.361-3.433-.534-5.157q1.178,1.71,2.369,3.415Q439.967,885.808,440.393,888.337Zm7.655,15.842q-1.557-1.6-3.1-3.215-.486-2.474-.949-4.971,1.388,1.667,2.8,3.328Q447.41,901.762,448.048,904.179Zm9.11,14.934q-1.766-1.519-3.512-3.045-.7-2.345-1.365-4.715,1.6,1.6,3.225,3.193Q456.321,916.839,457.159,919.113Zm17.853,19.175q-1.774-1.241-3.529-2.487-.934-1.851-1.848-3.72c1.1.886,2.2,1.772,3.31,2.654Q473.968,936.518,475.011,938.287Zm4.83,7.932q-2.149-1.3-4.276-2.608-1.093-2.024-2.161-4.068,2.011,1.408,4.046,2.807Q478.633,944.293,479.841,946.219Zm13.544,12.127q-2.31-1.174-4.595-2.355-1.261-1.831-2.494-3.686,2.185,1.284,4.393,2.562Q492.024,956.616,493.385,958.346Zm5.861,7.227q-2.666-1.171-5.3-2.347-1.427-1.942-2.823-3.908,2.536,1.294,5.1,2.581Q497.718,963.748,499.246,965.573Zm-14.378-11.619q-2.51-1.313-4.989-2.633-1.243-2.146-2.456-4.317,2.36,1.433,4.749,2.859Q483.505,951.919,484.868,953.954Zm-42.8-37.828q2.371,1.889,4.777,3.77.753,3.085,1.549,6.127-2.6-1.772-5.165-3.552Q442.624,919.322,442.066,916.126ZM137.108,547.237q-2.781-3.326-5.592-6.473,3.926-3.551,7.681-6.963,2.823,2.544,5.614,5.287-1.809,1.922-3.653,3.875Q139.158,545.08,137.108,547.237Zm9.149-6.716q2.806,2.809,5.607,5.818-3.835,4.665-7.833,9.473-2.808-3.59-5.616-7Q142.422,544.6,146.257,540.52Zm9.241-9.744q2.719,2.133,5.43,4.475-3.523,4.328-7.186,8.8l-.575.7q-2.761-2.946-5.525-5.7,3.989-4.243,7.8-8.316Zm41.287-24.652q2.151.774,4.32,1.706-3.656,5.7-7.444,11.642-2.554-1.607-5.086-3.02,3.863-5.4,7.573-10.55C196.36,505.976,196.572,506.048,196.784,506.124Zm21.527-8.411c1.588.583,3.194,1.241,4.815,1.96q-3.595,6.77-7.292,13.8-2.511-1.56-4.974-2.93Q214.648,503.991,218.312,497.713ZM434.187,871.659q-1.141-1.712-2.268-3.43-.083-2.649-.149-5.319.984,1.747,1.981,3.489Q433.961,869.038,434.187,871.659Zm.954,10.067q-1.433-1.832-2.848-3.67-.132-2.892-.241-5.809,1.257,1.889,2.53,3.773Q434.85,878.885,435.141,881.726Zm1.107,9.921q-1.728-1.891-3.43-3.791-.187-3.073-.345-6.179,1.531,1.965,3.081,3.924Q435.886,888.639,436.248,891.647Zm7.773,15.814q-1.969-1.8-3.914-3.607-.429-2.948-.828-5.929,1.768,1.888,3.563,3.767Q443.415,904.592,444.02,907.461Zm-6.5-6.029q-2.03-1.911-4.032-3.831-.252-3.216-.47-6.469,1.817,2,3.661,4Q437.083,898.3,437.522,901.432ZM175.658,571.161q4.048-6.84,7.948-13.517,2.776,3.022,5.639,6.234-3.84,7.207-7.808,14.573Q178.5,574.72,175.658,571.161Zm-8.506-10.456q-2.829-3.4-5.609-6.623,4.064-5.58,7.96-10.993,2.739,2.643,5.522,5.483Q171.164,554.556,167.152,560.706Zm9.379-10.58q2.752,2.847,5.57,5.889-3.86,6.607-7.86,13.378-2.88-3.585-5.683-6.99Q172.623,556.18,176.53,550.125ZM429.937,874.977a762.252,762.252,0,0,1-44.96-66.867c-44.052-72.791-76.083-145.127-122.193-194.781-25.885-27.863-45.246-49.751-62.228-66.229q3.906-7.4,7.684-14.6,4.109,3.356,8.423,7.2c15.06,13.385,32.292,31.236,54.134,54.02,31.559,32.914,55.262,77.473,79.315,126.274,23.574,47.815,47.491,99.7,79.6,148.7Q429.809,871.852,429.937,874.977Zm.494,10.207a714.166,714.166,0,0,1-49.993-63.771c-48.383-68.875-82.875-137.874-127.422-187.371-25.471-28.292-44.572-51.665-61.231-70.389q3.96-7.438,7.79-14.695c4.155,4.054,8.46,8.431,12.979,13.153,13.668,14.28,29.269,31.647,48.454,52.3,30.534,32.865,54.977,75.95,80.931,122.622,25.488,45.824,52.442,95.107,88.158,141.577Q430.25,881.912,430.431,885.184ZM190.27,561.955q-2.836-3.168-5.588-6.151,4-6.855,7.856-13.519,2.683,2.466,5.44,5.122Q194.186,554.589,190.27,561.955Zm8.686-16.4q-2.732-2.619-5.389-5.045,3.942-6.816,7.744-13.416,2.584,1.92,5.235,4.042Q202.81,538.24,198.955,545.553Zm-7-6.5q-2.692-2.418-5.329-4.645,3.96-6.192,7.767-12.164,2.572,1.69,5.193,3.587Q195.838,532.331,191.956,539.05Zm-1.022,1.767q-1.415,2.446-2.847,4.915-2.428,4.185-4.912,8.444-2.79-2.994-5.514-5.8,4.022-6.236,7.885-12.279Q188.211,538.359,190.934,540.817Zm-.174,24.761q2.815,3.174,5.732,6.526c15.106,17.344,32.495,38.3,54.73,63,29.535,32.806,54.731,74.4,82.6,118.935,27.43,43.832,57.45,90.51,96.814,134.446q.211,3.419.458,6.8a687.663,687.663,0,0,1-55.146-60.614c-52.714-64.948-89.674-130.59-132.693-179.914-25.113-28.786-43.989-53.614-60.373-74.474Q186.885,572.85,190.759,565.578ZM429.591,864.655c-14.815-22.922-27.9-46.457-40.031-69.9-39.718-76.7-69.3-152.348-117.009-202.14-26.35-27.484-46.005-47.818-63.372-61.9q3.841-7.309,7.562-14.383a188.606,188.606,0,0,1,16.506,12.2c13.474,11.014,28.752,25.712,47.337,44.5,32.61,32.947,55.59,78.966,77.749,129.888,21.684,49.81,42.592,104.3,71.12,155.844Q429.512,861.72,429.591,864.655ZM214.932,515.182q-3.669,6.969-7.452,14.172-1.879-1.492-3.726-2.887c-.488-.368-.974-.728-1.459-1.086q3.871-6.717,7.61-13.19Q212.388,513.583,214.932,515.182Zm-14.364,8.944q-2.588-1.856-5.132-3.517,3.879-6.079,7.617-11.913,2.472,1.135,4.987,2.48Q204.365,517.533,200.568,524.126Zm-7.945-3.028q-3.741,5.864-7.626,11.945l-.006,0q-2.657-2.19-5.281-4.181,3.956-5.534,7.748-10.844Q190.025,519.452,192.623,521.1Zm-8.7,13.63q-3.355,5.246-6.825,10.639l-.944,1.464q-2.749-2.791-5.456-5.393,4.02-5.588,7.872-10.98Q181.223,532.49,183.918,534.728Zm-14.754,5.259c-1.106-1.042-2.209-2.067-3.31-3.061q-1.054-.951-2.106-1.871,3.995-4.913,7.815-9.629,2.076,1.39,4.162,2.906c.39.284.781.579,1.172.869Q173.11,534.5,169.164,539.987Zm-1.182,1.644q-1.145,1.59-2.3,3.2-2.728,3.778-5.54,7.642-2.789-3.189-5.555-6.192,4.039-4.92,7.9-9.671Q165.224,539.016,167.982,541.631Zm-14.7,6.235q2.8,3.051,5.624,6.3-3.878,5.317-7.913,10.779-2.846-3.824-5.663-7.471Q149.388,552.6,153.277,547.866Zm7.025,7.919q2.809,3.265,5.669,6.723-3.9,5.959-7.95,12.06-2.9-4.024-5.737-7.875Q156.377,561.168,160.3,555.786Zm7.072,8.424q2.833,3.448,5.742,7.084-3.9,6.584-7.944,13.31-2.961-4.189-5.839-8.209Q163.433,570.231,167.374,564.21Zm7.157,8.854q2.868,3.6,5.834,7.375-3.882,7.19-7.9,14.517-3.036-4.313-5.962-8.464Q170.593,579.708,174.531,573.064Zm7.271,9.2c16.186,20.633,34.887,45.158,59.633,73.525C298.2,720.847,344.664,814.965,431.321,898.3q.279,3.512.6,6.977C339.347,827.825,288.217,740.242,233.48,675.467c-24.821-29.363-43.5-55.639-59.646-78.571Q177.886,589.515,181.8,582.268Zm251.938,318.35q2.1,2,4.239,3.992.48,3.269,1,6.495-1.943-1.578-3.863-3.162c-.26-.214-.515-.43-.774-.645Q434.02,903.981,433.739,900.618Zm6.841,6.4q2.067,1.9,4.164,3.8.662,3.011,1.36,5.984-2.285-1.8-4.537-3.612Q441.053,910.129,440.58,907.022Zm12.71,15.368q-2.213-1.693-4.4-3.4-.678-2.8-1.32-5.633,2.009,1.793,4.045,3.577Q452.436,919.681,453.29,922.39Zm-3.632-.308q2.321,1.792,4.676,3.576.916,2.822,1.872,5.608-2.537-1.676-5.037-3.362Q450.392,925.014,449.658,922.082Zm7.735,5.877q2.252,1.684,4.534,3.359,1.049,2.547,2.133,5.064-2.447-1.571-4.862-3.149Q458.275,930.615,457.393,927.959Zm7.9,5.814q2.154,1.559,4.336,3.11,1.143,2.255,2.314,4.488-2.323-1.448-4.619-2.9Q466.295,936.136,465.3,933.773Zm2.472-.628q-1.977-1.424-3.928-2.856-.9-2.2-1.774-4.417,1.812,1.513,3.647,3.017Q466.726,931.029,467.768,933.145Zm-7.253-5.307q-2.114-1.57-4.2-3.149-.809-2.5-1.586-5.041,1.927,1.664,3.878,3.32Q459.544,925.419,460.515,927.839Zm-9.944-14.48q-1.884-1.671-3.745-3.348-.58-2.659-1.13-5.347,1.7,1.757,3.422,3.5Q449.832,910.775,450.571,913.359Zm-8.448-15.377q-1.658-1.762-3.3-3.531-.207-1.638-.405-3.285c-.091-.763-.172-1.536-.261-2.3q1.468,1.824,2.957,3.64Q441.608,895.256,442.123,897.982Zm-8.751-36.568q-.856-1.525-1.7-3.054-.045-2.34-.08-4.69.725,1.538,1.46,3.072Q433.2,859.084,433.372,861.414Zm-3.993-7.222c-13.032-23.923-24.487-48.457-35.188-72.846-17.684-40.295-33.322-80.179-50.7-116.228s-36.487-68.263-61.174-93.215c-24.808-25.067-43.754-42.91-60.553-54.538q-2.081-1.44-4.119-2.749,3.769-7.156,7.426-14.051a137.861,137.861,0,0,1,24,15.042c12.014,9.1,25.472,21.24,41.3,36.732,33.689,32.964,55.963,80.429,76.235,133.459,19.815,51.807,37.732,108.911,62.708,163Q429.34,851.5,429.378,854.192ZM216.271,497q-3.583,6.136-7.279,12.528-2.474-1.31-4.916-2.428,3.78-5.888,7.428-11.5Q213.871,496.2,216.271,497Zm-14.142,9.233q-2.228-.955-4.442-1.753c-.136-.049-.273-.095-.409-.143q3.215-4.449,6.328-8.7.507-.691,1.01-1.373,2.348.314,4.709.823Q205.785,500.532,202.129,506.232Zm-6.921-2.594q-2.378-.764-4.757-1.352l.479-.578q3.4-4.1,6.678-7.957,2.314.03,4.62.242Q198.779,498.69,195.208,503.639Zm-1.134,1.57q-3.6,5-7.346,10.235-2.521-1.339-5.039-2.489,3.811-4.674,7.464-9.1Q191.612,504.434,194.074,505.209ZM185.612,517q-3.711,5.191-7.575,10.6-2.63-1.941-5.25-3.69,3.922-4.839,7.676-9.455Q183.032,515.628,185.612,517Zm-14.562,5.774q-2.6-1.67-5.217-3.154,3.855-4.11,7.531-7.992c.755.26,1.509.527,2.262.813q1.439.546,2.875,1.157Q174.852,518.085,171.05,522.778Zm-1.223,1.509q-3.741,4.615-7.644,9.42-2.692-2.3-5.394-4.42,3.942-4.214,7.7-8.229Q167.163,522.57,169.827,524.287Zm-14.659,3.753q-2.671-2.026-5.376-3.866,3.845-3.487,7.515-6.789,2.689,1.23,5.342,2.659Q158.992,523.948,155.168,528.04Zm-1.347,1.44q-3.732,3.988-7.631,8.141-2.739-2.676-5.511-5.169,3.906-3.55,7.634-6.937Q151.083,527.4,153.821,529.48Zm-14.643,1.633q-2.719-2.385-5.5-4.592,3.789-2.851,7.394-5.537,2.79,1.6,5.522,3.387Q142.97,527.662,139.178,531.113Zm-3.862-.7q1.194,1.006,2.377,2.05-3.675,3.34-7.516,6.816-.645-.71-1.293-1.41-2.127-2.3-4.289-4.491,3.821-2.888,7.46-5.631Q133.695,529.049,135.316,530.412Zm-12.12,1.561q-2.744-2.726-5.566-5.289,3.666-2.22,7.166-4.309,2.87,1.97,5.658,4.119Q126.9,529.168,123.2,531.973Zm-1.631,1.232q-3.577,2.7-7.313,5.522-2.767-3.363-5.612-6.569,3.686-2.254,7.205-4.392h0Q118.748,530.394,121.565,533.2Zm1.4,1.405q2.879,2.926,5.7,6.037l-.9.812q-3.261,2.943-6.649,5.978-2.782-3.676-5.619-7.188Q119.315,537.369,122.963,534.61ZM130,542.134q2.856,3.207,5.679,6.605-3.781,3.973-7.727,8.066-1.942-2.747-3.895-5.418-.867-1.182-1.738-2.348Q126.248,545.524,130,542.134Zm6.983,8.182q2.847,3.467,5.69,7.124-3.848,4.612-7.858,9.347-2.838-4.232-5.674-8.29Q133.148,554.343,136.982,550.316Zm6.982,8.79q2.85,3.7,5.728,7.586-3.9,5.253-7.949,10.629-2.888-4.463-5.742-8.755Q140.067,563.775,143.964,559.106Zm7.022,9.338q2.871,3.9,5.8,7.984-3.923,5.89-8,11.9-2.954-4.656-5.843-9.148Q147.048,573.752,150.987,568.444Zm7.108,9.809q2.908,4.066,5.9,8.3-3.931,6.519-8.005,13.159-3.033-4.8-5.975-9.455Q154.132,584.2,158.094,578.253Zm7.232,10.195.344.488q2.789,3.956,5.677,8.063-3.918,7.134-7.97,14.385-1.777-2.793-3.517-5.54-1.318-2.082-2.615-4.134Q161.36,595.019,165.326,588.448Zm7.387,10.49c15.967,22.665,34.475,48.608,58.934,77.546,54.96,65.011,106.5,153.512,200.543,231.6q.354,3.578.76,7.1c-100.073-72.283-156.279-154.316-209.238-219-24.591-30.033-43.1-57.783-59.036-82.759Q168.762,606.123,172.713,598.938ZM434.626,910.1q2.4,1.974,4.84,3.939.564,3.337,1.175,6.625-2.549-1.787-5.061-3.583l-.189-.137Q434.986,913.549,434.626,910.1Zm6.535,13.3q.654,3.383,1.363,6.71-2.964-1.793-5.882-3.6-.5-3.446-.934-6.953Q438.414,921.492,441.161,923.407Zm2.6,1.8q2.675,1.845,5.392,3.679.851,3.139,1.754,6.229-2.919-1.716-5.8-3.441Q444.414,928.471,443.765,925.211Zm8.192,5.56q2.632,1.758,5.3,3.509c.128.361.253.725.382,1.085q.838,2.338,1.711,4.644-2.861-1.632-5.681-3.275Q452.789,933.778,451.957,930.771Zm8.327,5.478q2.569,1.664,5.173,3.318c.094.211.185.424.279.634q1.032,2.3,2.1,4.579-2.779-1.541-5.522-3.09Q461.275,938.993,460.284,936.25Zm8.48,5.407q2.48,1.556,4.993,3.1c.037.068.073.137.11.205q1.223,2.249,2.483,4.468-2.666-1.435-5.3-2.879Q469.889,944.122,468.764,941.657Zm12.945,12.784q2.693,1.418,5.419,2.828,1.474,2.133,2.984,4.239-2.849-1.286-5.664-2.579Q483.062,956.7,481.709,954.44ZM496.238,966.3q2.864,1.264,5.761,2.522,1.646,1.913,3.326,3.8-3-1.133-5.966-2.273Q497.78,968.337,496.238,966.3ZM515,976.227q-2.782-1.024-5.535-2.052-1.576-1.727-3.12-3.478,2.677,1.147,5.384,2.287Q513.355,974.616,515,976.227Zm-6.967-.607a271.736,271.736,0,0,0,59.737,49.208,291.758,291.758,0,0,0,62.166,28.149q-2.713.812-5.438,1.555a273.151,273.151,0,0,1-27.7-9.814,238.113,238.113,0,0,1-95.159-71.508Q504.821,974.419,508.037,975.621Zm22.888,19.68q-9.828-8.671-18.66-18.107,3,1.11,6.04,2.214a306.832,306.832,0,0,0,64.521,47.042,337.109,337.109,0,0,0,55.264,23.928q-2.525.855-5.058,1.649C591.618,1039.006,558.3,1019.443,530.924,995.3Zm66.965,32.722a390.643,390.643,0,0,0,47.7,19.68q-2.307.864-4.621,1.679c-38.679-12.642-70.866-30.249-98.089-51.434q-10.369-8.071-19.8-16.815,2.763.993,5.552,1.98A350.577,350.577,0,0,0,597.889,1028.023Zm43.123,23.308q5.84,1.893,11.872,3.638c-1.68.464-3.361.915-5.046,1.342q-5.964-1.578-11.716-3.328Q638.572,1052.186,641.012,1051.331Zm2.852-1.013q2.264-.82,4.522-1.681,6.184,2.048,12.566,3.952-2.357.739-4.72,1.432Q649.94,1052.253,643.865,1050.318Zm7.215-2.731q2.043-.808,4.078-1.656,6.511,2.17,13.225,4.2-2.156.749-4.317,1.461Q657.464,1049.669,651.079,1047.586Zm13.044,5.93q5.969,1.728,12.114,3.326-2.348.6-4.7,1.146-6.073-1.451-11.958-3.046Q661.854,1054.251,664.124,1053.516Zm3.079-1.021q2.1-.711,4.2-1.462,6.336,1.874,12.857,3.62-2.2.639-4.405,1.234Q673.429,1054.263,667.2,1052.5Zm9.153-16.407q7.7,2.347,15.6,4.6c-.792.359-1.586.711-2.38,1.062q-7.744-2.256-15.272-4.621Q675.332,1036.615,676.356,1036.088Zm3.842-2q7.98,2.321,16.163,4.563c-.612.289-1.223.578-1.835.862q-8.023-2.269-15.833-4.636C679.195,1034.615,679.7,1034.353,680.2,1034.088Zm3.259-1.754q8.263,2.273,16.726,4.481c-.428.209-.855.422-1.284.629q-8.3-2.258-16.384-4.6C682.829,1032.677,683.143,1032.505,683.457,1032.334Zm63.094,12.888q8.28,1.811,16.729,3.575-.906.333-1.813.661-8.291-1.776-16.408-3.612C745.557,1045.639,746.054,1045.43,746.551,1045.221Zm24.646,2.554q8.491,1.685,17.139,3.336-.833.285-1.666.565-8.494-1.666-16.825-3.377C770.295,1048.125,770.746,1047.953,771.2,1047.776Zm821.7-345.93q6.959,10.952,13.985,22.253c-41.729-18.709-86.008-29.75-135.277-29.748q-4.707,0-9.474.135c-70.127,1.995-135.338,26.452-197.717,61.93-93.571,53.222-180.874,131.274-269.02,195.975-44.068,32.351-88.34,61.36-133.659,82.266a412.217,412.217,0,0,1-49.136,19.122q-8.7-1.575-17.247-3.184c53.323-19.372,104.576-52.324,155.272-91.075,77.673-59.379,154.053-132.377,234.315-191.04,40.129-29.333,81.223-55.078,123.9-73.754s86.937-30.285,133.439-31.383q3.546-.084,7.054-.084a283.833,283.833,0,0,1,108.627,21.511,343.363,343.363,0,0,1,34.526,16.432Zm178,159.965q-10.064-3.445-20.2-6.634-9.047-11.011-17.9-21.86,9.785,3.864,19.5,8.021Q1761.52,851.482,1770.9,861.81Zm175.022,104.833q-11.927-1.128-23.885-2.195-11.627-9.259-22.923-18.579,11.684,1.912,23.346,3.923Q1934.044,958.239,1945.923,966.643Zm-19.105-16.1q11.555,2.006,23.1,4.089,11.618,7.361,23.5,14.678-11.785-1.17-23.582-2.3Q1938.18,958.812,1926.818,950.547ZM887.455,1068.894q-7.385-1.088-14.662-2.208,1.239-.238,2.478-.483,7.383,1.162,14.868,2.3C889.245,1068.639,888.351,1068.767,887.455,1068.894Zm-28.413-1.649q-7.214-1.1-14.316-2.245,1.285-.268,2.569-.545,7.2,1.19,14.507,2.349C860.883,1066.955,859.962,1067.1,859.042,1067.245Zm-27.484-1.589q-7.084-1.133-14.048-2.318,1.354-.3,2.707-.619,7.044,1.234,14.2,2.428C833.465,1065.32,832.512,1065.493,831.558,1065.657Zm-26.732-1.563q-6.958-1.176-13.786-2.415,1.442-.348,2.882-.709,6.908,1.295,13.939,2.538C806.851,1063.706,805.839,1063.9,804.827,1064.094Zm-26.075-1.559q-6.844-1.233-13.547-2.542,1.554-.4,3.106-.82,6.786,1.372,13.7,2.681Q780.384,1062.2,778.752,1062.535Zm-60.012-9.09q-7.194-1.741-14.2-3.587,1.555-.581,3.107-1.181,7.14,1.892,14.455,3.695Q720.42,1052.919,718.74,1053.444Zm-3.409,1.044q-1.873.56-3.751,1.094-6.871-1.633-13.56-3.379,1.768-.612,3.531-1.25Q708.354,1052.771,715.331,1054.488ZM693.84,1041.9c.3-.139.608-.282.913-.422q7.606,2.143,15.4,4.2c-.888.357-1.775.713-2.665,1.059q-7.655-2.039-15.108-4.18C692.867,1042.342,693.354,1042.125,693.84,1041.9Zm5.32-2.491q7.9,2.144,16,4.211c-.725.306-1.451.607-2.177.906q-7.94-2.073-15.68-4.237C697.922,1040,698.542,1039.71,699.161,1039.413Zm62.5,11.948q7.8,1.667,15.764,3.28-1.269.387-2.539.76-7.823-1.588-15.485-3.242Q760.532,1051.764,761.661,1051.362Zm25.2,2.2q7.987,1.563,16.118,3.087-1.186.336-2.372.663-8-1.5-15.842-3.057Q785.811,1053.915,786.858,1053.566Zm25.929,2.089q8.185,1.48,16.5,2.932c-.744.2-1.487.394-2.232.584q-8.186-1.434-16.229-2.91Q811.81,1055.962,812.787,1055.655Zm887.292-214.422q-10.54-2.474-21.214-4.6-8.39-13.32-16.524-26.475,10.339,2.669,20.533,5.738Q1691.361,828.467,1700.079,841.232Zm-14.02-24.369q9.841,3.02,19.57,6.384,8.766,11.852,17.746,23.9-10.077-2.749-20.263-5.2Q1694.466,829.324,1686.059,816.863Zm-25.1-8.945q-8.029-12.979-15.85-25.746,9.886,3.173,19.629,6.771,8.169,12.154,16.52,24.552Q1671.175,810.516,1660.955,807.918Zm-2.941-.737a476.424,476.424,0,0,0-115.485-14.316q-10.219,0-20.651.447c-65.791,2.837-128.151,21.717-188.556,48.4-90.607,40.022-176.871,97.6-263.821,145.13-43.472,23.767-87.111,45.022-131.521,60.327a480.64,480.64,0,0,1-62.76,17.2q-8.191-1.291-16.257-2.608c33.495-8.284,66.325-20.958,98.766-36.486,88.787-42.506,174.745-106.413,263.609-160.615,44.428-27.1,89.576-51.776,136.133-70.144s94.515-30.431,144.6-32.342q8.019-.307,15.893-.3A410.535,410.535,0,0,1,1642.027,781.2Q1649.921,794.069,1658.014,807.181Zm-140.053-47.118q-7.926,0-16,.306c-67.279,2.568-130.634,23.311-191.745,52.922-91.667,44.421-178.35,108.809-265.768,162.051-43.706,26.621-87.589,50.455-132.335,67.622a451.3,451.3,0,0,1-57.791,18.029q-8.393-1.384-16.648-2.8c32.251-9.193,63.84-22.765,95.035-39.224,89.286-47.116,175.463-117.9,264.955-177.719,44.742-29.91,90.305-57.076,137.46-77.18s95.889-33.145,147.014-34.846q6.188-.206,12.279-.205c47.08,0,89.977,9.107,130.735,24.66q7.633,12.429,15.417,25.143A412.585,412.585,0,0,0,1517.961,760.063Zm-668.271,302q-1.236.276-2.473.544-7.975-1.32-15.818-2.677c.736-.2,1.472-.393,2.207-.594Q841.586,1060.71,849.691,1062.061Zm-26.964-1.811c-.865.21-1.731.41-2.6.613q-7.791-1.368-15.443-2.784,1.163-.333,2.324-.675Q814.8,1058.845,822.727,1060.25Zm-26.159-1.849q-1.366.358-2.735.7-7.633-1.434-15.115-2.93,1.242-.381,2.481-.77Q788.811,1056.927,796.568,1058.4Zm-25.446-1.91q-1.451.41-2.9.807-7.484-1.518-14.81-3.11,1.336-.438,2.67-.886Q763.525,1054.926,771.122,1056.491Zm-21.3-3.09q-7.662-1.694-15.149-3.47,1.224-.457,2.447-.924,7.631,1.793,15.425,3.52Q751.185,1052.971,749.823,1053.4Zm-18.411-4.246q-7.811-1.879-15.433-3.846c.725-.305,1.449-.61,2.173-.922q7.774,1.964,15.729,3.855Q732.648,1048.7,731.412,1049.154Zm-20.888-1.61q1.327-.529,2.652-1.071,7.467,1.942,15.114,3.8-1.466.516-2.934,1.011Q717.846,1049.465,710.524,1047.545Zm21.049,3.525q7.294,1.748,14.752,3.419-1.562.474-3.125.933-7.338-1.619-14.5-3.331Q730.138,1051.588,731.574,1051.07Zm18.384,4.227q7.074,1.56,14.3,3.048-1.627.419-3.257.817-7.116-1.423-14.073-2.928Q748.441,1055.774,749.957,1055.3Zm22.237,2.8q1.411-.4,2.819-.813,7.214,1.461,14.564,2.864-1.514.362-3.031.706Q779.3,1059.51,772.195,1058.1Zm25.89,1.8q1.32-.349,2.638-.709,7.361,1.379,14.853,2.714-1.426.314-2.852.616Q805.336,1061.234,798.085,1059.895Zm26.588,1.759q1.245-.307,2.488-.624,7.526,1.317,15.173,2.6c-.9.183-1.8.367-2.7.543Q832.086,1062.936,824.672,1061.654Zm27.376,1.745q1.193-.273,2.384-.553,7.721,1.273,15.558,2.521-1.312.244-2.626.478Q859.647,1064.639,852.048,1063.4Zm28.309,1.768c34.85-7.336,69.038-19.049,102.841-33.573,88.211-37.906,173.871-94.953,262.03-143.547,44.077-24.3,88.772-46.482,134.7-63.114s93.069-27.711,142.072-29.823q10.376-.447,20.533-.444A474.291,474.291,0,0,1,1659.39,809.4q8.192,13.242,16.63,26.671A561.651,561.651,0,0,0,1568.6,825.607q-13.243,0-26.8.647c-64.24,3.09-125.535,20.105-185.164,43.854-89.444,35.626-175.179,86.406-261.556,128.246-43.187,20.921-86.529,39.606-130.555,53.055a519.093,519.093,0,0,1-68.418,16.167Q888.171,1066.384,880.357,1065.167Zm128.924-27.212c87.529-33.32,172.784-83.526,260.134-126.524s176.761-78.78,272.51-83.38q13.5-.65,26.672-.643a559.529,559.529,0,0,1,108.749,10.778q8.533,13.542,17.359,27.22a680.1,680.1,0,0,0-97.719-7.148q-17.4,0-35.278.939c-62.6,3.327-122.733,18.474-181.488,39.3-88.132,31.236-173.188,75.243-258.845,111.412-67.187,28.374-134.724,51.911-204.368,60.743q-7.618-1.093-15.134-2.208C938.241,1062.091,973.952,1051.4,1009.281,1037.954Zm670.924-199.191q10.774,2.175,21.409,4.712,8.841,12.909,17.959,25.957-10.985-1.966-22.1-3.624Q1688.688,852.229,1680.205,838.763Zm24.453,5.447q10.31,2.51,20.508,5.338,9.136,12.223,18.532,24.588-10.548-2.221-21.2-4.179Q1713.435,857.025,1704.658,844.21Zm23.785,6.246q10.453,2.945,20.809,6.2,9.409,11.45,19.063,23.041-10.706-2.578-21.5-4.9Q1737.493,862.566,1728.443,850.456Zm41.838,31.595q9.827,11.76,19.95,23.606-11.185-1.98-22.461-3.741-9.789-12.475-19.254-24.888Q1759.445,879.4,1770.281,882.051Zm69.093,53.064q-11.625-1.55-23.32-2.941Q1805.5,920.291,1795.3,908.41q11.364,2.069,22.653,4.347Q1828.5,923.923,1839.374,935.114Zm-17.958-21.656q11.323,2.311,22.59,4.806,10.781,10.28,21.867,20.582-11.592-1.716-23.239-3.3Q1831.858,924.505,1821.416,913.459Zm-27.989-7.23q-10.034-11.7-19.767-23.346,10.879,2.7,21.683,5.636,10.088,10.934,20.452,21.951Q1804.648,908.25,1793.428,906.229Zm-1.333,1.6q10.276,11.977,20.9,23.979-11.635-1.359-23.355-2.539-10.3-12.634-20.221-25.263Q1780.8,905.806,1792.095,907.832Zm22.705,26.012q10.761,12.1,21.927,24.17-12.066-.714-24.208-1.3-10.848-12.7-21.269-25.462Q1803.069,932.454,1814.8,933.844Zm3.066.363q11.813,1.42,23.554,3.006,11.03,11.3,22.442,22.561-12.064-.849-24.193-1.584Q1828.56,946.228,1817.866,934.207Zm26.821,3.45q11.8,1.612,23.537,3.369,11.266,10.419,22.891,20.8-12.045-.964-24.145-1.83Q1855.635,948.855,1844.687,937.656Zm27.073,3.9q11.757,1.778,23.475,3.678,11.454,9.466,23.238,18.893-12-1.059-24.053-2.035Q1882.907,951.856,1871.759,941.558Zm24.583,2.022q-11.028-9.119-21.776-18.244,11.129,2.68,22.241,5.49,11.059,8.275,22.362,16.562Q1907.766,945.438,1896.342,943.58Zm-3.859-.621q-11.528-1.852-23.093-3.588-10.94-10.127-21.573-20.255,11.253,2.52,22.468,5.2Q1881.244,933.627,1892.483,942.958Zm-47.226-26.282q-10.358-9.881-20.464-19.71,10.675,3.209,21.319,6.6,10.445,9.037,21.118,18.143Q1856.261,919.121,1845.257,916.677Zm-3.788-.833q-11.085-2.427-22.223-4.681-10.234-10.84-20.185-21.624c1.083.3,2.168.594,3.25.9q9.166,2.558,18.294,5.271Q1830.911,905.736,1841.469,915.844Zm-38.434-27.11q-3.162-.882-6.331-1.745-9.693-10.509-19.156-20.909c.389.137.778.27,1.166.408q9.635,3.408,19.227,7.03,9.825,9.659,19.849,19.445Q1810.425,890.8,1803.035,888.734Zm-10.019-2.739q-10.635-2.856-21.339-5.485-9.537-11.417-18.821-22.718,10.357,3.3,20.642,6.872Q1783.145,875.261,1793.016,885.994Zm-45.9-31.934q-10.193-3.15-20.479-6.013-8.871-11.875-17.524-23.583,9.937,3.5,19.779,7.321Q1737.912,842.827,1747.121,854.06Zm-39.954-32.235q-8.442-11.415-16.714-22.62,9.379,4.019,18.667,8.384,8.632,10.53,17.408,21.293Q1716.892,825.2,1707.166,821.826Zm-3.469-1.19q-9.58-3.256-19.269-6.187-8.255-12.231-16.322-24.248,9.342,3.521,18.575,7.407Q1695.107,809,1703.7,820.636ZM1681.87,793.6q-7.729-3.145-15.538-6.035-7.876-11.719-15.606-23.181,8.795,4,17.488,8.367,8.1,10.83,16.309,21.942C1683.638,794.324,1682.756,793.956,1681.87,793.6Zm-18.9-7.269q-9.6-3.479-19.342-6.555-7.7-12.548-15.227-24.836,9.412,3.681,18.683,7.807Q1654.963,774.391,1662.975,786.327Zm-36.172-34q-5.758-9.376-11.441-18.575-1.6-2.586-3.194-5.156,8.9,4.184,17.674,8.827,7.592,11.042,15.278,22.411Q1636.03,755.87,1626.8,752.325Zm-3.238-1.234c-40.249-15.061-82.677-23.871-129.145-23.869q-6.137,0-12.37.206c-68.72,2.287-133.022,24.89-194.786,57.433-92.647,48.821-179.671,120.036-267.481,179-43.9,29.483-87.992,55.9-133.038,74.936a428.935,428.935,0,0,1-53.287,18.67q-8.556-1.479-16.966-2.988c31.083-10.062,61.508-24.474,91.538-41.787,89.729-51.736,176.065-129.409,266.128-194.853,45.027-32.721,90.978-62.383,138.7-84.22s97.209-35.853,149.353-37.334q4.729-.135,9.4-.134c49.969,0,94.757,11.443,137.065,30.824Q1616.065,738.868,1623.565,751.09ZM808.837,1054.939q-.985.3-1.972.591-8.351-1.548-16.55-3.141c.533-.184,1.066-.367,1.6-.554l.078-.028Q800.341,1053.388,808.837,1054.939Zm-25.683-2.1c-.7.228-1.4.459-2.1.682q-8.163-1.639-16.161-3.334.908-.335,1.816-.677Q774.853,1051.195,783.154,1052.838Zm-24.96-2.222c-.755.263-1.51.531-2.266.788q-7.986-1.747-15.8-3.565.993-.393,1.986-.792Q750.07,1048.859,758.194,1050.615Zm-21.267-3.528q-8.11-1.911-16.032-3.9c.556-.245,1.111-.494,1.665-.743q8.085,1.963,16.346,3.866Q737.918,1046.7,736.927,1047.087Zm-19.011-4.646q-8.222-2.083-16.247-4.244c.44-.216.879-.436,1.318-.654q8.2,2.12,16.595,4.177C719.027,1041.965,718.472,1042.2,717.916,1042.441Zm-13.341,5.417q-1.577.6-3.157,1.169-7.358-1.976-14.513-4.067,1.435-.611,2.867-1.24Q697.079,1045.838,704.576,1047.858Zm-6.174,2.248q-1.8.634-3.61,1.241-7.057-1.886-13.912-3.9,1.679-.671,3.354-1.363Q691.223,1048.15,698.4,1050.106Zm-6.765,2.284q-2.013.649-4.03,1.264-6.75-1.77-13.3-3.676,1.9-.7,3.8-1.437Q684.777,1050.524,691.636,1052.39Zm-3.964,3.168q6.058,1.579,12.28,3.047-2.168.511-4.341.983-6.158-1.338-12.145-2.8Q685.573,1056.189,687.672,1055.557Zm3.324-1.025q1.95-.617,3.9-1.267,6.447,1.714,13.064,3.32-2.04.549-4.085,1.063Q697.346,1056.15,691,1054.532Zm31.22-.256q1.634-.529,3.263-1.079,6.937,1.677,14.038,3.27-1.744.484-3.489.943Q729.038,1055.893,722.217,1054.276Zm21.084,3.032q6.671,1.466,13.485,2.857-1.751.4-3.506.788-6.736-1.306-13.322-2.7Q741.63,1057.789,743.3,1057.308Zm17.77,3.721q6.326,1.26,12.774,2.455c-1.124.208-2.25.414-3.375.61q-6.41-1.1-12.689-2.282Q759.426,1061.429,761.07,1061.029Zm22.492,2.36q1.524-.33,3.047-.675,6.414,1.186,12.941,2.319c-1.04.177-2.08.354-3.122.522Q789.935,1064.5,783.562,1063.389Zm26.4,1.561q1.413-.284,2.823-.581,6.511,1.128,13.129,2.211c-.972.152-1.943.3-2.916.446Q816.419,1066.016,809.958,1064.95Zm27.058,1.57q1.327-.248,2.653-.5,6.625,1.084,13.349,2.132-1.38.2-2.761.38Q843.585,1067.546,837.017,1066.52Zm27.85,1.606q1.267-.217,2.532-.443,6.764,1.055,13.619,2.084c-.886.113-1.773.218-2.66.325Q871.565,1069.127,864.867,1068.126Zm28.79,1.673c.817-.127,1.634-.26,2.45-.392q6.948,1.044,13.987,2.068c-.872.1-1.744.191-2.617.285Q900.519,1070.793,893.656,1069.8Zm29.949,1.788c38.1-5.316,75.552-14.926,112.628-27.22,86.7-28.751,171.4-72.141,257.792-109.558s174.46-68.858,267.829-73.818q17.815-.947,35.133-.935a678.033,678.033,0,0,1,99.019,7.361q8.919,13.774,18.177,27.629c-27.645-2.752-55.871-4.294-84.918-4.295q-23.446,0-47.642,1.385c-121.651,7.094-235.329,53.087-348.234,97.231-56.453,22.076-112.712,43.7-169.658,59.788-41.473,11.721-83.306,20.506-125.848,24.417Q930.7,1072.59,923.605,1071.587Zm775.185-203.748q11.2,1.69,22.259,3.7,9.235,13.17,18.8,26.423-11.414-1.454-22.952-2.642Q1707.668,881.549,1698.791,867.839Zm25.2,4.242q10.755,2,21.4,4.271,9.538,12.509,19.39,25.1-10.995-1.681-22.089-3.134Q1733.169,885.172,1723.988,872.081Zm42.422,31.454q9.983,12.712,20.332,25.45-11.424-1.125-22.942-2.063-10.019-13.292-19.653-26.582Q1755.33,901.819,1766.41,903.535Zm21.937,27.422q10.47,12.83,21.359,25.625-11.837-.552-23.757-.969-10.566-13.352-20.691-26.762Q1776.852,929.807,1788.347,930.957Zm22.957,27.5q11,12.858,22.461,25.618-12.226.041-24.53.165-11.156-13.327-21.821-26.774Q1799.4,957.892,1811.3,958.458Zm2.824.134q12.228.6,24.371,1.333,11.279,12.131,23.014,24.162-7.537-.028-15.1-.031-4.944,0-9.9.016Q1825.08,971.393,1814.129,958.592Zm27.319,1.508q12.233.75,24.4,1.621,11.534,11.325,23.506,22.549-12.46-.12-24.987-.173Q1852.673,972.16,1841.448,960.1Zm27.5,1.843q12.228.885,24.4,1.873,11.762,10.448,23.933,20.8-12.452-.181-24.956-.31Q1880.418,973.183,1868.95,961.943Zm27.715,2.142q12.205,1,24.367,2.083,11.944,9.5,24.264,18.9-12.421-.226-24.888-.416Q1908.329,974.432,1896.666,964.086Zm27.943,2.4q12.155,1.093,24.282,2.249,12.074,8.492,24.5,16.886-12.365-.257-24.765-.489Q1936.423,975.873,1924.609,966.489Zm28.21,2.625q12.074,1.159,24.13,2.364,12.131,7.424,24.57,14.754-12.262-.272-24.546-.532Q1964.724,977.465,1952.819,969.114Zm28.541,2.8q11.921,1.2,23.84,2.418,12.091,6.307,24.444,12.522l-24.189-.54Q1993.255,979.175,1981.36,971.919Zm24.615.683q-11.211-5.852-22.21-11.762,10.906,2.029,21.839,4.084,11.2,5,22.566,9.959Q2017.067,973.739,2005.975,972.6Zm-5.083-.52q-11.54-1.178-23.082-2.332-11.544-7.07-22.832-14.2,11.32,2.051,22.651,4.153Q1989.15,965.914,2000.892,972.083Zm-50-19.117q-10.738-6.805-21.274-13.626,10.524,2.794,21.068,5.657,10.793,5.951,21.756,11.9Q1961.663,954.91,1950.893,952.966Zm-5.018-.9q-11.181-2-22.369-3.934-10.989-8.018-21.737-16.046,10.913,2.781,21.831,5.663Q1934.63,944.9,1945.875,952.065Zm-47.929-22.837q-10.194-7.63-20.2-15.227,10.1,3.434,20.2,6.983,10.3,6.772,20.766,13.589Q1908.329,931.858,1897.946,929.228Zm-4.923-1.237q-10.76-2.694-21.537-5.269-10.376-8.822-20.528-17.6,10.468,3.373,20.927,6.9Q1882.356,919.976,1893.023,927.99Zm-45.633-25.952q-9.624-8.328-19.081-16.571,9.641,3.939,19.277,8.039,9.784,7.464,19.712,15.027Q1857.35,905.219,1847.39,902.038Zm-4.8-1.521q-10.312-3.25-20.656-6.332-9.75-9.491-19.3-18.885,10.009,3.828,19.991,7.86Q1832.52,891.781,1842.591,900.517Zm-43.251-28.455q-9.045-8.892-17.943-17.65,9.192,4.321,18.364,8.849,9.239,8.017,18.6,16.184Q1808.862,875.664,1799.339,872.062Zm-4.648-1.74q-7.531-2.8-15.088-5.484-2.338-.827-4.679-1.639-9.129-10.027-18.081-19.9,9.56,4.155,19.077,8.563Q1785.232,861.005,1794.692,870.322ZM1753.8,839.941q-8.485-9.346-16.846-18.512,8.762,4.59,17.486,9.428,8.708,8.455,17.518,17.109Q1762.9,843.84,1753.8,839.941Zm-4.485-1.9q-9.417-3.965-18.9-7.659-8.54-10.461-16.933-20.722,8.8,4.208,17.54,8.693c.225.115.45.233.675.349Q1740.442,828.258,1749.313,838.037Zm-38.63-31.793q-7.961-9.71-15.821-19.2,5.055,2.881,10.092,5.866,3.3,1.958,6.595,3.966,8.206,8.795,16.491,17.834Q1719.39,810.345,1710.682,806.245Zm-4.312-2.006q-9.009-4.154-18.1-7.989-7.995-10.81-15.866-21.375,8.75,4.492,17.419,9.328Q1698.046,794.086,1706.37,804.239Zm-36.529-32.788c-.545-.73-1.092-1.463-1.637-2.191q-6.662-8.895-13.259-17.573,8.013,4.866,15.958,10.066,7.753,9.066,15.56,18.424Q1678.191,775.66,1669.842,771.451Zm-4.142-2.064q-4.4-2.168-8.824-4.244-4.061-1.9-8.149-3.721-3.444-5.094-6.867-10.133-4.015-5.9-8-11.722,8.184,4.432,16.275,9.233Q1657.88,758.938,1665.7,769.387Zm-33.244-32.735c-.315-.168-.63-.333-.946-.5q-7.031-10.223-14-20.146,7.458,4.765,14.834,9.875,6.174,7.81,12.37,15.854,1.167,1.513,2.335,3.039Q1639.792,740.57,1632.456,736.652ZM1618.877,721.6q4.317,6.173,8.655,12.47-8.523-4.407-17.177-8.393-7.049-11.341-14.02-22.355,8.347,4.665,16.57,9.785Q1615.887,717.322,1618.877,721.6Zm-10.417-13.465q-7.079-4.249-14.255-8.167-6.669-10.482-13.3-20.623,7.707,5.083,15.3,10.6,6.924,9.4,13.866,19.171C1609.536,708.789,1609,708.456,1608.46,708.133ZM1590.4,697.916c-43.04-22.85-89.01-36.459-141.059-36.456q-3.541,0-7.118.084c-71.509,1.69-137.6,28-200.563,66.411-94.448,57.623-181.987,142.522-270.425,212.97-44.214,35.224-88.645,66.83-134.219,89.611a399.859,399.859,0,0,1-45.249,19.381q-8.816-1.672-17.465-3.378c52.37-21.149,102.629-56.145,152.324-97.115,77.907-64.237,154.436-143.157,235.229-206.423,40.394-31.634,81.848-59.35,125.037-79.367s88.1-32.339,135.467-33.231q2.572-.049,5.122-.049c39.131,0,74.466,8.5,107.619,23.5a326.51,326.51,0,0,1,41.421,22.642Q1583.444,687.006,1590.4,697.916ZM1427.48,628.553q-2.576,0-5.174.049c-72.871,1.375-139.818,29.533-203.345,70.876C1123.669,761.5,1035.93,853.257,947.234,929.461c-44.342,38.1-88.918,72.31-134.733,96.969a391.07,391.07,0,0,1-41.556,19.443q-8.9-1.769-17.633-3.575c51.429-22.906,100.717-59.88,149.435-102.969,78.118-69.1,154.775-153.952,236.076-221.824,40.647-33.936,82.452-63.624,126.14-84.98s89.246-34.386,137.466-35.065q1.76-.026,3.51-.025c39.019,0,73.957,9.209,106.567,25.48a316.682,316.682,0,0,1,48.159,30.047q6.635,9.6,13.264,19.612C1529.758,645.08,1482.274,628.549,1427.48,628.553ZM767.8,1047.1q-.662.254-1.324.5-8.6-1.784-17.025-3.615c.331-.143.663-.284.994-.428Q759.039,1045.348,767.8,1047.1Zm-24.434-2.578c-.495.2-.989.4-1.484.6q-8.4-1.919-16.623-3.9.576-.265,1.15-.531Q734.8,1042.63,743.366,1044.521Zm-21.071-4.016q-8.508-2.072-16.819-4.208c.258-.131.516-.261.774-.392q8.491,2.073,17.17,4.1C723.045,1040.171,722.67,1040.335,722.295,1040.5Zm-19.6-4.927q-8.569-2.222-16.932-4.511l.376-.21q8.544,2.2,17.286,4.355Zm-19.57-5.235q-7.729-2.134-15.283-4.324,7.721,2.093,15.609,4.143ZM680.8,1031.6l-.906.487q-21.3-6.221-41.191-12.981Q659.083,1025.566,680.8,1031.6Zm-3.233,1.718q-.737.386-1.475.767-34.387-10.527-64.812-22.783Q642.582,1022.992,677.571,1033.319Zm-3.826,1.971q-1.015.514-2.031,1.019a689.862,689.862,0,0,1-68.756-25.865q-8.624-3.794-16.914-7.744A797.231,797.231,0,0,0,673.746,1035.289Zm-4.186,4.183q1.19-.574,2.378-1.16,7.412,2.345,15.03,4.586-1.446.623-2.9,1.228-7.466-2.217-14.718-4.556Zm11.81,5.763q-1.694.688-3.393,1.353-7.182-2.149-14.148-4.431,1.556-.709,3.109-1.439Q674.052,1043.034,681.369,1045.236Zm-6.181,2.431q-1.934.731-3.872,1.432-6.9-2.053-13.582-4.252,1.806-.771,3.607-1.574Q668.163,1045.533,675.188,1047.667Zm-62.223-18.119q18.744,8.394,39.482,15.473-2.07.843-4.146,1.648c-35.945-12-66.742-27.688-93.455-46.122q-10.814-7.462-20.751-15.512,2.446.854,4.912,1.7A404.741,404.741,0,0,0,612.966,1029.548ZM524.6,979.713q-2.48-.89-4.941-1.782-1.5-1.43-2.977-2.875,2.417,1,4.857,2Q523.063,978.393,524.6,979.713Zm-16.275-10.207q-2.42-1.035-4.818-2.073-1.4-1.635-2.78-3.289,2.326,1.15,4.677,2.293Q506.856,967.98,508.328,969.507Zm-20.618-18.6q-1.909-1.122-3.8-2.249-1.083-1.676-2.145-3.368,1.8,1.217,3.621,2.429Q486.538,949.323,487.71,950.911Zm-23.948-26.2q-1.6-1.338-3.189-2.68-.761-2-1.5-4.013,1.464,1.412,2.945,2.818Q462.88,922.778,463.762,924.708Zm-9.768-14.5q-1.418-1.416-2.819-2.838-.578-2.123-1.138-4.264,1.271,1.472,2.556,2.941Q453.283,908.14,453.994,910.211Zm-8.314-15.422q-1.221-1.468-2.43-2.939-.393-2.22-.769-4.456,1.08,1.514,2.17,3.023Q445.158,892.61,445.68,894.789Zm-13-43.866q-.576-1.233-1.147-2.468-.015-1.91-.022-3.829.471,1.215.949,2.425Q432.567,848.991,432.682,850.923Zm-3.4-7.384c-20.686-45.664-36.58-93.367-53.017-138.127-22.449-61.1-45.893-116.728-84.184-154.221-21.148-20.7-38.107-35.465-53.2-45.1a114.366,114.366,0,0,0-12.925-7.194q3.687-6.936,7.271-13.584c.564.161,1.13.327,1.7.506,8.974,2.816,18.527,7.857,29.213,15.411s22.5,17.609,36.02,30.418c34.8,32.96,56.383,81.854,74.776,136.982,17.964,53.807,32.9,113.529,54.344,170.173,0,.545-.005,1.094-.005,1.638C429.277,841.476,429.283,842.506,429.286,843.539ZM231.914,470.757q-3.288,5.366-6.659,11.017-2.186-.3-4.355-.427,3.457-5.159,6.82-10.019Q229.813,470.957,231.914,470.757Zm-14.678,12.3q-3.375,5.07-6.849,10.4-2.279-.51-4.548-.849,3.557-4.817,7-9.349C214.3,483.133,215.767,483.061,217.235,483.053Zm-13.763,9.253q-2.18-.237-4.361-.317,3.4-3.978,6.692-7.687,2.1-.442,4.185-.727Q206.778,487.815,203.472,492.306ZM188.2,501.776q-2.292-.483-4.6-.8,3.483-3.565,6.832-6.883c1.494-.156,2.979-.263,4.457-.311Q191.6,497.662,188.2,501.776Zm-1.31,1.584q-3.511,4.254-7.158,8.731-1.579-.674-3.163-1.277-.9-.342-1.8-.658,1.391-1.463,2.76-2.894,2.281-2.384,4.5-4.671Q184.466,502.884,186.889,503.361Zm-15.664,7.571q-3.539,3.738-7.231,7.678-2.566-1.384-5.166-2.588c1.466-1.313,2.918-2.611,4.345-3.876q1.49-1.321,2.95-2.6Q168.693,510.144,171.225,510.932Zm-14.393,4.193c-1.017-.442-2.037-.87-3.066-1.273q-.98-.384-1.969-.742,3.532-2.549,6.906-4.906,2.526.323,4.994.814Q160.337,511.979,156.832,515.125Zm-4.032.349c.838.327,1.671.672,2.5,1.027q-3.531,3.175-7.221,6.524-2.639-1.73-5.335-3.283,2.462-1.826,4.851-3.578,1.2-.878,2.374-1.731C150.919,514.764,151.863,515.107,152.8,515.473Zm-11.919,3.211q-2.57-1.418-5.211-2.68,3.477-1.992,6.792-3.819,2.653.66,5.23,1.485Q144.359,516.1,140.881,518.685Zm-1.681,1.25q-3.48,2.592-7.116,5.33-2.686-2.073-5.445-3.987c1.272-.754,2.534-1.5,3.775-2.227,1.106-.648,2.2-1.281,3.278-1.907Q136.486,518.451,139.2,519.935Zm-16.164,1.255q-3.376,2.016-6.9,4.152-2.708-2.4-5.51-4.64l.52-.236q3.2-1.443,6.257-2.776Q120.269,519.357,123.036,521.19Zm-8.695,5.24q-3.43,2.082-7.01,4.273-2.746-3.03-5.589-5.913,3.505-1.638,6.86-3.17Q111.523,523.94,114.341,526.43Zm-14.015-3.055q-2.174-2.153-4.413-4.222-.543-.5-1.092-.994,3.277-1.047,6.415-1.995,2.908,2,5.707,4.151Q103.7,521.8,100.327,523.374ZM99.8,525.7q2.934,2.96,5.761,6.087-3.444,2.109-7.033,4.311-2.753-3.643-5.6-7.142Q96.436,527.28,99.8,525.7Zm7.069,7.542q2.912,3.275,5.736,6.726-3.577,2.694-7.305,5.485-2.342-3.372-4.741-6.637c-.29-.393-.581-.782-.872-1.172Q103.353,535.395,106.865,533.244Zm6.977,8.249q2.888,3.578,5.715,7.335-3.687,3.294-7.529,6.689-2.782-4.3-5.619-8.445Q110.206,544.232,113.843,541.493Zm6.917,8.939q2.874,3.863,5.715,7.9-3.774,3.9-7.708,7.912-2.808-4.6-5.646-9.035Q117.022,553.771,120.759,550.432Zm6.9,9.6q2.872,4.122,5.743,8.422-3.847,4.526-7.85,9.156-2.851-4.865-5.7-9.574Q123.837,563.979,127.658,560.029Zm6.928,10.2q2.888,4.351,5.806,8.88-3.9,5.153-7.953,10.412-2.914-5.1-5.793-10.045Q130.7,574.8,134.587,570.232Zm7,10.739q2.921,4.544,5.9,9.26-3.936,5.787-8.02,11.677-3-5.29-5.922-10.433Q137.651,586.171,141.591,580.971Zm7.128,11.192q1.436,2.27,2.892,4.575l3.145,4.981q-3.952,6.418-8.046,12.939-3.095-5.433-6.088-10.727Q144.747,598,148.719,592.163Zm7.3,11.547q3.039,4.807,6.194,9.764-3.948,7.044-8.029,14.188-3.207-5.526-6.283-10.922Q152.027,610.176,156.014,603.71Zm4.269,17.52q1.623-2.87,3.224-5.723c15.773,24.672,34.11,52.059,58.353,81.668,53.2,64.973,109.888,147.815,211.4,220.64q.438,3.624.939,7.183C326.523,857.91,265.166,781.5,213.943,716.893c-24.43-30.807-42.776-60.081-58.53-87.11Q157.872,625.49,160.283,621.23ZM445.691,934.26q2.985,1.778,6.017,3.547.955,3.17,1.966,6.287-3.237-1.638-6.427-3.285Q446.44,937.565,445.691,934.26Zm8.8,5.165q2.943,1.7,5.929,3.391,1.134,2.923,2.319,5.8-3.18-1.564-6.316-3.135Q455.431,942.481,454.495,939.425Zm8.927,5.08q2.886,1.618,5.812,3.225,1.283,2.668,2.612,5.294-3.1-1.48-6.157-2.969Q464.529,947.305,463.421,944.505Zm13.056,12.8q3.121,1.464,6.285,2.92,1.526,2.443,3.1,4.844-3.312-1.32-6.581-2.648Q477.858,959.88,476.478,957.3Zm11.194,10.486c16.823,25,37.688,46.646,64.128,63.449a225.528,225.528,0,0,0,59.778,26.417q-2.932.615-5.876,1.144a207.1,207.1,0,0,1-44.626-16.013,181.418,181.418,0,0,1-59.269-47.3,220.731,220.731,0,0,1-21.044-30.461Q484.2,966.411,487.671,967.788Zm91.264,75.978a206.573,206.573,0,0,1-64.47-45.783,232.548,232.548,0,0,1-23.329-28.833q3.321,1.3,6.681,2.6,2.085,2.641,4.235,5.233a239.478,239.478,0,0,0,82.206,64.191,267.688,267.688,0,0,0,36.854,14.258c-1.9.487-3.8.954-5.706,1.389A237.569,237.569,0,0,1,578.936,1043.766Zm45.551,12.672q5.011,1.468,10.191,2.79-2.683.513-5.375.957-5.162-1.11-10.143-2.381Q621.828,1057.153,624.487,1056.439Zm3.369-.936q2.6-.744,5.2-1.545,5.457,1.7,11.095,3.252-2.642.622-5.293,1.18Q633.259,1057.029,627.856,1055.5Zm23.628,1.75q2.395-.639,4.781-1.331,5.554,1.548,11.277,2.966-2.438.528-4.885,1Q656.981,1058.644,651.484,1057.253Zm24.011,1.66q2.2-.548,4.391-1.138,5.621,1.413,11.392,2.715-2.23.445-4.467.849Q681.072,1060.187,675.494,1058.913Zm24.394,1.583q2.011-.47,4.018-.968,5.688,1.3,11.512,2.5-2.026.372-4.057.714Q705.551,1061.676,699.888,1060.5Zm32.647-.3q1.783-.442,3.564-.909,6.24,1.349,12.615,2.618c-1.221.245-2.443.487-3.667.716Q738.719,1061.457,732.535,1060.2Zm20.8,2.611q5.794,1.118,11.7,2.171c-1.12.174-2.242.345-3.364.505q-5.911-.948-11.7-1.973Q751.654,1063.17,753.334,1062.81Zm17.139,3.124q5.164.885,10.416,1.717c-.914.1-1.828.2-2.744.292q-5.32-.734-10.544-1.53Q769.039,1066.18,770.473,1065.933Zm23.38,1.852q1.283-.194,2.565-.4,5.17.834,10.417,1.626-1.206.12-2.412.232Q799.095,1068.543,793.853,1067.786Zm26.817,1.4q1.152-.161,2.3-.329,5.181.794,10.432,1.553-1.072.1-2.144.185Q825.926,1069.91,820.67,1069.185Zm27.482,1.445q1.045-.133,2.089-.275,5.2.764,10.458,1.5-.967.076-1.935.146Q853.423,1071.332,848.152,1070.63Zm28.235,1.516c.641-.074,1.281-.155,1.922-.232q5.25.746,10.559,1.47c-.6.041-1.2.076-1.8.114Q881.693,1072.836,876.387,1072.146Zm31.029,1.432q5.309.737,10.674,1.457c-.573.031-1.146.06-1.719.089q-5.424-.665-10.79-1.353C906.193,1073.708,906.8,1073.642,907.416,1073.578Zm38.222,1.048c40.163-4.234,79.676-12.706,118.824-23.769,85.649-24.208,169.569-60.815,254.794-92.672s171.736-58.965,262.526-64.252q24.132-1.406,47.483-1.381a853.207,853.207,0,0,1,86.217,4.438q9.349,13.938,19.091,27.9c-21.569-1.244-43.441-1.929-65.706-1.929q-33.047,0-67.329,2.12c-117.688,7.469-229.279,45.6-340.42,81.813-99.807,32.526-199.245,63.5-302.354,69.472Q952.164,1075.5,945.638,1074.625ZM1718.2,897.265q11.614,1.211,23.1,2.7,9.674,13.353,19.725,26.732-11.837-.935-23.788-1.653Q1727.522,911.155,1718.2,897.265Zm44.277,31.357q10.163,13.466,20.755,26.9-12.254-.407-24.613-.648-10.259-13.943-20.068-27.944Q1750.575,927.662,1762.479,928.623Zm22.219,28.745q10.7,13.5,21.881,26.9-12.657.14-25.4.381-10.85-13.918-21.2-27.955Q1772.386,956.953,1784.7,957.368Zm23.372,28.686q11.282,13.454,23.1,26.746-13.046.71-26.169,1.457-11.5-13.824-22.442-27.83Q1795.36,986.188,1808.07,986.054Zm2.669-.026q12.366-.122,24.653-.155,11.567,12.8,23.658,25.442-12.6.658-25.264,1.342Q1821.988,999.435,1810.738,986.029Zm27.4-.16q4.14-.009,8.277-.013,8.449,0,16.862.038,11.831,12.064,24.172,23.963-12.826.649-25.72,1.318Q1849.671,998.615,1838.141,985.869Zm27.988.036q12.616.059,25.167.187,12.067,11.253,24.621,22.343-12.82.636-25.7,1.283Q1877.916,997.9,1866.128,985.9Zm28.148.218q12.611.133,25.168.32,12.271,10.372,25,20.581-12.806.632-25.665,1.267Q1906.281,997.3,1894.276,986.123Zm28.305.367q12.6.193,25.149.428,12.432,9.426,25.288,18.694-12.774.635-25.594,1.266Q1934.769,996.776,1922.582,986.49Zm28.484.49q12.558.238,25.081.5,12.547,8.424,25.485,16.694-12.72.647-25.482,1.281Q1963.389,996.309,1951.065,986.98Zm28.682.579q12.491.265,24.96.544,12.6,7.372,25.555,14.593-12.635.666-25.3,1.311Q1992.155,995.869,1979.747,987.559Zm28.908.632,24.755.553q12.576,6.275,25.459,12.409-12.5.691-25.022,1.354Q2021.076,995.43,2008.655,988.19Zm29.193.651q12.2.269,24.405.524,11.324,4.683,22.86,9.259c.762.3,1.528.6,2.292.9q-12.291.721-24.6,1.407Q2050.175,994.964,2037.848,988.841Zm29.568.63q11.9.243,23.812.46,4.875,1.6,9.781,3.185,7.342,2.368,14.761,4.69-11.962.75-23.935,1.459Q2079.5,994.438,2067.416,989.471Zm30.093.57q11.407.2,22.829.358,11.649,2.842,23.45,5.583-11.429.773-22.866,1.5Q2109.117,993.821,2097.509,990.041Zm15.044-1.555q-10.436-.158-20.86-.347-10.71-3.52-21.272-7.119,10.36,1.045,20.75,2.067Q2101.806,985.819,2112.553,988.486Zm-57.669-10.858q-10.279-1.051-20.54-2.109-10.453-4.521-20.754-9.094l13.86,2.6,6.4,1.2Q2044.3,973.95,2054.884,977.628Zm-48.476-14.4q-8.439-3.771-16.787-7.558l16.217,4.477q8.528,3.1,17.125,6.191Q2014.676,964.782,2006.409,963.229Zm-7.892-1.48q-10.006-1.874-19.992-3.727-10.083-5.44-20.015-10.9,9.775,2.666,19.584,5.369Q1988.243,957.124,1998.516,961.749Zm-54.555-20.467q-9.65-2.6-19.285-5.142-9.628-6.248-19.112-12.472,9.374,3.318,18.778,6.711Q1934.093,935.813,1943.962,941.282ZM1891.591,916.8q-9.248-3.211-18.491-6.326-9.131-6.938-18.132-13.812,8.944,3.851,17.905,7.813Q1882.178,910.6,1891.591,916.8Zm-49.969-27.845q-8.819-3.7-17.642-7.261-8.616-7.507-17.12-14.908,8.512,4.266,17.028,8.685Q1832.71,882.156,1841.622,888.958Zm-47.434-30.525q-8.4-4.075-16.818-7.977-8.106-7.963-16.119-15.781,8.085,4.57,16.16,9.324Q1785.763,851.134,1794.188,858.433Zm-44.922-32.584q-8-4.349-16.039-8.493-5.855-6.4-11.666-12.688-1.763-1.907-3.522-3.8,7.7,4.79,15.382,9.807Q1741.316,818.16,1749.267,825.849Zm-52.174-44.3q4.816,5.049,9.65,10.2-7.631-4.535-15.309-8.824-7.2-8.647-14.34-17.068,1.167.784,2.335,1.572,6.185,4.189,12.342,8.564Q1694.43,778.754,1697.093,781.547Zm-30.61-24.944q-7.31-4.659-14.682-9.042-6.805-8.9-13.57-17.541,7.05,5.025,14.046,10.341Q1659.37,748.341,1666.483,756.6Zm-38.207-35.842q-6.793-4.571-13.66-8.854-6.407-9.057-12.792-17.821,6.5,4.871,12.937,10.038Q1621.517,712.284,1628.276,720.76Zm-35.835-35.9q-3.815-2.683-7.656-5.266-3.254-2.181-6.53-4.283-6.133-9.309-12.262-18.29,6.905,5.348,13.716,11.087Q1586.082,676.308,1592.441,684.856Zm-35.232-36.87c-45.078-32.582-93.839-52.356-151.27-52.352q-1.769,0-3.549.025c-37.1.522-72.614,8.288-106.845,21.455-59.906,23.044-115.913,62.609-169.921,108.963C1044.62,795.611,968.1,880.451,889.956,947.859c-39.069,33.7-78.54,63.046-119.134,83.941q-10.289,5.3-20.676,9.842-8.987-1.871-17.792-3.781c50.5-24.642,98.845-63.508,146.612-108.619C957.28,855.269,1034.045,764.479,1115.838,692c40.893-36.241,83.038-67.9,127.218-90.593s90.376-36.428,139.445-36.887q1.077-.01,2.15-.01c38.892,0,73.423,9.916,105.48,27.458,19,10.4,37.121,23.485,54.722,38.769Q1551.046,639.166,1557.209,647.987Zm-830.531,390.5c-.189.089-.379.175-.568.264q-8.789-2.036-17.383-4.124l.214-.111Q717.718,1036.521,726.678,1038.487Zm-20.762-4.545q-3.888-.952-7.736-1.914,3.93.92,7.9,1.833ZM601.9,1012.026a691.133,691.133,0,0,0,67.425,25.456c-.857.416-1.713.834-2.571,1.241a584.2,584.2,0,0,1-75.857-30.681q-11.211-5.5-21.8-11.332l1.342.428Q585.606,1004.841,601.9,1012.026Zm62.411,27.834q-1.559.722-3.122,1.421a498.168,498.168,0,0,1-82.331-35.69q-11.3-6.2-21.87-12.8c.974.32,1.953.64,2.931.959A566.916,566.916,0,0,0,664.309,1039.861Zm-120.981-53.6q-1.559-.532-3.111-1.067-1-.736-2-1.477,1.574.614,3.158,1.226Q542.35,985.608,543.328,986.265Zm-17.176-9.343q-1.636-.663-3.264-1.329c-.7-.614-1.39-1.233-2.082-1.851q1.62.75,3.251,1.5Q525.1,976.081,526.152,976.923ZM518.3,970.5q-1.1-.516-2.2-1.033c-.47-.435-.934-.874-1.4-1.311q1.1.583,2.209,1.166C517.368,969.713,517.829,970.108,518.3,970.5Zm-8.121-3.854q-1.641-.789-3.271-1.581-1.036-1.105-2.058-2.221,1.6.879,3.213,1.754C508.761,965.282,509.464,965.966,510.174,966.646Zm-7.04-6.926q-1.126-.624-2.246-1.252c-.487-.548-.968-1.1-1.451-1.65q1.1.689,2.2,1.375C502.134,958.7,502.632,959.213,503.134,959.72Zm-13.844-11.738q-1.094-.722-2.183-1.445-.713-.991-1.422-1.984,1.048.784,2.1,1.566Q488.533,947.053,489.289,947.983Zm-18.38-22.009c.193.314.389.624.582.936l-.949-.867c-.219-.405-.435-.813-.652-1.22.281.289.564.577.846.866C470.795,925.784,470.851,925.88,470.909,925.974Zm-5.114-4.333q-.918-.862-1.828-1.727c-.361-.815-.716-1.634-1.072-2.453q.827.889,1.661,1.773Q465.172,920.44,465.795,921.64Zm-9.583-14.582c-.526-.594-1.056-1.189-1.579-1.785-.288-.873-.57-1.752-.854-2.629q.7.912,1.407,1.822Q455.694,905.766,456.211,907.059Zm-8.131-15.477q-.662-.9-1.319-1.811-.314-1.361-.62-2.73c.382.606.762,1.214,1.147,1.818Q447.68,890.223,448.08,891.582Zm-13.237-44.413-.176-.449c-.021-.4-.041-.794-.062-1.191.032.1.064.2.1.294Q434.772,846.5,434.843,847.168Zm-2.737-7.067q-.3-.787-.6-1.575,0-1.334.009-2.672.231.738.464,1.475Q432.04,838.717,432.106,840.1Zm-2.665-18.654c-11.176-38.026-20.092-77.229-29.386-115.057-9.762-39.718-19.947-77.921-33.646-111.672s-30.911-63.056-54.792-84.954c-15.512-14.22-28.884-24.454-41.051-31.161a86.521,86.521,0,0,0-17.474-7.456A60.449,60.449,0,0,0,242.152,469q3.453-6.213,6.829-12.1a48.8,48.8,0,0,1,5.812-.348c9.095,0,18.667,2.526,29.325,8.017s22.358,13.938,35.623,25.7c18.552,16.445,32.9,37.582,44.436,62.029,20.191,42.78,31.755,95.673,42.351,151.128,7.273,38.043,14.091,77.289,22.955,115.321C429.468,819.647,429.455,820.546,429.441,821.447ZM248.2,445.389q-.988.481-1.973,1,2.053-2.527,4.087-4.9.674-.56,1.346-1.1Q249.942,442.835,248.2,445.389Zm-2.232,3.306q-2.6,3.888-5.235,7.992-1.634.451-3.26,1,2.789-3.755,5.531-7.259Q244.493,449.518,245.973,448.7ZM233.9,459.031q-1.109.453-2.216.949,2.171-2.461,4.313-4.763.817-.61,1.631-1.195Q235.776,456.472,233.9,459.031Zm-2.181,3q-2.7,3.749-5.452,7.714-1.741.34-3.476.789,2.9-3.578,5.734-6.908Q230.128,462.78,231.721,462.032Zm-12.387,9.506c-.119.038-.238.074-.356.113-.713.233-1.426.482-2.139.742q2.293-2.35,4.546-4.537.977-.637,1.949-1.239Q221.348,469.02,219.334,471.538Zm-2.153,2.71q-2.8,3.555-5.669,7.32c-1.242.131-2.484.306-3.728.516q3.009-3.342,5.936-6.441Q215.458,474.89,217.181,474.247Zm-12.728,8.492q-1.395.312-2.793.685,2.4-2.174,4.757-4.189,1.164-.637,2.32-1.232Q206.615,480.313,204.453,482.739Zm-2.124,2.4q-2.9,3.3-5.887,6.811-1.992.013-3.992.154,3.108-3.036,6.116-5.84Q200.46,485.644,202.33,485.14Zm-15.2,9.378q-2.984,2.978-6.068,6.15-2.118-.214-4.258-.3,3.188-2.659,6.255-5.1Q185.116,494.83,187.134,494.518ZM171.6,502.163q-3.042,2.592-6.194,5.354-2.238-.481-4.512-.832,3.222-2.217,6.314-4.244Q169.431,502.236,171.6,502.163Zm-15.841,5.722q-3.05,2.145-6.219,4.441-2.339-.778-4.737-1.421,3.2-1.734,6.262-3.3Q153.446,507.681,155.761,507.885Zm-16.081,3.66q-3.006,1.672-6.133,3.472c-1.411-.636-2.836-1.246-4.285-1.818-.2-.077-.4-.148-.591-.225q3.107-1.238,6.082-2.341Q137.257,511.024,139.68,511.545Zm-16.192,1.522q-2.9,1.2-5.93,2.516-2.426-1.374-4.93-2.64,2.948-.769,5.774-1.431Q120.99,512.23,123.488,513.067Zm-8.122,3.469q-3.137,1.376-6.4,2.855-2.618-2.034-5.331-3.943,3.175-.935,6.214-1.763Q112.659,515.041,115.365,516.537Zm-13.682-2.427q-2.4-1.624-4.9-3.148c1.83-.24,3.619-.446,5.379-.63l.329.127q2.44.966,4.793,2.031Q104.537,513.258,101.683,514.109Zm-2.408.727q-2.965.906-6.048,1.9-2.59-2.281-5.285-4.447c1.97-.329,3.908-.636,5.8-.909Q96.565,513.044,99.276,514.836Zm-15.883-3.6q-2.767.5-5.64,1.075-2.536-2.472-5.174-4.845,2.724-.131,5.349-.2Q80.717,509.2,83.392,511.238Zm-12.738-5.471q-2.244-1.951-4.57-3.83,2.228.236,4.386.52,2.5,1.5,4.9,3.092Q73.051,505.633,70.654,505.767Zm-.917,1.853q2.868,2.527,5.614,5.173c-1.911.392-3.867.812-5.848,1.248q-2.617-3.069-5.348-6.03Q67,507.783,69.737,507.62Zm7.186,6.712q2.927,2.893,5.73,5.922-3.1,1.064-6.324,2.2-2.69-3.48-5.5-6.839Q73.935,514.937,76.923,514.331Zm7.087,7.411c.52.574,1.044,1.145,1.558,1.726q2.133,2.412,4.2,4.907l-.8.382q-2.9,1.389-5.9,2.84-2.724-3.866-5.562-7.6Q80.826,522.83,84.009,521.742Zm7,8.132q2.923,3.579,5.741,7.317-3.433,2.106-7,4.293-2.738-4.23-5.578-8.318Q87.658,531.477,91.006,529.874Zm6.9,8.865q2.9,3.9,5.717,7.971-3.557,2.657-7.262,5.4-2.516-4.191-5.1-8.264c-.158-.249-.319-.5-.477-.744Q94.415,540.878,97.9,538.739Zm6.827,9.59q2.883,4.215,5.7,8.6-3.664,3.227-7.477,6.541-2.765-4.9-5.587-9.664Q101.125,551.021,104.73,548.328Zm6.791,10.3q2.874,4.507,5.716,9.179-3.755,3.812-7.66,7.711-2.8-5.212-5.626-10.276Q107.813,561.888,111.521,558.625Zm6.8,10.964q2.884,4.773,5.766,9.712-3.831,4.413-7.812,8.913-2.85-5.491-5.7-10.84Q114.523,573.437,118.318,569.589Zm6.858,11.584q2.91,5.005,5.854,10.172-3.893,5.029-7.932,10.146-2.927-5.733-5.816-11.328Q121.307,585.624,125.176,581.172Zm6.967,12.124q2.959,5.2,5.985,10.551-3.936,5.656-8.02,11.4-3.024-5.93-5.975-11.728Q128.214,598.365,132.143,593.3Zm7.129,12.571,1.428,2.521q2.332,4.113,4.726,8.314-3.963,6.29-8.069,12.667-3.143-6.072-6.177-12.024Q135.3,611.565,139.273,605.868Zm7.338,12.91q3.11,5.439,6.349,11.013-.437.763-.874,1.526-3.546,6.173-7.2,12.413-3.276-6.155-6.411-12.2Q142.615,625.111,146.611,618.778Zm7.585,13.13c15.6,26.687,33.785,55.574,57.878,85.959,51.5,64.946,113.407,142.077,222.466,209.621.355,2.435.738,4.841,1.136,7.231C320.292,872.852,253.7,802.125,204.174,737.607c-24.326-31.69-42.533-62.561-58.116-91.68Q150.193,638.878,154.2,631.908ZM447.866,943.26q3.3,1.693,6.647,3.377,1.066,3.184,2.195,6.309-3.558-1.543-7.06-3.095Q448.724,946.589,447.866,943.26Zm9.426,4.767q3.257,1.622,6.561,3.236,1.248,2.941,2.555,5.829-3.5-1.474-6.946-2.958Q458.346,951.112,457.292,948.027Zm85.932,93.746c-22.226-12.243-39.889-28.862-54.061-48.836a214.366,214.366,0,0,1-18.648-32.1q3.507,1.456,7.067,2.9c14.756,26.1,33.571,48.658,58.089,66.06,18.413,13.071,40.047,23.211,65.531,29.761q-2.881.456-5.774.834A180.839,180.839,0,0,1,543.224,1041.773Zm66.887,18.038q2.623-.524,5.237-1.113,4.439,1.19,9.023,2.251c-1.717.244-3.436.475-5.159.679Q614.584,1060.791,610.111,1059.811Zm24.009,1.373c1.573-.293,3.144-.6,4.711-.924q4.44,1.07,9,2.034-2.285.294-4.578.537Q638.62,1062.067,634.121,1061.183Zm24.345,1.331q2.093-.364,4.179-.766,4.416.963,8.933,1.844-1.992.23-3.987.426Q662.969,1063.316,658.465,1062.514Zm24.676,1.3q1.822-.3,3.639-.621c2.935.585,5.912,1.138,8.911,1.673q-1.718.179-3.44.337Q687.644,1064.548,683.142,1063.811Zm25.016,1.279q1.593-.243,3.183-.506,4.353.8,8.781,1.541-1.453.136-2.908.256Q712.639,1065.772,708.158,1065.09Zm28.121.866q4.322.737,8.716,1.423c-.813.068-1.628.129-2.444.19q-4.546-.573-9.008-1.209Q734.912,1066.164,736.28,1065.956Zm5.568-.908q1.609-.28,3.214-.579,5.148.946,10.383,1.834c-1.027.125-2.054.247-3.083.36Q747.051,1065.893,741.848,1065.048Zm19.786,2.271q4.282.684,8.634,1.323c-.662.05-1.326.089-1.99.135q-4.511-.546-8.949-1.142Q760.482,1067.482,761.634,1067.319Zm16.5,2.443c1.4.192,2.794.386,4.2.572q-2.443-.246-4.864-.507Zm25.988,1.329.267-.025c.713.094,1.435.184,2.151.277Q805.325,1071.217,804.119,1071.09Zm154.542,7.083q4.076.532,8.181,1.058l-.533,0c-.739-.085-1.477-.167-2.216-.254q-3.2-.373-6.382-.752Zm9.39-.608c100.286-7.238,197.007-37.435,293.895-69,111.164-36.227,222.561-74.26,339.765-81.689,22.823-1.448,45.18-2.114,67.156-2.114,22.714,0,45.02.715,67.019,2.01q9.836,14.043,20.115,28.048-15.243-.277-30.661-.284c-33.86,0-68.406,1.05-103.887,3.488-113.041,7.766-221.8,38.106-330.44,66.47-102.767,26.837-205.413,51.9-311.424,54.529Q973.793,1078.3,968.051,1077.566Zm323.642-51.36c108.663-28.377,217.273-58.655,329.946-66.391,35.413-2.432,69.9-3.481,103.7-3.481q16.1,0,32,.311,10.376,14.081,21.246,28.061c-44.712.89-90.311,2.786-137.221,6.258-107.136,7.93-211.732,30.6-316.506,51.267s-209.72,39.342-317.548,39.34q-3.484,0-6.971-.029-4.561-.54-9.125-1.1C1093.515,1076.355,1192.629,1052.071,1291.693,1026.206Zm33.692,17.774c104.805-20.677,209.3-43.314,316.182-51.223,47.315-3.5,93.3-5.4,138.4-6.278q10.967,14.043,22.479,27.924c-46.206,2.647-93.167,5.693-141.164,9.5-197.148,15.665-390.434,60.964-591.113,60.957q-24.448,0-49.047-.938-2.651-.3-5.3-.6C1120.974,1082.383,1223.33,1064.112,1325.385,1043.979Zm-255.218,42.684c201.094-.007,394.455-45.337,591.329-60.966,48.408-3.845,95.77-6.911,142.373-9.574q11.567,13.879,23.726,27.534-72.2,6.884-146.4,13.191c-166.569,13.97-333.985,33.757-505.263,33.755-43.091,0-86.426-1.254-130.054-4.166Q1058.04,1086.665,1070.167,1086.663Zm736.26-70.685q13.175-.749,26.272-1.459,11.854,13.261,24.293,26.3-13.405,1.315-26.876,2.6Q1817.973,1029.819,1806.427,1015.978Zm28.888-1.6q12.725-.688,25.382-1.345,12.109,12.587,24.79,24.947-12.935,1.308-25.927,2.584Q1847.142,1027.593,1835.315,1014.377Zm28.064-1.485q12.961-.672,25.857-1.322,12.338,11.829,25.229,23.432-13.154,1.373-26.362,2.712Q1875.451,1025.428,1863.38,1012.892ZM1892,1011.43q12.96-.652,25.86-1.29,12.535,11,25.6,21.784-13.132,1.418-26.316,2.8Q1904.291,1023.2,1892,1011.43Zm28.724-1.432q12.951-.641,25.848-1.275,12.7,10.117,25.894,20.012-13.1,1.466-26.251,2.892Q1933.2,1020.937,1920.725,1010Zm28.836-1.423q12.93-.637,25.813-1.277,4.141,2.965,8.326,5.91,8.773,6.163,17.767,12.221-13.053,1.516-26.155,2.988Q1962.181,1018.618,1949.561,1008.576Zm28.954-1.433q12.893-.642,25.745-1.3,4.576,2.9,9.2,5.786,8.408,5.228,17,10.366-12.99,1.568-26.026,3.087Q1991.236,1016.232,1978.515,1007.143Zm29.083-1.467q12.831-.656,25.627-1.333,5.113,2.828,10.282,5.629,7.889,4.269,15.922,8.459-12.9,1.62-25.854,3.189Q2020.369,1013.761,2007.6,1005.676Zm29.229-1.523q12.739-.679,25.451-1.385,2.091.987,4.189,1.971,10.816,5.061,21.871,9.988-12.78,1.672-25.6,3.286Q2049.589,1011.189,2036.827,1004.153Zm29.405-1.606q12.6-.707,25.171-1.45,12.734,4.977,25.756,9.783-12.607,1.719-25.254,3.377Q2078.9,1008.5,2066.232,1002.547Zm29.628-1.715q12.374-.741,24.736-1.524,12.5,3.869,25.228,7.583-12.357,1.756-24.749,3.451Q2108.323,1005.678,2095.86,1000.832Zm29.921-1.856q12.038-.775,24.071-1.6,12.1,2.762,24.375,5.389-11.981,1.776-23.988,3.491Q2137.9,1002.7,2125.782,998.976Zm30.391-2.037q11.492-.8,22.984-1.658,11.439,1.683,23,3.256-11.378,1.757-22.78,3.461Q2167.693,999.535,2156.173,996.939Zm31.27-2.283q10.538-.8,21.079-1.659,10.3.679,20.676,1.277-10.354,1.665-20.724,3.285Q2197.9,996.158,2187.442,994.656Zm-32.26-5.681q-2.7-.019-5.393-.045-2.767-.443-5.529-.891Q2149.714,988.515,2155.182,988.975Zm-57.9-7.1q-2.822-.274-5.638-.553-2.881-.741-5.754-1.484Q2091.579,980.861,2097.286,981.874Zm-57.08-12.3-5.652-1.059q-2.883-1.026-5.759-2.054Q2034.49,968.02,2040.206,969.575Zm-55.68-17.21L1979,950.843q-2.8-1.277-5.59-2.555Q1978.958,950.324,1984.526,952.364ZM1930.69,930.7q-2.634-.954-5.267-1.9l-5.312-2.963Q1925.39,928.256,1930.69,930.7Zm-51.611-25.521q-2.481-1.1-4.959-2.2l-5-3.288Q1874.091,902.42,1879.079,905.177Zm-49.123-28.683q-2.348-1.227-4.694-2.443-2.357-1.785-4.707-3.561Q1825.248,873.471,1829.955,876.494Zm-46.6-31.2q-2.231-1.328-4.463-2.642-1.594-1.362-3.186-2.72l-1.275-1.083Q1778.894,842.046,1783.36,845.294Zm-44.108-33.11q-2.14-1.414-4.281-2.813-2.133-2.022-4.263-4.029Q1734.978,808.731,1739.252,812.185ZM1697.6,777.761q-2.106-1.517-4.214-3.013-2.1-2.178-4.192-4.335Q1693.4,774.046,1697.6,777.761Zm-39.479-35.4q-2.081-1.609-4.168-3.193-2.067-2.325-4.135-4.627Q1653.975,738.4,1658.122,742.365Zm-37.439-35.982q-2.1-1.718-4.2-3.406-2.07-2.5-4.141-4.967Q1616.519,702.134,1620.683,706.383Zm-35.634-36.341q-1.787-1.536-3.579-3.047-1.77-2.279-3.543-4.531Q1581.495,666.2,1585.048,670.042Zm-32.954-35.562q-2.719-2.447-5.453-4.833-2.611-3.554-5.231-7.038Q1546.777,628.4,1552.094,634.479Zm-720.5,274.6c78.673-83.735,155.62-186.425,238.361-268.132,41.367-40.853,84.179-76.454,129.329-101.817s92.61-40.491,143.365-40.491c38.608,0,72.3,11.323,103.231,31.4,25.49,16.547,49.063,39.062,71.824,66.046-.836-.766-1.671-1.539-2.511-2.294-22.087-19.884-45.209-35.884-70.188-46.921a198.192,198.192,0,0,0-81.245-17.1q-.6,0-1.2,0c-38.43.144-75.025,8.634-110.13,23.348-61.438,25.753-118.358,70.545-172.963,123.216-81.9,79.008-158.6,175.779-237.151,252.749-39.273,38.484-79.008,72.013-120.033,95.892q-6.831,3.976-13.71,7.582-9.105-2.084-18.009-4.208C739.217,1000.32,785.7,957.916,831.591,909.074ZM407.774,644.355c-6.363-36.532-14.373-70.968-26.357-101.058s-27.947-55.84-50.27-74.96c-11.515-9.861-21.95-17.021-31.692-21.734s-18.811-6.974-27.52-6.974A50.508,50.508,0,0,0,258,441.6q3-4.941,5.968-9.578,1.795-.983,3.593-1.826a48.378,48.378,0,0,1,20.75-4.815c7.436,0,15.241,1.793,23.679,5.631s17.483,9.725,27.335,17.868c19.78,16.345,34.431,38.1,45.5,63.719,19.372,44.821,27.747,101.412,33.658,161.175,3.872,39.1,6.69,79.551,10.872,118.976C421.557,743.071,416.06,691.935,407.774,644.355Zm7.68-16.408c-5.1-37.822-12.217-73.359-23.809-104.214s-27.664-57.04-50.733-76.109c-9.953-8.225-19.146-14.222-27.834-18.177s-16.882-5.863-24.767-5.862a51.029,51.029,0,0,0-21.861,5.056c-.144.068-.288.139-.432.207q2.6-3.982,5.169-7.715a72.932,72.932,0,0,1,10.954-7,47.413,47.413,0,0,1,21.883-5.551,53.408,53.408,0,0,1,21.184,4.715c7.472,3.207,15.4,8.118,23.908,14.891,20.423,16.266,35.248,38.313,46.1,64.491C414.206,538.492,421,596.911,424.563,658.82c2.133,36.981,3.124,75.207,4.9,112.751C424.864,723.2,421.646,673.888,415.454,627.947Zm7.748-16.5c-3.837-39.105-10.068-75.731-21.279-107.337s-27.409-58.207-51.249-77.2c-8.613-6.86-16.7-11.881-24.425-15.2a56.035,56.035,0,0,0-22.225-4.924,50.028,50.028,0,0,0-23.069,5.829,69.585,69.585,0,0,0-6.415,3.75q1.858-2.586,3.706-5.034a86.13,86.13,0,0,1,18-13.852,46.551,46.551,0,0,1,22.9-6.31,49.956,49.956,0,0,1,18.881,3.94A90.965,90.965,0,0,1,358.909,407.5c16.383,12.559,29.1,28.824,38.949,47.992,14.776,28.749,23.089,64.018,27.691,102.952s5.5,81.532,5.5,124.956c0,22.026-.229,44.262-.325,66.344C428.813,702.94,427.534,655.61,423.2,611.448ZM294.721,392.328a78.007,78.007,0,0,1,19.251-14.209,43.872,43.872,0,0,1,19.772-4.882,46.552,46.552,0,0,1,16.759,3.285,78.209,78.209,0,0,1,18.2,10.293,128.9,128.9,0,0,1,34.262,38.393c13.562,22.737,22.117,50.431,27.268,81.4s6.905,65.2,6.9,101.009c0,38.754-2.052,79.356-4.059,119.684.1-14.649.2-29.315.2-43.893,0-57.926-1.6-114.434-11.475-162.856-4.941-24.211-11.953-46.4-21.892-65.744S377.1,418.972,360.436,406.2a93.184,93.184,0,0,0-21.412-12.7,52.614,52.614,0,0,0-19.875-4.131A49.146,49.146,0,0,0,294.989,396a75.169,75.169,0,0,0-9.672,6.472Q290.024,396.907,294.721,392.328ZM182.154,493.467l-.228.182-.186.04Zm-15.276,6.854.1-.039-.673.437c-.178.018-.356.034-.535.053C166.14,500.621,166.511,500.467,166.877,500.32ZM151.4,505.309c-.311.156-.625.317-.938.476-.266-.006-.533-.01-.8-.014Q150.537,505.532,151.4,505.309Zm-15.9,3.076c-.339.123-.683.25-1.025.376-.3-.044-.6-.083-.894-.125Q134.551,508.5,135.5,508.384Zm-17.19,1.042c.328,0,.65.007.976.009l-.843.194c-.25-.067-.5-.131-.754-.2C117.9,509.432,118.109,509.426,118.314,509.426Zm-3.694,1.123q-2.227.555-4.52,1.17-1.939-.914-3.933-1.765,2.213-.182,4.352-.3C111.907,509.928,113.272,510.23,114.62,510.549Zm-11.653-2.117c-.143.014-.29.031-.434.046l-.405-.157C102.41,508.356,102.687,508.4,102.967,508.432Zm-4.544.505q-2.036.247-4.126.539-1.854-1.076-3.759-2.1,1.942.084,3.829.212Q96.426,508.232,98.422,508.938ZM82.34,505.413q-1.781.005-3.608.044-1.723-1.175-3.493-2.307,1.619.26,3.2.55Q80.417,504.532,82.34,505.413ZM66.5,500.166q-1.5-.16-3.028-.3-1.537-1.19-3.108-2.35,1.281.347,2.536.711Q64.722,499.179,66.5,500.166ZM50.98,493.412q-1.2-.249-2.425-.486-1.324-1.137-2.678-2.252c.638.238,1.27.482,1.9.726Q49.4,492.392,50.98,493.412ZM31.781,482.8q.613.287,1.219.578,1.389.966,2.749,1.954-.886-.265-1.783-.523Q32.882,483.8,31.781,482.8Zm5.129,4.811q1.672.52,3.305,1.065,2.238,1.735,4.4,3.524c-1.228-.212-2.475-.411-3.732-.6Q38.929,489.584,36.91,487.615Zm6.051,6.15q2.25.374,4.436.789c1.742,1.506,3.441,3.046,5.114,4.609q-2.344-.094-4.755-.144Q45.405,496.354,42.961,493.765Zm6.4,7.093q2.62.072,5.154.2,2.806,2.7,5.494,5.508-2.679.249-5.443.55Q52.018,503.937,49.358,500.857Zm6.527,7.929q2.892-.308,5.683-.556,2.89,3.1,5.652,6.316c-1.183.266-2.374.537-3.583.818q-1.168.272-2.355.554Q58.643,512.3,55.885,508.787Zm6.56,8.731q.907-.214,1.806-.423,2.184-.509,4.309-.982,2.917,3.466,5.7,7.071-3.107,1.1-6.33,2.274Q65.249,521.428,62.445,517.517Zm6.536,9.532q3.295-1.2,6.468-2.321c.258.339.521.672.777,1.012q2.514,3.334,4.935,6.781-3.269,1.582-6.662,3.234Q71.8,531.338,68.982,527.049Zm6.5,10.326q3.454-1.681,6.774-3.288,2.9,4.172,5.685,8.5-3.4,2.082-6.942,4.236Q78.293,542.032,75.484,537.375Zm11.022,19.468q-2.25-4.22-4.56-8.347,3.587-2.183,7.039-4.294,2.876,4.508,5.663,9.173-3.524,2.6-7.185,5.278Q86.984,557.747,86.506,556.843Zm1.878,3.559q3.706-2.7,7.271-5.336,2.863,4.833,5.662,9.821-3.628,3.142-7.4,6.358Q91.181,565.756,88.384,560.4Zm6.446,12.676q3.813-3.247,7.478-6.419,2.863,5.137,5.691,10.428-3.723,3.7-7.585,7.479Q97.638,578.755,94.83,573.079Zm6.5,13.409q3.9-3.805,7.665-7.539,2.881,5.415,5.76,10.982-3.8,4.282-7.751,8.639Q104.165,592.465,101.328,586.487Zm6.608,14.092q3.986-4.389,7.825-8.7,2.921,5.656,5.875,11.46-3.874,4.886-7.889,9.844Q110.822,606.82,107.935,600.58Zm6.773,14.693q4.053-4.99,7.961-9.909,2.984,5.857,6.038,11.852-3.928,5.5-8,11.082Q117.67,621.73,114.708,615.272Zm7,15.191q4.1-5.61,8.069-11.152.637,1.247,1.277,2.5,2.447,4.777,4.965,9.636-3.968,6.143-8.073,12.356Q124.771,637.082,121.71,630.463ZM129,646.022q4.139-6.249,8.138-12.428,3.172,6.093,6.48,12.3-3.988,6.79-8.1,13.646Q132.182,652.736,129,646.022ZM407.317,929.839c-93.233-47.086-154.126-99.186-197.285-151.547C177.6,738.944,155.189,699.442,136.626,661.8q4.148-6.892,8.166-13.719c15.437,28.741,33.492,59.2,57.495,90.475C252.03,803.367,319.1,874.574,435.4,936.731l.673.358q.637,3.665,1.351,7.25Q421.831,937.175,407.317,929.839Zm91.641,115.043a106.063,106.063,0,0,1-33.74-32.9c-11.717-17.712-19.651-39.5-24.857-64.239Q444,949.4,447.7,951.04q3.276,11.453,7.408,22.041c10.8,27.5,26.316,50.276,48.6,66.283,14.99,10.77,33.047,18.44,54.7,22.413C534.438,1060.409,514.9,1054.523,498.959,1044.882Zm6.231-6.864c-16.411-11.785-29.149-27.366-39.018-45.943a211.264,211.264,0,0,1-15.852-39.88q3.612,1.591,7.277,3.173a225.354,225.354,0,0,0,13.038,28.916c13.213,24.319,30.841,44.4,54.529,58.565,14.695,8.788,31.716,15.281,51.412,19.1-1.1.039-2.2.075-3.3.1C545.4,1059.246,523.1,1050.877,505.19,1038.018Zm87.336,24.551q1.424-.162,2.845-.342,2.091.414,4.218.792c-.761.019-1.524.031-2.286.041C595.7,1062.911,594.1,1062.75,592.526,1062.569Zm24.686,1.1c.638-.068,1.275-.142,1.912-.216q1.816.325,3.658.625c-.4.006-.8.008-1.2.012Q619.377,1063.9,617.211,1063.669Zm24.926,1.1c.354-.036.706-.076,1.06-.114.97.159,1.938.319,2.916.469Q644.113,1064.956,642.137,1064.766Zm25.147,1.1.253-.026.723.111C667.935,1065.924,667.609,1065.9,667.284,1065.867Zm719.676,38.259c-99.359,0-200.056-4.379-301.839-13.7q45.605,2.044,90.809,1.977c171.49,0,338.986-19.8,505.495-33.765q74.909-6.442,147.657-13.311,12.348,13.794,25.349,27.3A3537.867,3537.867,0,0,1,1386.96,1104.125Zm469.975-31.834q-12.99-13.446-25.318-27.206,13.508-1.293,26.955-2.612,12.625,13.159,25.9,26.022Q1870.725,1070.44,1856.935,1072.291Zm30.069-4.155q-13.254-12.8-25.851-25.918,13.037-1.283,26.02-2.595,12.869,12.47,26.37,24.642Q1900.3,1066.246,1887,1068.136Zm29.107-4.257q-13.477-12.1-26.308-24.524,13.263-1.346,26.469-2.726,12.8,11.452,26.192,22.62c.2.163.4.326.593.49Q1929.61,1061.857,1916.111,1063.879Zm29.549-4.556Q1932,1048,1918.967,1036.348q13.249-1.389,26.44-2.818,12.763,10.463,26.07,20.653c.347.266.7.53,1.047.8Q1959.119,1057.2,1945.66,1059.323Zm29.523-4.787q-13.8-10.493-27-21.3,13.227-1.436,26.4-2.915,12.767,9.509,26.039,18.756c.439.306.882.608,1.322.913Q1988.584,1052.3,1975.183,1054.536Zm29.49-5.022q-13.9-9.6-27.233-19.518,13.2-1.485,26.341-3.017,13.5,9.036,27.515,17.792Q2018.008,1047.184,2004.673,1049.514Zm29.446-5.254q-13.947-8.663-27.362-17.627,13.149-1.537,26.249-3.124,13.552,8.049,27.584,15.829Q2047.38,1041.841,2034.118,1044.26Zm29.407-5.479q-13.942-7.681-27.394-15.651,13.082-1.59,26.12-3.234,13.56,7.026,27.554,13.795Q2076.692,1036.278,2063.525,1038.781Zm29.36-5.7q-13.877-6.665-27.314-13.6,12.992-1.645,25.942-3.345,13.516,5.973,27.42,11.7Q2105.938,1030.5,2092.885,1033.08Zm29.318-5.922q-13.749-5.622-27.111-11.5,12.863-1.7,25.689-3.453,13.407,4.9,27.148,9.568Q2135.094,1024.507,2122.2,1027.158Zm29.259-6.138q-13.537-4.56-26.739-9.355,12.677-1.746,25.323-3.551,13.215,3.806,26.707,7.411Q2164.135,1018.308,2151.463,1021.019Zm29.2-6.353q-13.225-3.493-26.18-7.191,12.422-1.787,24.816-3.633,12.923,2.72,26.066,5.262Q2193.04,1011.917,2180.666,1014.666Zm29.1-6.565q-12.758-2.429-25.3-5.037,12.029-1.809,24.035-3.676,12.489,1.655,25.142,3.157Q2221.731,1005.354,2209.77,1008.1Zm51.655-12.2q-11.291,2.744-22.628,5.43-12.058-1.395-23.962-2.937,11.425-1.8,22.83-3.648Q2249.492,995.381,2261.425,995.9Zm-7.454-5.682q-8.223,1.373-16.456,2.716-8.356-.451-16.662-.956,8.5-.716,17-1.467Q2245.9,990.386,2253.971,990.217Z" transform="translate(-0.001 -371.437)" fill="#fff" opacity="0.1"/></svg>