<svg xmlns="http://www.w3.org/2000/svg" width="417.69" height="203.985" viewBox="0 0 417.69 203.985"><g transform="translate(-1167 -351.015)"><path d="M876.221,475.5H675.489a13.276,13.276,0,0,1-13.261-13.261v-6.6a13.276,13.276,0,0,1,13.261-13.261H876.221a13.276,13.276,0,0,1,13.261,13.261v6.6A13.276,13.276,0,0,1,876.221,475.5Z" transform="translate(599.772 -77.31)" fill="#01bec3" opacity="0.5"/><path d="M876.221,518.408H675.489a13.276,13.276,0,0,1-13.261-13.261v-6.6a13.276,13.276,0,0,1,13.261-13.261H876.221a13.276,13.276,0,0,1,13.261,13.261v6.6A13.276,13.276,0,0,1,876.221,518.408Z" transform="translate(599.772 -63.317)" fill="#01bec3" opacity="0.5"/><path d="M883.955,466.231H683.224A13.94,13.94,0,0,1,669.3,452.307v-6.6a13.94,13.94,0,0,1,13.924-13.924H883.956a13.94,13.94,0,0,1,13.924,13.924v6.6A13.94,13.94,0,0,1,883.955,466.231Zm-200.732-31.8a11.285,11.285,0,0,0-11.272,11.272v6.6a11.285,11.285,0,0,0,11.272,11.272H883.955a11.285,11.285,0,0,0,11.272-11.272v-6.6a11.285,11.285,0,0,0-11.272-11.272Z" transform="translate(592.7 -80.766)" fill="#3f3d56"/><path d="M883.955,509.138H683.224A13.94,13.94,0,0,1,669.3,495.214v-6.6a13.94,13.94,0,0,1,13.924-13.924H883.956a13.94,13.94,0,0,1,13.924,13.924v6.6A13.94,13.94,0,0,1,883.955,509.138Zm-200.731-31.8a11.285,11.285,0,0,0-11.272,11.272v6.6a11.285,11.285,0,0,0,11.272,11.272H883.956a11.285,11.285,0,0,0,11.272-11.272v-6.6a11.285,11.285,0,0,0-11.272-11.272Z" transform="translate(592.7 -66.773)" fill="#3f3d56"/><path d="M663.1,726.788H246.59c-.326,0-.59-.191-.59-.427s.264-.427.59-.427H663.1c.326,0,.59.191.59.427S663.426,726.788,663.1,726.788Z" transform="translate(921 -171.788)" fill="#3f3d56"/><path d="M807.384,570.149h-95.3a13.276,13.276,0,0,1-13.261-13.261v-6.6a13.276,13.276,0,0,1,13.261-13.261h95.3a13.276,13.276,0,0,1,13.261,13.261v6.6A13.276,13.276,0,0,1,807.384,570.149Z" transform="translate(616.175 -46.443)" fill="#01bec3"/><path d="M815.12,560.879h-95.3A13.94,13.94,0,0,1,705.9,546.955v-6.6a13.94,13.94,0,0,1,13.924-13.924h95.3a13.94,13.94,0,0,1,13.924,13.924v6.6A13.94,13.94,0,0,1,815.12,560.879Zm-95.3-31.8a11.285,11.285,0,0,0-11.272,11.272v6.6a11.285,11.285,0,0,0,11.272,11.272h95.3a11.285,11.285,0,0,0,11.272-11.272v-6.6a11.285,11.285,0,0,0-11.272-11.272Z" transform="translate(608.104 -49.899)" fill="#3f3d56"/></g></svg>