<svg xmlns="http://www.w3.org/2000/svg" width="541.471" height="320.825" viewBox="0 0 541.471 320.825"><g transform="translate(-977 -368)"><g transform="translate(3.471 11)"><rect width="437.195" height="207.457" transform="translate(982.898 431.342) rotate(-8.22)" fill="#edf2ff"/><rect width="412.192" height="173.087" transform="translate(997.815 447.162) rotate(-8.22)" fill="#fff"/><rect width="437.195" height="18.573" transform="translate(981 419.506) rotate(-8.22)" fill="#012054"/><circle cx="3.443" cy="3.443" r="3.443" transform="translate(992.779 424.897)" fill="#fff"/><circle cx="3.443" cy="3.443" r="3.443" transform="translate(1005.711 423.029)" fill="#fff"/><circle cx="3.443" cy="3.443" r="3.443" transform="translate(1018.645 421.16)" fill="#fff"/><rect width="437.195" height="207.457" transform="translate(1077.805 457.179)" fill="#edf2ff"/><rect width="412.192" height="173.087" transform="translate(1090.307 474.969)" fill="#fff"/><rect width="437.195" height="18.573" transform="translate(1077.619 445.193)" fill="#012054"/><circle cx="3.443" cy="3.443" r="3.443" transform="translate(1087.979 452.672)" fill="#fff"/><circle cx="3.443" cy="3.443" r="3.443" transform="translate(1101.044 452.672)" fill="#fff"/><circle cx="3.443" cy="3.443" r="3.443" transform="translate(1114.112 452.672)" fill="#fff"/><rect width="58.052" height="4.363" transform="translate(1327.824 501.285)" fill="#e6e6e6"/><rect width="89.645" height="4.363" transform="translate(1327.824 514.094)" fill="#e6e6e6"/><rect width="73.059" height="4.363" transform="translate(1328.756 526.293)" fill="#e6e6e6"/><rect width="42.651" height="4.363" transform="translate(1327.824 539.678)" fill="#e6e6e6"/><rect width="64.371" height="4.363" transform="translate(1327.824 552.753)" fill="#e6e6e6"/><rect width="7.108" height="7.108" transform="translate(1301.365 499.912)" fill="#e6e6e6"/><rect width="7.108" height="7.108" transform="translate(1301.365 512.721)" fill="#e6e6e6"/><rect width="7.108" height="7.108" transform="translate(1301.365 524.92)" fill="#e6e6e6"/><rect width="7.108" height="7.108" transform="translate(1301.365 538.306)" fill="#e6e6e6"/><rect width="7.108" height="7.108" transform="translate(1301.365 551.38)" fill="#e6e6e6"/><rect width="58.052" height="4.363" transform="translate(1327.824 565.909)" fill="#e6e6e6"/><rect width="89.645" height="4.363" transform="translate(1327.824 578.718)" fill="#e6e6e6"/><rect width="73.059" height="4.363" transform="translate(1328.756 590.917)" fill="#e6e6e6"/><rect width="42.651" height="4.363" transform="translate(1327.824 604.303)" fill="#e6e6e6"/><rect width="64.371" height="4.363" transform="translate(1327.824 617.377)" fill="#e6e6e6"/><rect width="7.108" height="7.108" transform="translate(1301.365 564.537)" fill="#e6e6e6"/><rect width="7.108" height="7.108" transform="translate(1301.365 577.346)" fill="#e6e6e6"/><rect width="7.108" height="7.108" transform="translate(1301.365 589.545)" fill="#e6e6e6"/><rect width="7.108" height="7.108" transform="translate(1301.365 602.93)" fill="#e6e6e6"/><rect width="7.108" height="7.108" transform="translate(1301.365 616.005)" fill="#e6e6e6"/><rect width="58.052" height="4.363" transform="translate(1144.177 600.135)" fill="#e6e6e6"/><rect width="73.059" height="4.363" transform="translate(1136.41 611.473)" fill="#e6e6e6"/><path d="M699.661,388.106a37.919,37.919,0,0,1-55.878,33.382l-.007-.007a37.907,37.907,0,1,1,55.886-33.375Z" transform="translate(511.273 156.988)" fill="#edf2ff"/><circle cx="10.304" cy="10.304" r="10.304" transform="translate(1162.919 522.645)" fill="#fff"/><path d="M679.544,407.557a53.11,53.11,0,0,1-35.568-.138l-.007-.005,7.677-15.153h20.608Z" transform="translate(511.273 156.988)" fill="#fff"/><path d="M556.816,501.212c-22.9,0-41.524-19.787-41.524-44.11s18.628-44.109,41.524-44.109,41.524,19.787,41.524,44.109S579.712,501.212,556.816,501.212Zm0-77.074c-16.751,0-30.378,14.788-30.378,32.964s13.628,32.965,30.378,32.965,30.378-14.788,30.378-32.965-13.628-32.964-30.378-32.964Z" transform="translate(482.193 99.743)" fill="#01bec3"/><path d="M601.3,568.622H522.658A26.187,26.187,0,0,1,496.5,542.464v-77.14a17.929,17.929,0,0,1,17.908-17.909h95.142a17.929,17.929,0,0,1,17.908,17.909v77.14A26.187,26.187,0,0,1,601.3,568.622Z" transform="translate(477.028 109.204)" fill="#012054"/><path d="M566.493,485.147A15.325,15.325,0,1,0,544.2,498.785v23.977h13.932V498.785a15.312,15.312,0,0,0,8.359-13.638Z" transform="translate(487.84 115.358)" fill="#fff"/></g></g></svg>